<svg xmlns="http://www.w3.org/2000/svg" width="66.947" height="70.75" viewBox="0 0 66.947 70.75">
  <g id="noun_Arrow_4110991" transform="translate(-18.409 87.104) rotate(-90)">
    <g id="Layer_32" data-name="Layer 32" transform="translate(16.354 18.409)">
      <path id="Path_716" data-name="Path 716" d="M79.541,83.717C84.078,72.2,82.971,56.829,70.526,50.7,64.745,47.834,57.161,48.5,52.35,52.969c-3.733,3.469-3.919,9.456,1.47,11.161a12.307,12.307,0,0,0,11.043-2.322c11.67-9.377,1.411-24.771-8.731-29.954-11.758-6.026-25.937-5.468-37.548.49-1.685.862-3.175-1.676-1.489-2.538,12.591-6.457,27.818-7.026,40.527-.49C67.979,34.626,76.543,46.55,71.2,58.377a15.5,15.5,0,0,1-12.856,9.064c-4.468.372-10.171-1.372-11.758-6.056-1.852-5.35,2.881-10.612,7.231-13.013a19.6,19.6,0,0,1,15.952-1.2c15.256,5.546,17.912,23.869,12.6,37.323C81.687,86.235,78.845,85.48,79.541,83.717Z" transform="translate(-14.128 -18.535)"/>
      <path id="Path_717" data-name="Path 717" d="M83.476,20.869A131.676,131.676,0,0,0,72.531,31.726l-.3-2.3a103.346,103.346,0,0,1,15.345,9.71c1.48,1.137,0,3.694-1.489,2.538a102.749,102.749,0,0,0-15.335-9.71,1.489,1.489,0,0,1-.3-2.312A131.769,131.769,0,0,1,81.35,18.792c1.411-1.244,3.508.833,2.077,2.077Z" transform="translate(-70.025 -18.409)"/>
    </g>
  </g>
</svg>
