<svg xmlns="http://www.w3.org/2000/svg" width="20.75" height="80.805" viewBox="0 0 20.75 80.805">
  <path id="Path_718" data-name="Path 718" d="M39.3,19.509a43.329,43.329,0,0,0,10.052-4.865L46.92,18.377a51.781,51.781,0,0,0-4.217,7.3,13.938,13.938,0,0,0-1.136,4.457,11.011,11.011,0,0,0,.488,4.215,17.994,17.994,0,0,0,1.539,3.565c.594,1.031,1.323,2.19,2.188,3.487l1.3,1.944,1.3,1.784,1.134,1.622a14.341,14.341,0,0,1,.892,1.784c.162.436.379.948.649,1.541a5.6,5.6,0,0,1,.484,1.785,5.867,5.867,0,0,1-.081,1.7A25.488,25.488,0,0,1,48.7,61.178c-.434.649-.972,1.567-1.622,2.756L45.3,67.177,44,69.933q-2.43,5.352-1.784,9.24.645,5.028,6.322,8.433a1.431,1.431,0,0,0,2.189-.568,1.526,1.526,0,0,0-.568-2.35q-4.218-2.6-4.861-6-.329-2.92,1.621-7.461c.428-.753.891-1.619,1.378-2.592s1.053-2.027,1.7-3.162,1.137-2.024,1.459-2.675q2.919-5.507,3.243-8.917a8.189,8.189,0,0,0-.162-2.756l-.485-2.6a12.581,12.581,0,0,0-1.3-2.512q-.97-1.542-1.3-2.19a19.279,19.279,0,0,0-1.619-2.35,21.369,21.369,0,0,1-1.459-2.027A39.618,39.618,0,0,1,45.945,35.4a12.942,12.942,0,0,1-1.134-4.053,6.675,6.675,0,0,1,.81-4.377,43.862,43.862,0,0,1,4.055-6.809l2.594-3.891q.321,5.837,2.593,9.078A1.621,1.621,0,1,0,57.457,23.4a11.681,11.681,0,0,1-.891-1.863c-.273-.7-.487-1.321-.649-1.865a10.337,10.337,0,0,1-.322-2.35c-.057-1.026-.081-1.754-.081-2.19V10.108a1.483,1.483,0,0,0-.163-.649,1.532,1.532,0,0,0-.487-1.944,1.435,1.435,0,0,0-2.269.322Q48.7,12.706,38.326,16.592a1.38,1.38,0,0,0-1.054,2.028A1.33,1.33,0,0,0,39.3,19.509Z" transform="translate(57.875 87.904) rotate(180)"/>
</svg>
