<svg xmlns="http://www.w3.org/2000/svg" width="143" height="143" viewBox="0 0 143 143">
  <g id="Group_248" data-name="Group 248" transform="translate(-1448 -1149)">
    <rect id="Rectangle_288" data-name="Rectangle 288" width="143" height="143" transform="translate(1448 1149)" fill="none"/>
    <g id="noun_pay_2303736" transform="translate(1466.786 1173.125)">
      <path id="Path_713" data-name="Path 713" d="M93.724,15.01,69.24,30.275a9.006,9.006,0,0,0-8.433-12.3H35.45a11.765,11.765,0,0,0-7.466,3.094L22.7,26.352A5.42,5.42,0,0,0,17.337,21.6h-9.9A5.44,5.44,0,0,0,2,27.033v28.98a5.44,5.44,0,0,0,5.434,5.434h9.9a5.424,5.424,0,0,0,5.1-3.622H59a23.6,23.6,0,0,0,13.841-5.311L101.3,26.885A7.208,7.208,0,0,0,93.724,15.01Zm-74.575,41a1.814,1.814,0,0,1-1.811,1.811h-9.9a1.814,1.814,0,0,1-1.811-1.811V27.033a1.814,1.814,0,0,1,1.811-1.811h9.9a1.814,1.814,0,0,1,1.811,1.811ZM98.814,24.251l-28.4,25.567A20.074,20.074,0,0,1,59,54.2H22.771v-22.8l7.774-7.774a8.233,8.233,0,0,1,4.9-2.032H60.807a5.434,5.434,0,1,1,0,10.867H41.847a1.811,1.811,0,0,0,0,3.622H62.618A16.782,16.782,0,0,0,70.272,33.9L95.13,18.358a3.587,3.587,0,0,1,3.684,5.894Z" transform="translate(0 30.303)" fill="#e77256"/>
      <path id="Path_714" data-name="Path 714" d="M24.625,21.866l3.51,1.275A3.278,3.278,0,0,1,27.012,29.5a3.2,3.2,0,0,1-2.442-1,3.538,3.538,0,0,1-.735-1.087,1.811,1.811,0,1,0-3.329,1.427,6.964,6.964,0,0,0,4.68,4.014v2.438a1.811,1.811,0,1,0,3.622,0V32.838a6.875,6.875,0,0,0,.569-13.106l-3.5-1.271A3.273,3.273,0,0,1,27,12.111a2.984,2.984,0,0,1,2.452,1.011,3.539,3.539,0,0,1,.732,1.076A1.811,1.811,0,1,0,33.5,12.756a6.978,6.978,0,0,0-4.691-4V6.311a1.811,1.811,0,0,0-3.622,0V8.774a6.871,6.871,0,0,0-.565,13.092Z" transform="translate(47.448 3.934)" fill="#e77256"/>
      <path id="Path_715" data-name="Path 715" d="M37.735,46.469A21.735,21.735,0,1,0,16,24.735,21.757,21.757,0,0,0,37.735,46.469Zm0-39.847A18.112,18.112,0,1,1,19.622,24.735,18.133,18.133,0,0,1,37.735,6.622Z" transform="translate(36.714)" fill="#e77256"/>
    </g>
  </g>
</svg>
