<svg xmlns="http://www.w3.org/2000/svg" xmlns:xlink="http://www.w3.org/1999/xlink" width="466.111" height="347.396" viewBox="0 0 466.111 347.396">
  <defs>
    <linearGradient id="linear-gradient" x1="0.5" y1="1" x2="0.5" gradientUnits="objectBoundingBox">
      <stop offset="0" stop-color="gray" stop-opacity="0.251"/>
      <stop offset="0.54" stop-color="gray" stop-opacity="0.122"/>
      <stop offset="1" stop-color="gray" stop-opacity="0.102"/>
    </linearGradient>
  </defs>
  <g id="undraw_studying_s3l7" transform="translate(-0.012 -0.057)">
    <path id="Path_342" data-name="Path 342" d="M528.926,242.945c-.084.493-.167.986-.26,1.479a181.44,181.44,0,0,1-15.1,47.825q-.357.739-.726,1.479a136.682,136.682,0,0,1-17.014,26.239c-3.609,4.353-7.543,8.485-12.221,11.469-6.557,4.181-14.224,5.88-21.758,7.27-7.829,1.448-15.76,2.641-23.673,3.961q-4.207.687-8.362,1.439c-7.644,1.382-15.232,2.979-22.639,5.1a117.679,117.679,0,0,0-26.406,10.862q-1,.572-1.985,1.175c-.656.4-1.32.8-1.958,1.215s-1.281.823-1.914,1.241l-.977.66c-.321.211-.638.44-.955.651-.942.643-1.87,1.32-2.8,1.972l-.035.026q-.918.66-1.826,1.32c-3.428,2.539-6.782,5.2-10.122,7.865l-2.108,1.686q-1.633,1.294-3.266,2.583c-.638.506-1.285,1.008-1.928,1.51-.467.365-.929.731-1.4,1.091-2.381,1.835-4.793,3.631-7.253,5.347-.585.409-1.179.819-1.76,1.219a92.82,92.82,0,0,1-15.641,8.617l-.07.031a62.058,62.058,0,0,1-8.309,2.865,49.751,49.751,0,0,1-4.894,1.061,43.254,43.254,0,0,1-13.269.229c-8.665-1.228-16.785-5.281-25.429-6.637-17.833-2.768-35.15,6.161-51.931,13.172q-6.161,2.579-12.459,4.841-4.172,1.505-8.384,2.865a263.959,263.959,0,0,1-52.6,11.253,121.556,121.556,0,0,1-22.335.6,75.445,75.445,0,0,1-8.362-1.087c-9.4-1.76-18.185-5.5-25.257-12.323-5.875-5.585-10.021-12.886-13.181-20.5q-1.906-4.59-3.358-9.392a104.742,104.742,0,0,1-3.42-15.329c-.172-1.171-.326-2.346-.44-3.521q-.343-3.024-.511-6.073a105.183,105.183,0,0,1,3.129-32.127c3-11.614,8-22.735,10.2-34.46.092-.493.176-.986.26-1.479q.44-2.641.669-5.378c1.109-14.338-3.182-28.373-6.571-42.43-.119-.493-.238-.986-.352-1.479q-.55-2.337-1.043-4.678c-3.138-14.866-4-30.776-1.21-45.612.088-.493.189-.99.29-1.479a73.778,73.778,0,0,1,10.281-25.715c5.215-7.992,12.063-14.642,19.364-20.486q5.347-4.269,11.06-7.988,4.106-2.667,8.362-5.048a139.368,139.368,0,0,1,74.94-17.6q2.055.106,4.1.282,2.148.185,4.282.44c16.649,1.923,32.849,6.689,48.952,11.9q8.093,2.641,16.16,5.281,3.591,1.171,7.178,2.311c11.729,3.7,23.651,7.042,35.683,9.559q4.185.88,8.362,1.606a197.639,197.639,0,0,0,29.306,3.019q5.721.141,11.443-.119,2.891-.132,5.787-.387c19.941-1.708,39.169-7.433,58.476-12.811,2.79-.779,5.585-1.554,8.362-2.3,3.67-.986,7.345-1.941,11.033-2.821,22.964-5.514,43.429-2.346,64.778,9.026,4.841,2.583,9.682,5.7,12.675,10.523s3.719,10.8,4.273,16.543c.783,8.177,1.32,16.468,1.492,24.8,0,.493,0,.986.031,1.479A263.8,263.8,0,0,1,528.926,242.945Z" transform="translate(-70.44 -88.211)" fill="#2a9d8f" opacity="0.1"/>
    <path id="Path_343" data-name="Path 343" d="M383.269,292.471h-1.5v1.479h1.7Zm-17.01,0a.1.1,0,0,0,0,.035l-.132,1.223v.22h13.027v-.088l.929-1.391Zm-34.834,0V244.646h14.963c-.158-.132-.321-.264-.489-.387l-.22-.167c-.092-.075-.185-.145-.282-.211s-.326-.233-.5-.348-.277-.189-.44-.282l-.1-.066H331.426v-2.619l-.348.167-.37.207h-.026l-.079.048-.229.15c-.079.048-.158.1-.233.15-.229.154-.44.321-.682.493l-.22.176c-.15.114-.29.233-.44.352-.585.48-1.162.981-1.76,1.444-.15.119-.3.233-.44.343a11.375,11.375,0,0,1-.995.651,4.733,4.733,0,0,1-.44.242l-.246.114-.224.1h0a9.349,9.349,0,0,1-1.637.519v46.751H300.61a.676.676,0,0,0,.044.154c.123.44.246.88.365,1.32h22.04v51.267h.343l.392.026.713.053,1.153.114.519.062.572.07h.084c.33.044.665.1,1,.15l.216.035.484.079.7.123h0l1.668-.088h0l.229.048a1.334,1.334,0,0,1,.282.057V293.95H366.1v-.22l.132-1.223a.1.1,0,0,1,0-.035Zm51.843,0h-1.5v1.479h1.7Zm-17.947,0-.15,1.479h14.492l.986-1.479Zm-33.887,0V244.646H346.4c-.158-.132-.321-.264-.488-.387l-.22-.167c-.092-.075-.185-.145-.282-.211s-.326-.233-.5-.348-.277-.189-.44-.282l-.1-.066H331.426v-2.619l-.348.167-.37.207h-.026l-.079.048-.229.15c-.079.048-.158.1-.233.15-.229.154-.44.321-.682.493l-.22.176c-.15.114-.29.233-.44.352-.585.48-1.162.981-1.76,1.444-.15.119-.3.233-.44.343a11.375,11.375,0,0,1-.995.651,4.733,4.733,0,0,1-.44.242l-.246.114-.224.1h0a9.349,9.349,0,0,1-1.637.519v46.751H300.61a.676.676,0,0,0,.044.154c.123.44.251.88.37,1.32h22.036v51.262l.343.022.392.026.713.053,1.153.114.519.062.572.07h.084c.33.044.665.1,1,.15l.216.035.484.079.7.123h0l1.668-.088h0l.229.048a1.334,1.334,0,0,1,.282.057V293.95h33.76l.158-1.479Zm113.4-99.594h94.282c0-.493,0-.986-.031-1.479H444.83V133.332c-2.8.748-5.594,1.523-8.362,2.3V191.4H333.925l-.26-.282.392-.44h0L372.2,148.819q-5.721.264-11.443.119l-29.328,32.171V145.932q-4.2-.726-8.362-1.606v35.164l-42.879-47.033c-5.382-1.76-10.765-3.552-16.16-5.281l58.282,63.942-.26.282H215.073V115.262q-2.139-.242-4.282-.44-2.046-.18-4.1-.282V191.4H131.75V132.161q-4.265,2.377-8.362,5.048V191.4H82.63c-.1.488-.2.986-.29,1.479h41.013v50.29H84.611c.114.493.233.986.352,1.479H123.37v47.825H90.851c-.084.493-.167.986-.26,1.479H123.37V427.673a75.445,75.445,0,0,0,8.362,1.087V293.95h74.957V416.9q4.216-1.369,8.384-2.865V293.95H323.046V401.377a62.057,62.057,0,0,0,8.309-2.865l.07-.031V293.95H436.441v50.378q4.176-.753,8.362-1.439V293.95h74.671q.37-.739.726-1.479H444.83V244.646h90.5c.092-.493.176-.986.26-1.479H444.83Zm-313.076,0h74.935v50.29H131.75Zm0,99.594V244.646h74.935v47.825Zm83.323-99.594H323.046v50.29H215.073Zm0,99.594V244.646H323.046v47.825Zm221.368,0H331.426V244.646H436.441Zm0-49.291H331.426V194.224l1.474-1.347H436.441Zm-70.182,49.291a.1.1,0,0,0,0,.035l-.132,1.223v.22h13.027v-.088l.929-1.391Zm17.01,0h-1.5v1.479h1.7Zm-51.843,0V244.646h14.963c-.158-.132-.321-.264-.488-.387l-.22-.167c-.092-.075-.185-.145-.282-.211s-.326-.233-.5-.348-.277-.189-.44-.282l-.1-.066H331.426v-2.619l-.348.167-.37.207h-.026l-.079.048-.229.15c-.079.048-.158.1-.233.15-.229.154-.44.321-.682.493l-.22.176c-.15.114-.29.233-.44.352-.585.48-1.162.981-1.76,1.444-.15.119-.3.233-.44.343a11.375,11.375,0,0,1-.995.651,4.733,4.733,0,0,1-.44.242l-.246.114-.224.1h0a9.349,9.349,0,0,1-1.637.519v46.751H300.61a.676.676,0,0,0,.044.154c.123.44.246.88.365,1.32h22.04v51.267h.343l.392.026.713.053,1.153.114.519.062.572.07h.084c.33.044.665.1,1,.15l.216.035.484.079.7.123h0l1.668-.088h0l.229.048a1.334,1.334,0,0,1,.282.057V293.95H366.1v-.22l.132-1.223a.1.1,0,0,1,0-.035Z" transform="translate(-77.096 -88.433)" fill="#6c63ff" opacity="0.1"/>
    <path id="Path_344" data-name="Path 344" d="M272.953,209.862h.669a1.6,1.6,0,0,1-.8-1.289h0c0-1.021,1.25-1.853,2.777-1.853h19.43c1.527,0,2.777.832,2.777,1.853h0c0,1.017-1.25,1.853-2.777,1.853h-.647a1.606,1.606,0,0,1,.792,1.289c0,.88-.907,1.6-2.121,1.8h5.594c1.523,0,2.773.832,2.773,1.853s-1.25,1.848-2.773,1.848H279.2c-1.523,0-2.773-.832-2.773-1.848,0-.88.907-1.6,2.121-1.8h-5.594c-1.523,0-2.773-.832-2.773-1.853S271.421,209.862,272.953,209.862Z" transform="translate(-182.268 -140.044)" fill="#6c63ff" opacity="0.1"/>
    <path id="Path_345" data-name="Path 345" d="M751.473,249.932h.651a1.606,1.606,0,0,1-.8-1.294h0c0-1.017,1.25-1.848,2.777-1.848h19.43c1.527,0,2.777.832,2.777,1.848h0c0,1.021-1.25,1.853-2.777,1.853h-.647a1.611,1.611,0,0,1,.792,1.294c0,.88-.907,1.6-2.121,1.8h5.594c1.523,0,2.773.836,2.773,1.853s-1.25,1.853-2.773,1.853H757.726c-1.523,0-2.773-.832-2.773-1.853,0-.88.907-1.6,2.121-1.8h-5.6c-1.523,0-2.773-.836-2.773-1.853S749.959,249.932,751.473,249.932Z" transform="translate(-450.193 -162.48)" fill="#6c63ff" opacity="0.1"/>
    <path id="Path_346" data-name="Path 346" d="M205.223,421.4h.651a1.611,1.611,0,0,1-.792-1.294h0c0-1.017,1.245-1.853,2.773-1.853h19.43c1.527,0,2.777.836,2.777,1.853h0c0,1.021-1.25,1.853-2.777,1.853h-.647a1.611,1.611,0,0,1,.792,1.294c0,.88-.907,1.6-2.121,1.8H230.9c1.527,0,2.773.832,2.773,1.853s-1.245,1.853-2.773,1.853H211.468c-1.523,0-2.773-.836-2.773-1.853,0-.88.911-1.6,2.121-1.8h-5.594c-1.523,0-2.773-.832-2.773-1.848S203.7,421.4,205.223,421.4Z" transform="translate(-144.346 -258.481)" fill="#6c63ff" opacity="0.1"/>
    <path id="Path_347" data-name="Path 347" d="M679.512,713.44q-1.633,1.294-3.266,2.583c-.638.506-1.285,1.008-1.928,1.51-.466.365-.929.731-1.4,1.091-2.381,1.835-4.793,3.631-7.253,5.347-.585.409-1.179.819-1.76,1.219a92.811,92.811,0,0,1-15.641,8.617l-.07.031v-20.4Z" transform="translate(-393.917 -423.759)" fill="#65617d"/>
    <path id="Path_348" data-name="Path 348" d="M574.935,394.841l.493-15.205c-.295-.229-.594-.44-.88-.651a81.055,81.055,0,0,0-.775-13.559c-1.989-15.205-14.906-15.535-18.55-12.4a8.8,8.8,0,0,1-1.571,1.083c.33-2.17.739-4.344,1.034-6.491,1.593-11.583-.88-24.615-9.867-32.1-3.763-3.129-8.362-5.052-12.494-7.671-7.4-4.669-13.251-11.566-20.737-16.112s-18-6.249-24.531-.4c-2.531,2.262-4.163,5.4-6.76,7.583-4.841,4.066-12.389,4.335-16.614,8.877h0c-.211.229-.414.462-.607.709-3.521,4.515-2.557,10.919-1.435,16.521,1.351,6.742.792,12.147,6.575,14.083.022.268.04.537.07.8a28.567,28.567,0,0,0,12.569,20.561l-.937.334c-2.5.88-4.749,1.734-6.188,2.319-5.281,2.152-16.4,4.955-16.4,4.955s-.264,3.169-.216,7.843c-3.706,4.027-9.889,11.1-11.707,15.3-2.641,6.117-17.56,23.638-21.534,26.283s-8.283,5.783-8.283,5.783-6.293,3.472-9.273,3.8c-2.064.229-8.45-.995-8.45-.995s-25.5-31.247-23.849-7.27,22.027,24.791,22.027,24.791l20.539-.33s11.1,1.487,16.068-2.641c4.243-3.521,26.23-22.837,33.293-31.6.163.18.326.357.5.528,0,0,2.812-3.635,3.147,0s-1.826,5.281-.665,6.6,4.639,5.95,4.8,7.768-4.634,9.242,3.477,14.875c.128.088.264.172.414.255,1.448,3.3,6.051,6.522,6.051,6.522l24.843-.33,46.875,3.635s1.4-1.228,3.283-3.235c2.522,2.315,6.021,4.3,9.964,3.081,0,0,5.633-6.773,5.8-11.236,0,0-3.644-9.422-5.281-12.23s1.162-8.925,1.162-8.925,1.985-5.95,3.147-5.95.33-3.961.33-3.961a4.815,4.815,0,0,1-.5-4.463A42.708,42.708,0,0,0,574.935,394.841Z" transform="translate(-240.366 -185.328)" fill="url(#linear-gradient)"/>
    <path id="Path_349" data-name="Path 349" d="M702.569,468.915l-1.76,2.06h0l-7.112,8.283-9.29.563-14.871.915s-20.051-24.161-16.284-29.42a9.627,9.627,0,0,0,1.32-6.764c-.035-.326-.084-.651-.141-.973a28.118,28.118,0,0,0-2.341-7.218l.493-.224.317-.145,17.533-8,4.339-1.98a11.715,11.715,0,0,0,1.188,3.424c.084.167.176.334.273.493,5.981,9.9,25.16,3.64,25.16,3.64Z" transform="translate(-396.101 -262.826)" fill="#ee8e9e"/>
    <path id="Path_350" data-name="Path 350" d="M786.859,461.673c-.132,5.994-1.109,8.582-1.109,8.582l-24.817,3.78L760,467.592,756.33,442.15l3.45-3.45a9.211,9.211,0,0,0,7.891-1.972c3.613-3.125,16.433-2.795,18.4,12.323a83.684,83.684,0,0,1,.783,12.622Z" transform="translate(-454.465 -267.946)" fill="#ee8e9e"/>
    <path id="Path_351" data-name="Path 351" d="M794.573,622.085s5.585-6.738,5.752-11.174l-5.589-9.37-4.929-5.281L780.6,614.031S786.682,624.549,794.573,622.085Z" transform="translate(-468.054 -358.149)" fill="#dfe5ee"/>
    <path id="Path_352" data-name="Path 352" d="M794.573,622.085s5.585-6.738,5.752-11.174l-5.589-9.37-4.929-5.281L780.6,614.031S786.682,624.549,794.573,622.085Z" transform="translate(-468.054 -358.149)" opacity="0.1"/>
    <path id="Path_353" data-name="Path 353" d="M351.708,702.875c-.466.365-.929.731-1.4,1.091-2.381,1.835-4.793,3.631-7.253,5.347-.585.409-1.179.819-1.76,1.219H200.9l-41.536-1.487-33.4-.282-8.362-.44-41.721-2.2a104.744,104.744,0,0,1-3.437-15.342c-.172-1.171-.326-2.346-.44-3.521l45.581,2.526,8.362.471,74.94,4.181,8.384.466,107.973,6.029,8.309.466h.07Z" transform="translate(-71.307 -409.101)" fill="#d48a9b"/>
    <path id="Path_354" data-name="Path 354" d="M407.364,634.465a117.681,117.681,0,0,0-26.406,10.862c-.665.383-1.32.775-1.985,1.175s-1.32.8-1.958,1.215-1.281.823-1.914,1.241l-.977.66-.955.651c-.942.647-1.87,1.32-2.8,1.972l-.035.026q-.918.66-1.826,1.32c-3.428,2.539-6.782,5.2-10.122,7.865q-1.056.845-2.117,1.686l-3.257,2.583c-.638.506-1.285,1.008-1.928,1.51-.466.365-.929.731-1.4,1.091l-24.645-1.175h-.07l-8.309-.387-108.022-5.118-8.384-.4-74.94-3.56-8.362-.4-45.158-2.126c-.172-1.171-.326-2.346-.44-3.521q-.343-3.024-.511-6.073l46.1-16.284,8.362-2.962,7.6-2.685,13.841.722,31.991,1.642h0l21.529,1.131,8.384.44,5.356.282h0l1.281.07h0l45.075,2.354h0l.475.031h0l20.112,1.047h.361l2.011.1h0l6.857.361,8.573.44h0l2.825.15h0l.533.031,4,.207h0l1.14.057h0l3.816.2h0l1.518.084h.365l3.569.189,5.528.29h.026l1.716.088h.185l1.025.057,2.517.132h0l2.2.115h.022l2.469.128h.04l1.87.1h0l1.435.075,5.092.268h0l.915.048h.317l.44.026h0l1.492.079h0l.669.035h0l5.193.268h.475l7.666-.066h.053l29.148-.238h2.883l9.383-.075h1.4Z" transform="translate(-70.657 -373.474)" fill="#efc6cd"/>
    <path id="Path_355" data-name="Path 355" d="M387.6,643.349l2.711,14.422,73.707-1.109s5.545,1.6,5.422-2.834c0,0,11.218-10.6,68.039,1.725L515.661,638.42l-59.633,3.2-69.148-1.848Z" transform="translate(-247.609 -381.755)" fill="#2a9d8f"/>
    <path id="Path_356" data-name="Path 356" d="M391.59,640.768l2.588,15.654s63.374-1.848,73.338-.123l-7.53-14.3S421.666,638.427,391.59,640.768Z" transform="translate(-250.246 -382.624)" fill="#fff"/>
    <path id="Path_357" data-name="Path 357" d="M391.59,640.768l2.588,15.654s63.374-1.848,73.338-.123l-7.53-14.3S421.666,638.427,391.59,640.768Z" transform="translate(-250.246 -382.624)" opacity="0.1"/>
    <path id="Path_358" data-name="Path 358" d="M393.74,640.709l2.553,14.558s62.568-1.716,72.427-.114l-7.424-13.3S423.438,638.531,393.74,640.709Z" transform="translate(-251.45 -382.622)" fill="#fff"/>
    <path id="Path_359" data-name="Path 359" d="M396.35,641.779l2.487,13.617s61.2-1.606,70.855-.106l-7.262-12.442S425.4,639.724,396.35,641.779Z" transform="translate(-252.911 -383.244)" opacity="0.1"/>
    <path id="Path_360" data-name="Path 360" d="M397.47,640.661l2.5,13.643s61.2-1.606,70.856-.106l-7.279-12.455S426.521,638.624,397.47,640.661Z" transform="translate(-253.538 -382.623)" fill="#fff"/>
    <path id="Path_361" data-name="Path 361" d="M287.886,557.41s3.2,4.185-1.474,10.509-8.542,11.658-6.98,15.6c0,0,7.042-11.742,12.807-11.883S294.21,564.469,287.886,557.41Z" transform="translate(-187.251 -336.397)" fill="#f4a261"/>
    <path id="Path_362" data-name="Path 362" d="M288.116,557.41a5.088,5.088,0,0,1,.656,1.32c5.607,6.6,8.6,12.763,3.2,12.895-5.022.141-11.042,9.119-12.486,11.39q.075.255.172.515s7.042-11.742,12.807-11.883S294.44,564.469,288.116,557.41Z" transform="translate(-187.481 -336.397)" opacity="0.1"/>
    <path id="Path_363" data-name="Path 363" d="M311.679,568.338c0,1.47-.167,2.667-.37,2.667s-.37-1.2-.37-2.667.207-.783.409-.783S311.679,566.863,311.679,568.338Z" transform="translate(-205.09 -341.986)" fill="#ffd037"/>
    <path id="Path_364" data-name="Path 364" d="M314.049,572.238c-1.294.709-2.421,1.135-2.517.955s.88-.88,2.165-1.6.783-.194.88,0S315.343,571.534,314.049,572.238Z" transform="translate(-205.417 -344.131)" fill="#ffd037"/>
    <path id="Path_365" data-name="Path 365" d="M251.516,557.41s-3.2,4.185,1.479,10.509,8.538,11.658,6.98,15.6c0,0-7.064-11.742-12.811-11.883S245.192,564.469,251.516,557.41Z" transform="translate(-167.794 -336.397)" fill="#f4a261"/>
    <path id="Path_366" data-name="Path 366" d="M251.516,557.41a5.281,5.281,0,0,0-.656,1.32c-5.607,6.6-8.6,12.763-3.2,12.895,5.021.141,11.046,9.119,12.49,11.39a5.294,5.294,0,0,1-.172.515s-7.064-11.742-12.811-11.883S245.192,564.469,251.516,557.41Z" transform="translate(-167.794 -336.397)" opacity="0.1"/>
    <path id="Path_367" data-name="Path 367" d="M247.13,568.338c0,1.47.167,2.667.37,2.667s.37-1.2.37-2.667-.207-.783-.409-.783S247.13,566.863,247.13,568.338Z" transform="translate(-169.362 -341.986)" fill="#ffd037"/>
    <path id="Path_368" data-name="Path 368" d="M241.492,572.238c1.294.709,2.425,1.135,2.522.955s-.88-.88-2.165-1.6-.783-.194-.88,0S240.2,571.534,241.492,572.238Z" transform="translate(-165.766 -344.131)" fill="#ffd037"/>
    <path id="Path_369" data-name="Path 369" d="M275.162,601.424l-.158,1.32-.224,1.844-.092.77-.224,1.848-.1.77-.229,1.848-2.561,21c-.229,1.875-3.292,3.336-6.989,3.336h-13.3c-3.7,0-6.755-1.461-6.984-3.336l-2.566-21-.224-1.848-.092-.77-.229-1.848-.092-.77-.224-1.844-.163-1.32c-.128-1.061,1.527-1.954,3.622-1.954h27.224C273.648,599.47,275.307,600.363,275.162,601.424Z" transform="translate(-165.765 -359.947)" fill="#65617d"/>
    <path id="Path_370" data-name="Path 370" d="M204.793,551.59l-.224,1.848H170.874l-.224-1.848Z" transform="translate(-95.541 -308.806)" fill="#9d9cb5"/>
    <path id="Path_371" data-name="Path 371" d="M204.879,557.54l-.224,1.848H171.6l-.229-1.848Z" transform="translate(-95.944 -312.137)" fill="#9d9cb5"/>
    <path id="Path_372" data-name="Path 372" d="M204.966,563.49l-.224,1.844H172.324l-.224-1.844Z" transform="translate(-96.353 -315.468)" fill="#9d9cb5"/>
    <path id="Path_373" data-name="Path 373" d="M400.825,596.21s-8.547-8.217-8.217,2.465S400.825,596.21,400.825,596.21Z" transform="translate(-250.811 -356.432)" fill="#ee8e9e"/>
    <path id="Path_374" data-name="Path 374" d="M466.821,516.125a12.468,12.468,0,0,1-2.544,3.921c-7.411,8.925-28.5,27.475-32.629,30.917-4.929,4.111-15.94,2.641-15.94,2.641l-20.376.33s-20.214-.823-21.86-24.645,23.664,7.231,23.664,7.231,6.337,1.215,8.384.986c2.957-.326,9.2-3.776,9.2-3.776s4.273-3.125,8.217-5.752,18.735-20.051,21.367-26.133c1.668-3.86,7.042-10.171,10.752-14.264,2.13-2.354,3.71-3.961,3.71-3.961S467.97,511.029,466.821,516.125Z" transform="translate(-240.059 -295.082)" fill="#ee8e9e"/>
    <path id="Path_375" data-name="Path 375" d="M570.714,516.1a12.467,12.467,0,0,1-2.544,3.921c-7.482-7.618-9.044-22.819-9.22-32.484,2.13-2.354,3.71-3.961,3.71-3.961S571.862,511.007,570.714,516.1Z" transform="translate(-343.952 -295.059)" opacity="0.1"/>
    <path id="Path_376" data-name="Path 376" d="M700.8,483.673h0l-7.108,8.283-9.29.563-14.871.915s-20.051-24.161-16.284-29.42a9.627,9.627,0,0,0,1.32-6.764c-.035-.326-.084-.651-.141-.973a28.118,28.118,0,0,0-2.341-7.218l.493-.224.317-.145a31.556,31.556,0,0,1,1.611,6.738c.048.312.092.638.136.973.154,1.188.295,2.509.44,3.961,1.144,13.3,9.51,18.3,13.286,19.9a38.324,38.324,0,0,1,3.556,1.721,18.973,18.973,0,0,0,11.927,2.156c9.321-1.223,16.922-8,16.922-8l.04,6.667Z" transform="translate(-396.101 -275.524)" opacity="0.1"/>
    <path id="Path_377" data-name="Path 377" d="M650.031,532.7s-61.134-.167-69.192-5.752-3.283-12.983-3.45-14.792-3.613-6.408-4.762-7.728.986-2.957.656-6.571-3.12,0-3.12,0c-11.509-11.671-9.044-41.25-9.044-41.25s11-2.79,16.284-4.933c1.43-.581,3.657-1.408,6.161-2.3l.929-.334c6.456-2.311,14.131-4.92,14.131-4.92s1.474-1.043,2.957,2.077a27.425,27.425,0,0,1,1.906,7.438c.048.312.092.638.136.973.154,1.188.295,2.509.44,3.961,1.144,13.3,9.51,18.3,13.287,19.9a38.306,38.306,0,0,1,3.556,1.721,18.973,18.973,0,0,0,11.927,2.157c9.321-1.224,16.922-8,16.922-8l.04,6.667.114,20.033Z" transform="translate(-345.041 -272.87)" fill="#dfe5ee"/>
    <path id="Path_378" data-name="Path 378" d="M672.744,583.728l-.986,6.245s-24.324,6.078-33.852,7.887-30.076-.493-31.555,3.45,6.245,9.37,6.245,9.37l24.645-.33,46.509,3.618s17.749-15.615,12-26.463S672.744,583.728,672.744,583.728Z" transform="translate(-370.386 -349.864)" fill="#ee8e9e"/>
    <path id="Path_379" data-name="Path 379" d="M631.714,474.58s-11.178,9.2-9.04,13.643S631.714,474.58,631.714,474.58Z" transform="translate(-379.479 -290.02)" opacity="0.1"/>
    <path id="Path_380" data-name="Path 380" d="M598.566,512.29s-11.341,19.558-10.681,21.037,3.78,6.738,3.613,2.795S598.566,512.29,598.566,512.29Z" transform="translate(-360.137 -311.134)" opacity="0.1"/>
    <path id="Path_381" data-name="Path 381" d="M615.281,520.14s-2.641,12.16-5.259,17.256S615.281,520.14,615.281,520.14Z" transform="translate(-372.248 -315.53)" opacity="0.1"/>
    <path id="Path_382" data-name="Path 382" d="M653.988,429.957a28.43,28.43,0,0,1-21.609,14.62h-.053a28.382,28.382,0,0,1-20.007-5.237c6.6-2.385,15.06-5.255,15.06-5.255s1.474-1.043,2.957,2.077l22.19-10.122a11.763,11.763,0,0,0,1.461,3.917Z" transform="translate(-373.834 -262.843)" opacity="0.1"/>
    <path id="Path_383" data-name="Path 383" d="M642.54,365.613a28.3,28.3,0,0,1-3.741,14.109,28.638,28.638,0,0,1-4.238,5.642,28.311,28.311,0,0,1-17.234,8.52h-.057a27.755,27.755,0,0,1-3.16.18,28.43,28.43,0,0,1-28.25-25.227,27.6,27.6,0,0,1-.18-3.208,28.43,28.43,0,0,1,56.86,0Z" transform="translate(-358.918 -213.101)" fill="#ee8e9e"/>
    <path id="Path_384" data-name="Path 384" d="M754.224,506.343l2.641-3.961s14.462-17.256,28.606-6.245l-.493,15.122a40.09,40.09,0,0,1-1.646,7.042,4.81,4.81,0,0,0,.493,4.441s.823,3.961-.326,3.961-3.125,5.915-3.125,5.915-2.795,6.082-1.149,8.877,5.259,12.16,5.259,12.16-5.752-3.45-7.4-9.2c0,0-13.969-10.848-24.817-3.961Z" transform="translate(-452.192 -300.034)" opacity="0.1"/>
    <path id="Path_385" data-name="Path 385" d="M791.535,491.545c-.132,5.994-1.109,8.582-1.109,8.582l-24.817,3.78-.929-6.443C767.928,494.075,779.74,483.3,791.535,491.545Z" transform="translate(-459.141 -297.818)" opacity="0.1"/>
    <path id="Path_386" data-name="Path 386" d="M754.224,504.343l2.641-3.961s14.462-17.256,28.606-6.245l-.493,15.122a40.09,40.09,0,0,1-1.646,7.042,4.81,4.81,0,0,0,.493,4.441s.823,3.961-.326,3.961-3.125,5.915-3.125,5.915-2.795,6.082-1.149,8.877,5.259,12.16,5.259,12.16-5.752-3.45-7.4-9.2c0,0-13.969-10.848-24.817-3.961Z" transform="translate(-452.192 -298.914)" fill="#dfe5ee"/>
    <path id="Path_387" data-name="Path 387" d="M780.827,496.61S757,511.239,758.149,524.068C758.149,524.068,771.462,500.553,780.827,496.61Z" transform="translate(-455.461 -302.355)" opacity="0.1"/>
    <path id="Path_388" data-name="Path 388" d="M663.555,421.235l.114,20.033c-4.507.2-8.754-.383-12.111-3.3a14.534,14.534,0,0,1-4.4-7.878,27.908,27.908,0,0,1-.572-7.451.4.4,0,0,1,0-.075c.277-5.532,1.549-11.064.88-16.561s-4-11.3-9.44-12.455c-1.074-.233-2.28-.317-3.045-1.1-.845-.88-.805-2.249-.713-3.468l.158-2.055c.04-.528.057-1.052.057-1.576A20.17,20.17,0,0,0,618.2,365.567l-.176-.031a11.122,11.122,0,0,0-4.656-.26c-2.913.673-4.8,3.5-7.482,4.841-5.149,2.57-13.735-.242-19.127-1.127-.352-.057-.687-.123-1.008-.2a27.609,27.609,0,0,1-.18-3.208,28.43,28.43,0,1,1,53.12,14.109c.084.167.176.334.273.493,5.981,9.9,25.16,3.64,25.16,3.64l1.153,35.335Z" transform="translate(-358.856 -213.082)" opacity="0.1"/>
    <path id="Path_389" data-name="Path 389" d="M597.565,343.73c2.667-1.347,4.551-4.172,7.482-4.841a11.226,11.226,0,0,1,4.661.255l.176.035a20.187,20.187,0,0,1,16.209,21.358l-.158,2.055c-.1,1.215-.136,2.592.717,3.464.761.788,1.967.88,3.041,1.1,5.44,1.162,8.771,6.932,9.44,12.459s-.625,11.077-.88,16.631.766,11.685,4.964,15.333c6.6,5.721,16.636,2.465,25.372,1.941-3.864,0-6.76-3.987-6.971-7.843s1.505-7.526,3.147-11,3.287-7.218,2.922-11.064c-.5-5.281-4.665-9.51-6.258-14.594-1.857-5.915-.066-12.265.775-18.414,1.58-11.513-.88-24.474-9.792-31.916-3.732-3.111-8.3-5.026-12.4-7.631-7.35-4.661-13.146-11.5-20.575-16.028s-17.859-6.214-24.342-.4c-2.509,2.249-4.128,5.369-6.707,7.539-5.039,4.247-13.049,4.326-17.089,9.537-3.477,4.485-2.535,10.853-1.422,16.42,1.483,7.424.647,13.2,8.582,14.523C583.829,343.492,592.411,346.3,597.565,343.73Z" transform="translate(-349.502 -187.182)" fill="#603556"/>
    <path id="Path_390" data-name="Path 390" d="M662.873,435.472c-6.359.779-12.662,1.179-17.291-2.834-4.2-3.648-5.233-9.775-4.964-15.333s1.554-11.112.88-16.636-4-11.293-9.44-12.455c-1.074-.229-2.275-.312-3.041-1.1-.849-.88-.814-2.253-.717-3.468l.158-2.055a20.183,20.183,0,0,0-16.209-21.353l-.176-.035a11.226,11.226,0,0,0-4.661-.255c-2.913.673-4.8,3.521-7.482,4.841-5.154,2.575-13.731-.238-19.131-1.122-7.922-1.3-7.094-7.086-8.582-14.523-.832-4.155-1.567-8.758-.44-12.692a6.912,6.912,0,0,0-.607.709c-3.477,4.485-2.535,10.853-1.422,16.42,1.483,7.424.647,13.2,8.582,14.523,5.4.88,13.977,3.7,19.131,1.122,2.667-1.347,4.551-4.172,7.482-4.841a11.226,11.226,0,0,1,4.661.255l.176.035a20.187,20.187,0,0,1,16.209,21.358l-.158,2.055c-.1,1.215-.136,2.592.717,3.464.761.788,1.967.88,3.041,1.1,5.44,1.162,8.771,6.932,9.44,12.459s-.62,11.077-.88,16.631.766,11.685,4.964,15.333c6.6,5.721,16.636,2.465,25.372,1.941A6.694,6.694,0,0,1,662.873,435.472Z" transform="translate(-349.429 -212.681)" opacity="0.1"/>
    <path id="Path_391" data-name="Path 391" d="M371.7,581.724,398.831,571.6a2.583,2.583,0,0,1,3.323,1.514h0a2.583,2.583,0,0,1-1.514,3.323L373.508,586.56l-5.818-.581Z" transform="translate(-236.864 -344.251)" fill="#5c5c8e"/>
    <path id="Path_392" data-name="Path 392" d="M401.313,572.8h0a2.583,2.583,0,0,1-1.518,3.323l-27.15,10.157-4.366-.44-.629.669,5.818.581L400.6,576.972a2.583,2.583,0,0,0,1.514-3.323h0a2.583,2.583,0,0,0-1.056-1.289,3,3,0,0,1,.255.445Z" transform="translate(-236.842 -344.768)" fill="#fff" opacity="0.1"/>
    <path id="Path_393" data-name="Path 393" d="M301.269,539.52l1.8,4.837-4.771-.48-1.043-.106,1.426-1.514Z" transform="translate(-166.43 -302.048)" fill="#efc8c4"/>
    <path id="Path_394" data-name="Path 394" d="M369.133,601a1.152,1.152,0,0,1,.282.3.44.44,0,0,1,0,.471.937.937,0,0,1-.26.189.88.88,0,0,0-.387.651l-1.047-.1Z" transform="translate(-236.881 -360.803)" fill="#727a9c"/>
    <path id="Path_395" data-name="Path 395" d="M569.732,644.939s23.5-4.933,62.934,1.32l-15.447-11.337-28.1-5.752-19.884,5.281Z" transform="translate(-349.707 -376.576)" fill="#fff"/>
    <path id="Path_396" data-name="Path 396" d="M569.732,644.939s23.5-4.933,62.934,1.32l-15.447-11.337-28.1-5.752-19.884,5.281Z" transform="translate(-349.707 -376.576)" opacity="0.1"/>
    <path id="Path_397" data-name="Path 397" d="M554.569,651.994s11.834-32.013,72.616.1L605.37,638.056s-52.261-14.44-58.3,2.2Z" transform="translate(-337.3 -378.297)" fill="#fff"/>
    <path id="Path_398" data-name="Path 398" d="M554.53,649.013s11.834-34.226,72.616.616L605.33,634.4s-52.279-17.269-58.33.805Z" transform="translate(-337.261 -375.338)" opacity="0.1"/>
    <path id="Path_399" data-name="Path 399" d="M554.569,648.86s11.834-34.732,72.616.11L605.37,633.743s-52.261-16.776-58.3,1.32Z" transform="translate(-337.3 -375.172)" fill="#fff"/>
    <path id="Path_400" data-name="Path 400" d="M554.547,647.073s11.834-38.6,72.616.594L605.33,630.534s-52.261-17.6-58.3,2.711Z" transform="translate(-337.278 -373.376)" opacity="0.1"/>
    <path id="Path_401" data-name="Path 401" d="M554.547,646.424s11.834-39.072,72.616.123L605.33,629.414s-52.261-17.6-58.3,2.711Z" transform="translate(-337.278 -372.749)" fill="#fff"/>
    <path id="Path_402" data-name="Path 402" d="M969.623,668.71s-14.589,15.628-1.457,23.219a3.643,3.643,0,0,0,4.168.986s-.827-.735.832-2.152a9.843,9.843,0,0,0,1.562-1.716,4.841,4.841,0,0,0,.907-2.931h0s1.91-6.2-4.159-14.25c0,0-.55-2.693-1.017-2.988l-1.109,3.754s2.786.709,3.833,2.83c0,0-3.67-2.883-4.027-2.28-.07.123-.5,2.02-.5,2.02s4.841,1.25,6.355,4.577c0,0-3.912-4.018-6.522-3.86l-.475,2.9s5.18,1.074,7.042,4.8c0,0-4.234-4.062-7.112-4.154l-.084,2.909s5.03,1.144,6.566,4.251c0,0-5.365-4.194-6.54-3.582a14.38,14.38,0,0,0,.44,3.38s3.591.88,4.322,2.79c0,0-3.882-2.425-4.216-2.055,0,0,1.043,3.459,2.5,4.934a10.949,10.949,0,0,1-3.028-4.744,6.037,6.037,0,0,0-.731,3.375s-1.439-1.593.488-4.216a13.907,13.907,0,0,1-.528-3.16,13.145,13.145,0,0,0-2.847,4.4s-.44-2.605,2.843-5.154v-2.931s-3.16,2.909-3.811,4.709c0,0-.044-2.729,3.877-5.444l.44-2.847a22.27,22.27,0,0,0-4.071,4.146s.5-2.544,4.225-4.956l.515-1.866s-2.095,1.716-2.641,2.262-.753.44-.753.44a9.243,9.243,0,0,1,3.609-3.494S969.865,668.811,969.623,668.71Z" transform="translate(-570.004 -398.714)" fill="#6c63ff" opacity="0.1"/>
    <path id="Path_403" data-name="Path 403" d="M1110.4,90.91s-19.492,8.8-10.3,20.856a3.647,3.647,0,0,0,3.464,2.522s-.48-1,1.6-1.668a9.643,9.643,0,0,0,2.1-.981,4.841,4.841,0,0,0,1.967-2.355h0s4.155-4.982,1.659-14.748c0,0,.532-2.7.216-3.151l-2.473,3.037s2.3,1.725,2.447,4.088c0,0-2.271-4.075-2.834-3.653-.114.084-1.237,1.668-1.237,1.668s3.961,3.019,4.1,6.676c0,0-2.06-5.22-4.533-6.082l-1.554,2.491s4.366,2.988,4.656,7.143c0,0-2.341-5.378-4.96-6.575l-1.2,2.641s4.2,3,4.4,6.456c0,0-3.331-5.941-4.652-5.827a13.674,13.674,0,0,0-.88,3.288s2.966,2.2,2.913,4.243c0,0-2.641-3.732-3.081-3.521,0,0-.374,3.591.4,5.514a10.925,10.925,0,0,1-.964-5.545,6.023,6.023,0,0,0-1.976,2.834s-.713-2.029,2.077-3.706a13.805,13.805,0,0,1,.731-3.116,13.138,13.138,0,0,0-4.317,2.944s.594-2.575,4.612-3.657l1.144-2.693s-4.036,1.461-5.334,2.869c0,0,1.012-2.535,5.677-3.521l1.5-2.456a22.479,22.479,0,0,0-5.356,2.253s1.448-2.148,5.814-2.94l1.193-1.523s-2.6.775-3.323,1.065-.88.119-.88.119a9.242,9.242,0,0,1,4.7-1.831S1110.559,91.086,1110.4,90.91Z" transform="translate(-645.564 -75.202)" fill="#6c63ff" opacity="0.1"/>
    <path id="Path_404" data-name="Path 404" d="M682.16,103.29s-29.284,8.362-15.047,20.808c0,0,1.263,2.641,5.316,2.641,0,0-.757-1.021,2.377-1.642a18.612,18.612,0,0,0,3.16-.933,5.637,5.637,0,0,0,2.913-2.328h0s6.161-4.929,2.117-14.866c0,0,.735-2.711.242-3.177l-3.662,3s3.521,1.809,3.816,4.2c0,0-3.552-4.177-4.4-3.767-.172.084-1.831,1.65-1.831,1.65s6.109,3.16,6.386,6.861c0,0-3.257-5.33-7.042-6.267l-2.288,2.473s6.689,3.138,7.24,7.345c0,0-3.688-5.5-7.684-6.777l-1.76,2.641s6.443,3.142,6.866,6.645c0,0-5.206-6.1-7.2-6.021,0,0-1.377,2.509-1.254,3.305,0,0,4.551,2.324,4.529,4.366,0,0-4.111-3.846-4.788-3.644,0,0-.466,3.622.757,5.585,0,0-2.121-2.821-1.611-5.629,0,0-2.328,1.166-2.913,2.808,0,0-1.135-2.064,3.045-3.684,0,0,.533-2.808,1.021-3.133,0,0-4.489,1.2-6.456,2.861,0,0,.827-2.588,6.883-3.574l1.664-2.693s-6.073,1.373-8,2.759c0,0,1.466-2.535,8.507-3.415l2.2-2.443a43.3,43.3,0,0,0-8.054,2.134s2.134-2.134,8.723-2.817l1.76-1.505s-3.912.713-5,.986-1.32.1-1.32.1a17.335,17.335,0,0,1,7.042-1.725S682.416,103.475,682.16,103.29Z" transform="translate(-402.327 -82.134)" fill="#6c63ff" opacity="0.1"/>
    <path id="Path_405" data-name="Path 405" d="M894.759,813.5s14.743-15.487,1.686-23.206a3.649,3.649,0,0,0-4.159-1.03s.823.744-.849,2.148a9.934,9.934,0,0,0-1.58,1.7,4.81,4.81,0,0,0-.933,2.922h0s-1.976,6.183,4.018,14.29c0,0,.524,2.7.986,3l1.149-3.745s-2.781-.735-3.807-2.865c0,0,3.64,2.913,4,2.315.075-.123.519-2.011.519-2.011s-4.841-1.32-6.311-4.639c0,0,3.873,4.058,6.487,3.921l.5-2.891s-5.167-1.122-7-4.841c0,0,4.194,4.1,7.072,4.225l.11-2.913s-5.022-1.215-6.544-4.339c0,0,5.325,4.251,6.5,3.648a13.105,13.105,0,0,0-.44-3.38s-3.582-.942-4.3-2.834c0,0,3.86,2.465,4.194,2.095,0,0-1.008-3.468-2.447-4.955a10.944,10.944,0,0,1,2.984,4.771,6.016,6.016,0,0,0,.761-3.367s1.426,1.611-.528,4.212a13.915,13.915,0,0,1,.5,3.164,13.181,13.181,0,0,0,2.887-4.353s.44,2.61-2.891,5.123l-.044,2.931s3.186-2.878,3.855-4.674c0,0,0,2.733-3.93,5.409l-.44,2.843a22.334,22.334,0,0,0,4.111-4.106s-.528,2.535-4.273,4.911l-.533,1.862s2.112-1.694,2.676-2.236.757-.44.757-.44a9.211,9.211,0,0,1-3.644,3.459S894.539,813.391,894.759,813.5Z" transform="translate(-528.53 -466.044)" fill="#6c63ff" opacity="0.1"/>
    <path id="Path_406" data-name="Path 406" d="M575.85,55.867s2.513,21.23,16.79,16.108a3.65,3.65,0,0,0,3.446-2.548s-1.1.158-1.109-2.024a9.851,9.851,0,0,0-.3-2.3,4.806,4.806,0,0,0-1.65-2.583h0s-3.5-5.466-13.586-6c0,0-2.412-1.32-2.94-1.153l2.152,3.27s2.337-1.672,4.634-1.1c0,0-4.568.942-4.335,1.6.044.136,1.215,1.681,1.215,1.681s4.115-2.9,7.636-1.914c0,0-5.594.387-7.16,2.487l1.879,2.236s4.163-3.266,8.217-2.293c0,0-5.836.616-7.768,2.751l2.192,1.945s4.119-3.107,7.482-2.271c0,0-6.672,1.391-6.962,2.68a14.075,14.075,0,0,0,2.874,1.84s3.01-2.161,4.92-1.5c0,0-4.357,1.4-4.291,1.892,0,0,3.314,1.435,5.378,1.276a11.168,11.168,0,0,1-5.576-.748,6.035,6.035,0,0,0,2.108,2.737s-2.148.066-2.909-3.081a14.024,14.024,0,0,1-2.751-1.633,13.171,13.171,0,0,0,1.51,5s-2.28-1.32-2.1-5.5l-2.2-1.906s.18,4.291,1.131,5.955c0,0-2.112-1.73-1.655-6.478l-1.888-2.17a22.359,22.359,0,0,0,.533,5.783s-1.615-2.024-1.052-6.425l-1.1-1.6s-.04,2.707,0,3.49-.15.858-.15.858a9.243,9.243,0,0,1-.343-5.03S576.07,55.762,575.85,55.867Z" transform="translate(-353.414 -55.29)" fill="#6c63ff" opacity="0.1"/>
    <path id="Path_407" data-name="Path 407" d="M790.927,733.953s-20.605-5.721-21.265,9.436a3.652,3.652,0,0,0,1.052,4.155s.268-1.074,2.293-.26a9.859,9.859,0,0,0,2.245.594,4.81,4.81,0,0,0,3.019-.555h0s6.381-1.171,10.712-10.272c0,0,2.135-1.73,2.2-2.284l-3.842.753s.66,2.8-.739,4.709c0,0,.88-4.586.163-4.621-.145,0-2.02.488-2.02.488s1.127,4.867-1.122,7.75c0,0,1.76-5.325.409-7.57l-2.79.92s1.444,5.088-.995,8.467c0,0,1.646-5.629.4-8.225l-2.614,1.272s1.32,4.991-.735,7.79c0,0,1.241-6.7.154-7.46A14.315,14.315,0,0,0,774.661,741s.88,3.6-.475,5.123c0,0,.352-4.564-.128-4.687,0,0-2.588,2.522-3.221,4.493a10.943,10.943,0,0,1,2.808-4.876,6.044,6.044,0,0,0-3.331.911s.748-2.011,3.961-1.514a13.792,13.792,0,0,1,2.557-1.928,13.08,13.08,0,0,0-5.2-.5s2.1-1.6,5.884.141l2.605-1.32s-4.04-1.457-5.937-1.206c0,0,2.4-1.32,6.6.92l2.72-.929a22.392,22.392,0,0,0-5.554-1.694s2.487-.726,6.346,1.461l1.892-.409s-2.491-1.065-3.235-1.32-.739-.44-.739-.44a9.241,9.241,0,0,1,4.766,1.584S790.94,734.2,790.927,733.953Z" transform="translate(-461.785 -434.651)" fill="#6c63ff" opacity="0.1"/>
  </g>
</svg>
