<svg xmlns="http://www.w3.org/2000/svg" width="143" height="143" viewBox="0 0 143 143">
  <g id="Group_247" data-name="Group 247" transform="translate(-295 -1078)">
    <rect id="Rectangle_287" data-name="Rectangle 287" width="143" height="143" transform="translate(295 1078)" fill="none"/>
    <g id="noun_deal_3140623" transform="translate(306.407 1098.271)">
      <path id="Path_711" data-name="Path 711" d="M54.282,29.041a14.871,14.871,0,0,0-7.223-.387l-6.584.252a3.582,3.582,0,0,0-1.762-2.885L25.43,17.539a1.936,1.936,0,0,0-2.692.6L2.29,50.864a1.936,1.936,0,0,0,.639,2.672l13.032,7.939a3.637,3.637,0,0,0,3.253.349l2.963,1.936a6.739,6.739,0,0,0,4.105,10.728,6.855,6.855,0,0,0,6.351,8.636h.252a6.7,6.7,0,0,0,2.943-.7,6.893,6.893,0,0,0,1.627,3.021,6.719,6.719,0,0,0,9.023.755,6.932,6.932,0,0,0,1.568,2.73,6.8,6.8,0,0,0,9.585.329l2.111-1.936,3.563,2.324a6.777,6.777,0,0,0,10.456-5.035,6.758,6.758,0,0,0,2.246.407,6.874,6.874,0,0,0,6.855-6.816,6.855,6.855,0,0,0,7.281-7.9,6.8,6.8,0,0,0,4.8-10.127l6.235-3.6a3.873,3.873,0,0,0,.852.232h.562a3.873,3.873,0,0,0,2.324-.775l12.49-9.353a1.936,1.936,0,0,0,.407-2.692L94.577,12.175a1.936,1.936,0,0,0-2.73-.407L78.932,21.45a3.873,3.873,0,0,0-1.472,3.873l-11.618.465a27.109,27.109,0,0,0-11.56,3.253ZM6.608,51.309,24.946,21.9l11.618,7.455-2.769,4.318-15.8,24.5h0ZM24.6,67.846a2.885,2.885,0,0,1,.929-1.936l.968-.91h0l3.582-3.331a2.885,2.885,0,0,1,1.936-.775h.1a2.943,2.943,0,0,1,2.091.988,2.9,2.9,0,0,1-.136,4.105l-4.512,4.105a2.965,2.965,0,0,1-4.938-2.3Zm8.094,11.618a2.943,2.943,0,0,1-2.072-1.046,2.9,2.9,0,0,1,.136-4.105l2.091-1.936L36.719,68.7h0l4.241-3.873A2.866,2.866,0,0,1,42.9,64.05a3.021,3.021,0,0,1,2.207.988,2.9,2.9,0,0,1-.136,4.105l-3.621,3.389-3.873,3.544h0l-2.846,2.653a3.021,3.021,0,0,1-1.917.62Zm7.436,3.485a2.9,2.9,0,0,1,.136-4.105l6-5.6,3.718-3.466a2.885,2.885,0,0,1,1.936-.775h.1A2.943,2.943,0,0,1,54.107,70a2.9,2.9,0,0,1-.136,4.105h0l-4.783,4.318-.949.891h0l-3.873,3.64a2.924,2.924,0,0,1-4.221-.116Zm10.592,3.5a2.9,2.9,0,0,1,.155-4.163l.949-.891,2.072-1.936a2.885,2.885,0,0,1,1.936-.775h.1a2.943,2.943,0,0,1,2.091.988,2.9,2.9,0,0,1-.136,4.105l-2.963,2.769a2.924,2.924,0,0,1-4.183-.213ZM91.537,65.348a3.021,3.021,0,0,1-3.873,1.026,5.808,5.808,0,0,0-.716-.523l-9.817-6.332h0a2.517,2.517,0,0,0-.62-.31,1.936,1.936,0,0,0-1.936,3.2,5.384,5.384,0,0,0,1.007.523l9.682,6.409h.116a2.943,2.943,0,0,1,.349,3.679,3.059,3.059,0,0,1-4.066.871l-1.278-.813a6.389,6.389,0,0,0-.716-.562h0l-2.537-1.646h0l-5.809-3.776a1.936,1.936,0,0,0-2.343.232,1.822,1.822,0,0,0-.213.174h0a1.818,1.818,0,0,0-.136.232.814.814,0,0,0-.213.755.852.852,0,0,0,0,.6,1.937,1.937,0,0,0,0,.387,20.673,20.673,0,0,1,.407.6h0a5.383,5.383,0,0,0,.929.716l8.288,5.364a2.9,2.9,0,0,1,.368,3.66,3.04,3.04,0,0,1-4.086.891l-2.517-1.646h-.213a6.932,6.932,0,0,0-.988-.775l-4.376-2.808a1.936,1.936,0,1,0-2.091,3.253l4.376,2.808a2.963,2.963,0,0,1,.891,4.086,3.1,3.1,0,0,1-4.086.891L62.1,84.44a6.855,6.855,0,0,0-1.278-7.494,6.719,6.719,0,0,0-2.866-1.8,6.719,6.719,0,0,0,.871-3.021,6.816,6.816,0,0,0-9.14-6.68,6.894,6.894,0,0,0-1.7-3.253,6.777,6.777,0,0,0-9.372-.484,6.913,6.913,0,0,0-1.549-2.692,6.777,6.777,0,0,0-9.585-.329L25,60.991l-2.963-1.936L36.177,37.077l2.73-4.241,8.4-.31h.329l.716-.1-7.184,4.144a7.835,7.835,0,0,0,7.862,13.555l11.889-7.436a4.822,4.822,0,0,1,5.712.426l9.159,7.745c1.259,1.065,2.459,2.033,3.7,2.943,1.607,1.2,3.253,2.343,4.88,3.369l6.177,3.873h.136a2.943,2.943,0,0,1,.871,4.183Zm1.1-49.145,20.913,28.542-10.96,8.21h0L98.14,47.049,81.391,24.568Zm-12.8,13.051,10.4,13.884,8.036,10.747-6.313,3.64-5.519-3.7c-1.549-.988-3.118-2.053-4.647-3.2-1.162-.871-2.3-1.781-3.5-2.788L69.134,40.1a8.694,8.694,0,0,0-10.282-.755l-11.831,7.4a3.92,3.92,0,1,1-3.873-6.816l12.315-7.106a23.236,23.236,0,0,1,10.669-3.1Z" transform="translate(0 0)" fill="#e66d50"/>
      <circle id="Ellipse_48" data-name="Ellipse 48" cx="3.892" cy="3.892" r="3.892" transform="translate(11.778 45.268)" fill="#e66d50"/>
    </g>
  </g>
</svg>
