<svg xmlns="http://www.w3.org/2000/svg" width="460.106" height="294.909" viewBox="0 0 460.106 294.909">
  <g id="undraw_Domain_names_re_0uun" transform="translate(0 0)">
    <path id="Path_445" data-name="Path 445" d="M935.849,678.308c-5.961-3.988-8.963-11.574-9.081-18.745-.04-2.4.567-5.193,2.721-6.262a3.739,3.739,0,0,1,5.352,3.959,36.194,36.194,0,0,1,3.092-6.719c1.065-1.8,2.56-3.677,4.646-3.848,2.42-.2,4.441,2.152,4.785,4.556s-.532,4.8-1.391,7.067a6.319,6.319,0,0,1,10.011-3.55c2.367,1.827,3.146,5.189,2.551,8.119a17.941,17.941,0,0,1-4.277,7.773,25.822,25.822,0,0,1-8.036,6.669,13.933,13.933,0,0,1-10.2,1.094Z" transform="translate(-506.064 -384.474)" fill="#f2f2f2"/>
    <path id="Path_446" data-name="Path 446" d="M796.062,478.862a6.268,6.268,0,0,0,2.241-9.346L812.909,398.6l-13.629-.18-10.143,70.012a6.3,6.3,0,0,0,6.925,10.425Z" transform="translate(-447.808 -281.061)" fill="#ffb8b8"/>
    <path id="Path_447" data-name="Path 447" d="M902.162,471.631a6.268,6.268,0,0,0-.524-9.6l-6.273-72.127-13.112,3.724,10.293,69.99a6.3,6.3,0,0,0,9.616,8.01Z" transform="translate(-487.521 -277.513)" fill="#ffb8b8"/>
    <path id="Path_448" data-name="Path 448" d="M631.055,472.458H623.9l-3.4-27.59h10.557Z" transform="translate(-258.474 -185.313)" fill="#ffb8b8"/>
    <path id="Path_449" data-name="Path 449" d="M611.373,488.653h13.795v8.686h-22.48A8.686,8.686,0,0,1,611.373,488.653Z" transform="translate(-251.054 -203.552)" fill="#2f2e41"/>
    <path id="Path_450" data-name="Path 450" d="M686.055,472.458H678.9l-3.4-27.59h10.557Z" transform="translate(-281.384 -185.313)" fill="#ffb8b8"/>
    <path id="Path_451" data-name="Path 451" d="M666.373,488.653h13.795v8.686h-22.48A8.686,8.686,0,0,1,666.373,488.653Z" transform="translate(-273.965 -203.552)" fill="#2f2e41"/>
    <circle id="Ellipse_11" data-name="Ellipse 11" cx="14.33" cy="14.33" r="14.33" transform="translate(360.105 61.361)" fill="#ffb8b8"/>
    <path id="Path_452" data-name="Path 452" d="M855.071,600.645a2.529,2.529,0,0,1-2.469-2.036l-9.687-50.122a1.954,1.954,0,0,0-3.861.155l-5.425,48.821a2.5,2.5,0,0,1-2.383,2.232l-8.136.37a2.47,2.47,0,0,1-1.812-.658,2.5,2.5,0,0,1-.812-1.748l-3.12-75.415a2.5,2.5,0,0,1,.88-2.015l1.8-1.539a2.516,2.516,0,0,1,1.631-.6h42.17a2.515,2.515,0,0,1,2.513,2.513V597.75a2.508,2.508,0,0,1-2.4,2.51l-8.782.382Z" transform="translate(-460.491 -330.908)" fill="#2f2e41"/>
    <path id="Path_453" data-name="Path 453" d="M827.841,463.513c-6.818,0-12.828-1.816-15.862-7.115a2.559,2.559,0,0,1-.342-1.442l3.812-58.272a1.954,1.954,0,0,0-.4-1.313l-10.7-14.025a2.512,2.512,0,0,1,.481-3.526l16.046-12.156a1.964,1.964,0,0,0,.7-1.021l.467-1.636a2.507,2.507,0,0,1,2.319-1.821l11.774-.453a2.537,2.537,0,0,1,2.059.942l1.253,1.566a1.951,1.951,0,0,0,.581.49l19.691,10.881a2.518,2.518,0,0,1,1.3,2.172v.035l-.008.033c-4.59,19.139-4.332,43.329.812,76.13a2.512,2.512,0,0,1-1.506,2.371C856.061,457.2,840.549,463.513,827.841,463.513Z" transform="translate(-454.859 -265.36)" fill="#e9c46a"/>
    <path id="Path_454" data-name="Path 454" d="M813.108,413.412H799.772a2.509,2.509,0,0,1-2.509-2.655c.2-3.4.59-9.859.982-14.955.564-7.333,7.749-10.942,7.821-10.978l.141-.069,4.851,3.079,4.514,22.572a2.513,2.513,0,0,1-2.464,3.005Z" transform="translate(-452.117 -275.367)" fill="#e9c46a"/>
    <path id="Path_455" data-name="Path 455" d="M885.275,411.1a2.516,2.516,0,0,1-2.486-2.786l2.461-22.644,4.755-3.483.108.012a9.835,9.835,0,0,1,7.386,6.312c1.616,4.04,4.084,11.506,5.412,15.6a2.51,2.51,0,0,1-1.8,3.213l-15.233,3.705A2.542,2.542,0,0,1,885.275,411.1Z" transform="translate(-487.739 -274.295)" fill="#e9c46a"/>
    <path id="Path_456" data-name="Path 456" d="M838.917,326.585c3.065-4.849-.762-18.2-9.1-18.545-1.925-.08-2.664-2.881-3.318-4.693a7.229,7.229,0,0,1,.94-6.289,11.866,11.866,0,0,1,5.062-4.089,17.566,17.566,0,1,1,9.837,33.348Z" transform="translate(-464.156 -236.464)" fill="#2f2e41"/>
    <path id="Path_457" data-name="Path 457" d="M493.917,197.268H209.781a4.089,4.089,0,0,0-4.084,4.084V393.888a4.089,4.089,0,0,0,4.084,4.084H493.917A4.089,4.089,0,0,0,498,393.888V201.352A4.089,4.089,0,0,0,493.917,197.268Zm2.917,196.62a2.918,2.918,0,0,1-2.917,2.917H209.781a2.918,2.918,0,0,1-2.917-2.917V201.352a2.918,2.918,0,0,1,2.917-2.917H493.917a2.918,2.918,0,0,1,2.917,2.917Z" transform="translate(-205.697 -197.268)" fill="#3f3d56"/>
    <rect id="Rectangle_233" data-name="Rectangle 233" width="291.138" height="1.167" transform="translate(0.584 16.36)" fill="#3f3d56"/>
    <circle id="Ellipse_12" data-name="Ellipse 12" cx="3.501" cy="3.501" r="3.501" transform="translate(7.001 5.251)" fill="#3f3d56"/>
    <circle id="Ellipse_13" data-name="Ellipse 13" cx="3.501" cy="3.501" r="3.501" transform="translate(17.066 5.251)" fill="#3f3d56"/>
    <circle id="Ellipse_14" data-name="Ellipse 14" cx="3.501" cy="3.501" r="3.501" transform="translate(27.13 5.251)" fill="#3f3d56"/>
    <path id="Path_458" data-name="Path 458" d="M473.934,280.819H293.067a9.043,9.043,0,1,1,0-18.087H473.934a9.043,9.043,0,0,1,0,18.087ZM293.067,263.9a7.876,7.876,0,0,0,0,15.753H473.934a7.876,7.876,0,1,0,0-15.753Z" transform="translate(-238.325 -224.537)" fill="#3f3d56"/>
    <path id="Path_459" data-name="Path 459" d="M348.074,359.819H313.067a9.043,9.043,0,0,1,0-18.087h35.007a9.043,9.043,0,1,1,0,18.087ZM313.067,342.9a7.876,7.876,0,0,0,0,15.753h35.007a7.876,7.876,0,0,0,0-15.753Z" transform="translate(-246.656 -257.445)" fill="#3f3d56"/>
    <path id="Path_460" data-name="Path 460" d="M348.074,411.819H313.067a9.043,9.043,0,1,1,0-18.087h35.007a9.043,9.043,0,1,1,0,18.087ZM313.067,394.9a7.876,7.876,0,0,0,0,15.753h35.007a7.876,7.876,0,0,0,0-15.753Z" transform="translate(-246.656 -279.106)" fill="#3f3d56"/>
    <path id="Path_461" data-name="Path 461" d="M348.074,463.819H313.067a9.043,9.043,0,0,1,0-18.087h35.007a9.043,9.043,0,0,1,0,18.087ZM313.067,446.9a7.876,7.876,0,0,0,0,15.753h35.007a7.876,7.876,0,0,0,0-15.753Z" transform="translate(-246.656 -300.767)" fill="#3f3d56"/>
    <path id="Path_462" data-name="Path 462" d="M350.617,279.4H301.608a4.084,4.084,0,0,1,0-8.168h49.009a4.084,4.084,0,1,1,0,8.168Z" transform="translate(-243.948 -228.078)" fill="#e77256"/>
    <path id="Path_463" data-name="Path 463" d="M596.108,275.9a4.084,4.084,0,1,1,4.084-4.084A4.084,4.084,0,0,1,596.108,275.9Zm0-7a2.917,2.917,0,1,0,2.917,2.917A2.917,2.917,0,0,0,596.108,268.9Z" transform="translate(-366.624 -226.62)" fill="#3f3d56"/>
    <path id="Path_464" data-name="Path 464" d="M606.509,284.305a.581.581,0,0,1-.412-.171l-4.1-4.1a.583.583,0,0,1,.825-.825l4.1,4.1a.583.583,0,0,1-.413,1Z" transform="translate(-370.707 -231.33)" fill="#3f3d56"/>
    <path id="Path_465" data-name="Path 465" d="M576.9,358.817H557.067a5.543,5.543,0,0,1,0-11.085H576.9a5.543,5.543,0,0,1,0,11.085Z" transform="translate(-349.754 -259.945)" fill="#e77256"/>
    <path id="Path_466" data-name="Path 466" d="M576.9,410.817H557.067a5.543,5.543,0,0,1,0-11.085H576.9a5.543,5.543,0,0,1,0,11.085Z" transform="translate(-349.754 -281.606)" fill="#e77256"/>
    <path id="Path_467" data-name="Path 467" d="M576.9,462.817H557.067a5.543,5.543,0,0,1,0-11.085H576.9a5.543,5.543,0,0,1,0,11.085Z" transform="translate(-349.754 -303.267)" fill="#f4a261"/>
    <path id="Path_468" data-name="Path 468" d="M889.58,701.9H744.886a.583.583,0,1,1,0-1.167H889.58a.583.583,0,1,1,0,1.167Z" transform="translate(-430.057 -406.99)" fill="#3f3d56"/>
  </g>
</svg>
