<svg xmlns="http://www.w3.org/2000/svg" width="398" height="384.845" viewBox="0 0 398 384.845">
  <g id="undraw_Agreement_re_d4dv" transform="translate(0 0)">
    <path id="Path_500" data-name="Path 500" d="M907.6,776.206V737.612S922.643,764.974,907.6,776.206Z" transform="translate(-544.493 -391.745)" fill="#f1f1f1"/>
    <path id="Path_501" data-name="Path 501" d="M884.485,787.118l-28.431-26.1S886.382,768.442,884.485,787.118Z" transform="translate(-520.446 -402.663)" fill="#f1f1f1"/>
    <path id="Path_502" data-name="Path 502" d="M501.609,259.62,350.739,347.8a2.308,2.308,0,0,1-3.154-.827l-97.019-166a2.308,2.308,0,0,1,.827-3.154L402.263,89.643a2.308,2.308,0,0,1,3.154.827l97.019,166a2.308,2.308,0,0,1-.826,3.154Z" transform="translate(-237.847 -89.328)" fill="#fff"/>
    <path id="Path_503" data-name="Path 503" d="M501.609,259.62,350.739,347.8a2.308,2.308,0,0,1-3.154-.827l-97.019-166a2.308,2.308,0,0,1,.827-3.154L402.263,89.643a2.308,2.308,0,0,1,3.154.827l97.019,166a2.308,2.308,0,0,1-.826,3.154Zm-249.75-81a1.385,1.385,0,0,0-.5,1.892l97.019,166a1.385,1.385,0,0,0,1.892.5l150.869-88.178a1.385,1.385,0,0,0,.5-1.892l-97.019-166a1.385,1.385,0,0,0-1.892-.5Z" transform="translate(-237.847 -89.328)" fill="#3f3d56"/>
    <path id="Path_504" data-name="Path 504" d="M380.167,251.2l-37.419,21.87a2.308,2.308,0,0,1-3.154-.827l-21.87-37.419a2.308,2.308,0,0,1,.827-3.154l37.419-21.87a2.308,2.308,0,0,1,3.154.827l21.87,37.419a2.308,2.308,0,0,1-.827,3.154Zm-61.15-18.733a1.385,1.385,0,0,0-.5,1.892l21.87,37.419a1.385,1.385,0,0,0,1.892.5L379.7,250.4a1.385,1.385,0,0,0,.5-1.892l-21.87-37.419a1.385,1.385,0,0,0-1.892-.5Z" transform="translate(-269.175 -145.38)" fill="#f2f2f2"/>
    <path id="Path_505" data-name="Path 505" d="M365.339,271.93,327.921,293.8a2.077,2.077,0,0,1-2.838-.744l-21.87-37.419a2.077,2.077,0,0,1,.744-2.838l37.419-21.87a2.077,2.077,0,0,1,2.838.744l21.87,37.419A2.077,2.077,0,0,1,365.339,271.93Z" transform="translate(-262.42 -155.251)" fill="#e77256"/>
    <path id="Path_506" data-name="Path 506" d="M484.136,251.752,367.1,320.154a2.075,2.075,0,1,1-2.094-3.583l117.033-68.4a2.075,2.075,0,0,1,2.094,3.583Z" transform="translate(-290.9 -163.293)" fill="#ccc"/>
    <path id="Path_507" data-name="Path 507" d="M469.392,305.844l-88.77,51.883a2.075,2.075,0,1,1-2.094-3.583l88.77-51.883a2.075,2.075,0,0,1,2.094,3.583Z" transform="translate(-297.206 -188.527)" fill="#ccc"/>
    <path id="Path_508" data-name="Path 508" d="M490.758,167.128l-51.749,30.246a2.075,2.075,0,0,1-2.094-3.583l51.749-30.246a2.075,2.075,0,1,1,2.094,3.583Z" transform="translate(-324.443 -123.817)" fill="#ccc"/>
    <path id="Path_509" data-name="Path 509" d="M491.361,204.407l-38.835,22.7a2.075,2.075,0,0,1-2.094-3.583l38.835-22.7a2.075,2.075,0,1,1,2.094,3.583Z" transform="translate(-330.749 -141.207)" fill="#ccc"/>
    <path id="Path_510" data-name="Path 510" d="M511.173,298.012l-117.033,68.4a2.075,2.075,0,0,1-2.094-3.583l117.033-68.4a2.075,2.075,0,0,1,2.094,3.583Z" transform="translate(-303.512 -184.873)" fill="#ccc"/>
    <path id="Path_511" data-name="Path 511" d="M496.429,352.1l-88.77,51.883a2.075,2.075,0,0,1-2.094-3.583l88.77-51.883a2.075,2.075,0,0,1,2.094,3.583Z" transform="translate(-309.819 -210.106)" fill="#ccc"/>
    <path id="Path_512" data-name="Path 512" d="M538.211,344.272l-117.033,68.4a2.075,2.075,0,0,1-2.094-3.583l117.033-68.4a2.075,2.075,0,1,1,2.094,3.583Z" transform="translate(-316.125 -206.453)" fill="#ccc"/>
    <path id="Path_513" data-name="Path 513" d="M551.729,367.4,434.7,435.8a2.075,2.075,0,1,1-2.094-3.583l117.033-68.4a2.075,2.075,0,1,1,2.094,3.583Z" transform="translate(-322.431 -217.243)" fill="#ccc"/>
    <path id="Path_514" data-name="Path 514" d="M583.468,433.661a45.2,45.2,0,0,0,4.375-6.12,16.254,16.254,0,0,0,2.539-6.311,6.233,6.233,0,0,0-1.867-5.327,4.386,4.386,0,0,0-5.146-.585,5.233,5.233,0,0,0-2.626,4.673,6.914,6.914,0,0,0,2.953,5.236c3.459,2.506,8.862,2.375,12.549.468,4.153-2.148,6.3-7.769,3.036-11.616-.679-.8-1.808.094-1.638.957a4.653,4.653,0,0,0,9.219-1.139l-1.467.857a11.2,11.2,0,0,0,11.139-1.195,10.386,10.386,0,0,0,2.084-2.015,12.237,12.237,0,0,1,2.9-2.216l7.037-4.862c1.035-.715.051-2.42-.993-1.7l-6.373,4.4c-1.062.734-2.131,1.459-3.187,2.2a21.829,21.829,0,0,0-1.905,2.02,9.223,9.223,0,0,1-9.738,1.647,1,1,0,0,0-1.467.857,2.693,2.693,0,1,1-5.349.634l-1.638.957c2.1,2.482.7,6.289-1.722,7.954a11.165,11.165,0,0,1-9.775,1.028,5.768,5.768,0,0,1-3.4-3.116,3.437,3.437,0,0,1,.78-3.934,2.466,2.466,0,0,1,3.429-.037,4.411,4.411,0,0,1,1.169,3.98,15.944,15.944,0,0,1-2.419,5.472,42.044,42.044,0,0,1-3.914,5.451c-.812.96.589,2.345,1.409,1.374Z" transform="translate(-392.016 -235.462)" fill="#e77256"/>
    <path id="Path_515" data-name="Path 515" d="M611.685,544.47a4.624,4.624,0,0,1,.465.561l21.793-.533,2.542-4.646L644,542.772l-3.7,8.662a3.516,3.516,0,0,1-3.655,2.109l-24.622-2.974a4.614,4.614,0,1,1-.334-6.1Z" transform="translate(-402.765 -299.492)" fill="#ffb7b7"/>
    <path id="Path_516" data-name="Path 516" d="M515.507,683.089h-7.166l-3.409-27.64h10.576Z" transform="translate(-235.545 -305.759)" fill="#ffb7b7"/>
    <path id="Path_517" data-name="Path 517" d="M734.975,801.485H711.87v-.292a8.994,8.994,0,0,1,8.993-8.993h14.113Z" transform="translate(-453.186 -417.209)" fill="#2f2e41"/>
    <path id="Path_518" data-name="Path 518" d="M397.03,681.1l-6.589-2.815,7.723-26.757,9.725,4.155Z" transform="translate(-182.136 -303.93)" fill="#ffb7b7"/>
    <path id="Path_519" data-name="Path 519" d="M609.25,796.656,588,787.579l.115-.269a8.994,8.994,0,0,1,11.8-4.737h0l12.977,5.544Z" transform="translate(-395.403 -412.38)" fill="#2f2e41"/>
    <path id="Path_520" data-name="Path 520" d="M459.015,469.5l-.519,8.4,15.147,1.621,15.849,1.7-4.665-12.75Z" transform="translate(-213.883 -218.53)" fill="#ffb7b7"/>
    <path id="Path_521" data-name="Path 521" d="M679.457,533.29l-5.884-41.02,10.2-3.342,3-4.108,14.577.863,2.14,4.794,7.773,3.673-1.195,22.184.871,18.558Z" transform="translate(-435.321 -273.82)" fill="#e9c46a"/>
    <path id="Path_522" data-name="Path 522" d="M668.59,528.888l-10.374-4.151.044-.185c.045-.186,4.46-18.637,5.046-21.6a5.169,5.169,0,0,1,2.937-3.978l.069-.026,4.106,1.25,1.8,14.167Z" transform="translate(-428.157 -280.411)" fill="#e9c46a"/>
    <path id="Path_523" data-name="Path 523" d="M627.722,685.529,613.912,682.7l22.071-60.9,7.554-20.773s4.791-16.656,6.956-23.1l1.306-8.648,30.923,3.423s8.637,12.684,6.013,33.358l1.187,77.706-13.81.708L664.546,606.1l-20.3,42.962s-6.4,18.333-10.977,22.307Z" transform="translate(-407.49 -313.216)" fill="#2f2e41"/>
    <path id="Path_524" data-name="Path 524" d="M715.732,559.365a4.631,4.631,0,0,1,.727.04l14.426-16.344-1.678-5.023,7.25-3.523,3.835,8.6a3.517,3.517,0,0,1-.939,4.115l-18.922,16.033a4.614,4.614,0,1,1-4.7-3.9Z" transform="translate(-452.901 -297.002)" fill="#ffb7b7"/>
    <path id="Path_525" data-name="Path 525" d="M740.628,529.621l-6.018-14.156,2.347-9.86,2.529-3.2a1.457,1.457,0,0,1,1.17.011c.933.375,1.727,1.526,2.361,3.42l5.64,16.065Z" transform="translate(-463.794 -281.971)" fill="#e9c46a"/>
    <path id="Path_526" data-name="Path 526" d="M687.367,453.152V442.48a14.3,14.3,0,1,1,28.6,0v10.672a1.923,1.923,0,0,1-1.921,1.921H689.288a1.923,1.923,0,0,1-1.921-1.921Z" transform="translate(-441.756 -247.398)" fill="#2f2e41"/>
    <circle id="Ellipse_22" data-name="Ellipse 22" cx="10.485" cy="10.485" r="10.485" transform="translate(246.489 186.457)" fill="#ffb7b7"/>
    <path id="Path_527" data-name="Path 527" d="M681.026,446.693a11.325,11.325,0,0,1,11.312-11.312h2.135a11.325,11.325,0,0,1,11.312,11.312v.213h-4.511l-1.538-4.308-.308,4.308H697.1l-.776-2.174-.155,2.174H681.026Z" transform="translate(-438.798 -250.757)" fill="#2f2e41"/>
    <path id="Path_528" data-name="Path 528" d="M706.406,463.773a1.892,1.892,0,0,1-.15-2.009c2.262-4.3,5.429-12.251,1.225-17.154l-.3-.352h12.2v18.322L708.3,464.535a1.965,1.965,0,0,1-.34.03,1.913,1.913,0,0,1-1.55-.792Z" transform="translate(-450.465 -254.898)" fill="#2f2e41"/>
    <path id="Path_529" data-name="Path 529" d="M212.9,674.1l6.476,2.314,12.009-23.877-9.558-3.416Z" transform="translate(-99.317 -302.807)" fill="#9f616a"/>
    <path id="Path_530" data-name="Path 530" d="M432.6,788.591l3-8.392,12.753,4.558a8.641,8.641,0,0,1,5.223,11.032l-.094.264Z" transform="translate(-322.911 -411.611)" fill="#2f2e41"/>
    <path id="Path_531" data-name="Path 531" d="M291.835,684.752h6.877l3.272-26.526h-10.15Z" transform="translate(-136.137 -307.054)" fill="#9f616a"/>
    <path id="Path_532" data-name="Path 532" d="M515.548,793.066h13.544a8.631,8.631,0,0,1,8.631,8.631v.28H515.548Z" transform="translate(-361.604 -417.613)" fill="#2f2e41"/>
    <path id="Path_533" data-name="Path 533" d="M489.459,474.462l2.991-5.91s11.142,2.791,12.155,9.249Z" transform="translate(-349.434 -266.231)" fill="#f1f1f1"/>
    <path id="Path_534" data-name="Path 534" d="M227.556,515.979l8.133,45.388-21.6,38.193,12.9,5.049,21.877-37.023,2.8-10.1,1.683,52.729L265,609.865l5.335-49.236-8.556-45.772Z" transform="translate(-99.872 -240.174)" fill="#2f2e41"/>
    <path id="Path_535" data-name="Path 535" d="M477.8,554.849a75.063,75.063,0,0,1-19.705-2.322l-.275-.059,6.224-28.855L464.32,497c0-11.279,7.424-19.595,8.454-20.362a4.853,4.853,0,0,1,2.581-3.172c2.476-1.124,5.5.225,5.629.283l9.082,3.405.043.126c.109.323,12.072,39.594,12.072,39.594s-.724,34.313-.976,35.437C501.2,552.307,484.436,554.849,477.8,554.849Z" transform="translate(-334.673 -268.314)" fill="#3f3d56"/>
    <circle id="Ellipse_23" data-name="Ellipse 23" cx="12.275" cy="12.275" r="12.275" transform="translate(140.03 175.909)" fill="#9f616a"/>
    <path id="Path_536" data-name="Path 536" d="M259.823,432.715,281.3,462.678l3.171-13.992Z" transform="translate(-121.204 -201.856)" opacity="0.2"/>
    <path id="Path_537" data-name="Path 537" d="M589.945,551.975a5.268,5.268,0,0,1-7.909-1.64l-18.484,2.959,4-8.865,16.939-1.451a5.3,5.3,0,0,1,5.45,9Z" transform="translate(-383.997 -300.729)" fill="#9f616a"/>
    <path id="Path_538" data-name="Path 538" d="M345.842,455.268l6.642-.651,1.841,9.265-8.357.148Z" transform="translate(-161.331 -212.073)" fill="#f1f1f1"/>
    <path id="Path_539" data-name="Path 539" d="M540.017,532.246l-32.528-2.9-16.425-26.121-.051-.231a8.993,8.993,0,0,1,16.788-6.021l9.642,18.807,19.459,2.941Z" transform="translate(-350.062 -277.209)" fill="#3f3d56"/>
    <path id="Path_540" data-name="Path 540" d="M490.357,437.607l10.188.366c.621.022,2.307-6.68,2.527-8.07a3.8,3.8,0,0,1,3.959-3.07c.763.072,2.686-1.353,4.67-3.04a7.484,7.484,0,0,0-.567-11.926q-.17-.111-.333-.2a18.131,18.131,0,0,0-8.657-1.99,16.189,16.189,0,0,0-7.891,1.591c-4.284,2.3-6.563,7.331-6.764,12.19s1.357,9.61,3.125,14.14" transform="translate(-348.507 -238.765)" fill="#2f2e41"/>
    <path id="Path_541" data-name="Path 541" d="M624.254,809.739H227.534a.534.534,0,1,1,0-1.067H624.466a.533.533,0,0,1,.534.533C625,809.5,624.549,809.739,624.254,809.739Z" transform="translate(-227 -424.893)" fill="#cbcbcb"/>
  </g>
</svg>
