<svg id="undraw_group_hangout_5gmq" xmlns="http://www.w3.org/2000/svg" width="468.991" height="322.436" viewBox="0 0 468.991 322.436">
  <path id="Path_469" data-name="Path 469" d="M850.5,632.986l.455,10.909v9.545h11.818V632.986Z" transform="translate(-463.911 -345.266)" fill="#ffb9b9"/>
  <path id="Path_470" data-name="Path 470" d="M993.5,608.8l.455,10.909v9.545h11.818l-2.273-22.273Z" transform="translate(-541.911 -331.085)" fill="#ffb9b9"/>
  <path id="Path_471" data-name="Path 471" d="M942.409,221.986l-3.636,28.636-11.818,34.091L921.5,265.168l6.818-12.273-1.364-25.909Z" transform="translate(-502.638 -121.084)" fill="#ffb9b9"/>
  <path id="Path_472" data-name="Path 472" d="M916.088,311.306s-10,17.727-8.636,19.545,2.273,11.818,2.273,11.818h3.785l6.215-15.454Z" transform="translate(-533.135 -213.131)" fill="#e9c46a"/>
  <circle id="Ellipse_15" data-name="Ellipse 15" cx="15.909" cy="15.909" r="15.909" transform="translate(391.816 19.312)" fill="#ffb9b9"/>
  <path id="Path_473" data-name="Path 473" d="M968.1,192.079s8.636,11.818,5.909,17.727,26.364-3.182,26.364-3.182-14.545-16.364-15-21.818Z" transform="translate(-566.289 -144.13)" fill="#ffb9b9"/>
  <path id="Path_474" data-name="Path 474" d="M972.009,263.995c-1.023,1.536-2.027,3.25-3,5.059-.459.859-.909,1.741-1.355,2.632a191.357,191.357,0,0,0-9.282,23.218L916.1,293.54l1.314-3.855,5.959-17.509c-10.455-6.364-.455-18.636,5-30,5.009-10.436,15.391-17.377,17.045-18.441.15-.091.227-.141.227-.141l.191-.032,7.586-1.277,13.664-2.3h0a18.877,18.877,0,0,1,6.773,2.545,13.68,13.68,0,0,1,4.277,4.282,18.576,18.576,0,0,1,2.577,9.2C981.132,245.959,976.113,257.845,972.009,263.995Z" transform="translate(-537.922 -163.32)" fill="#d0cde1"/>
  <path id="Path_475" data-name="Path 475" d="M1035.3,234.306s8.182,9.545,8.636,17.727-1.364,23.636-5.454,23.636-11.364,2.727-10.909,0S1035.3,234.306,1035.3,234.306Z" transform="translate(-598.716 -171.131)" fill="#d0cde1"/>
  <path id="Path_476" data-name="Path 476" d="M1001.964,246.528l-5,.909A25.251,25.251,0,0,0,980.6,226.5c.15-.091.227-.141.227-.141l.191-.032,7.586-1.277C998.632,230.214,1001.964,246.528,1001.964,246.528Z" transform="translate(-573.104 -166.08)" fill="#2f2e41"/>
  <path id="Path_477" data-name="Path 477" d="M992.952,442.276C992.5,445,979.316,450,975.679,449.549s-39.545-88.181-39.545-88.181,0,97.727-.909,99.545-16.364,0-21.818-6.364-9.091-105.909-11.364-122.727,4.545-38.636,4.545-38.636l2.9-.445,8.914-1.373s0-2.273,13.636-13.182,21.818-30.454,21.818-30.454L955.225,245l3.636,1.818a57.894,57.894,0,0,0,7.082-21.236,13.678,13.678,0,0,1,4.277,4.282c-.345.955-.691,1.986-1.046,3.091-3.064,9.541-6.536,24.318-9.991,38.868-.109.455-.214.909-.323,1.359a12.03,12.03,0,0,1,.873,1.555c.918,1.941,1.891,5.241-.873,7.082-4.091,2.727-5.455,16.364-5.455,16.364,7.727,6.818,9.545,39.091,8.636,41.363s-.909,1.818,1.364,3.182,2.273,12.727,2.273,12.727S993.407,439.549,992.952,442.276Z" transform="translate(-530.002 -166.374)" fill="#e9c46a"/>
  <path id="Path_478" data-name="Path 478" d="M921.148,754.233s-2.727,2.727-4.545,1.364-1.889-7.165-1.889-7.165-20.838-1.926-16.747,11.71S930.693,775.6,931.6,772.869s-3.182-20-3.182-20Z" transform="translate(-527.741 -451.513)" fill="#2f2e41"/>
  <path id="Path_479" data-name="Path 479" d="M1064.143,732.233s-2.727,2.727-4.545,1.364-1.889-7.165-1.889-7.165-20.838-1.926-16.747,11.71,32.727,15.454,33.636,12.727-3.182-20-3.182-20Z" transform="translate(-605.739 -439.513)" fill="#2f2e41"/>
  <path id="Path_480" data-name="Path 480" d="M917.068,294.306,915.25,318.4l-23.182,25.909s-7.727,3.636-3.182,10,6.364,6.818,6.364,6.818l.455-8.182,31.364-25,3.182-33.636Z" transform="translate(-522.297 -203.858)" fill="#ffb9b9"/>
  <path id="Path_481" data-name="Path 481" d="M962.07,249.8s1.818-20.454-7.273-18.636a11.637,11.637,0,0,0-9.545,10.454s-4.091,20.909-.455,21.818,15.909,2.727,17.273,0S962.07,249.8,962.07,249.8Z" transform="translate(-552.754 -169.357)" fill="#d0cde1"/>
  <path id="Path_482" data-name="Path 482" d="M1001.887,156.774A89.845,89.845,0,0,1,992.878,152c.233-6.935-.62-13.23-3.12-16.566-1.4-3.186-4.349-6.375-6.657-8.887-5.667-6.168-18.2-9.611-20.42-6.53-16.81.332-18.579,13.508-18.579,13.508.087,5.511,5.815,5.686,10.833,5.485-.449,3.762.748,7.672,4.216,9.406,6.631,3.315,8.62,7.625,5.3,10.609s-9.283,10.941-1.326,12.93,8.952,5.968,6.631,7.626,5.3-2.984,5.3-2.984,1.326,7.957,8.289,5.968a4.188,4.188,0,0,0,1.861-1.318c1.88,2.066,3.558,3.288,4.822,3.294,7.241.038,6.373-7.982,6.373-7.982S1005,178.97,1002.32,178s-2.8-5.07,4.329-9.131S1005.882,158.754,1001.887,156.774Z" transform="translate(-553.196 -108.163)" fill="#2f2e41"/>
  <rect id="Rectangle_234" data-name="Rectangle 234" width="333.635" height="189.986" transform="translate(0.455 0.455)" fill="#f2f2f2"/>
  <path id="Path_483" data-name="Path 483" d="M334.544,190.9H0V0H232.437V.909H.909V189.987H333.635V107.118h.909Z" fill="#3f3d56"/>
  <circle id="Ellipse_16" data-name="Ellipse 16" cx="5.664" cy="5.664" r="5.664" transform="translate(10.237 8.998)" fill="#3f3d56"/>
  <circle id="Ellipse_17" data-name="Ellipse 17" cx="5.664" cy="5.664" r="5.664" transform="translate(25.237 8.998)" fill="#3f3d56"/>
  <circle id="Ellipse_18" data-name="Ellipse 18" cx="5.664" cy="5.664" r="5.664" transform="translate(40.237 8.998)" fill="#3f3d56"/>
  <rect id="Rectangle_236" data-name="Rectangle 236" width="129.545" height="114.09" transform="translate(18.636 59.766)" fill="#fff"/>
  <rect id="Rectangle_237" data-name="Rectangle 237" width="129.545" height="114.09" transform="translate(187.272 59.766)" fill="#fff"/>
  <path id="Path_484" data-name="Path 484" d="M245.469,270.626c-4.945-8.355-14.728-8.745-14.728-8.745s-9.533-1.219-15.649,11.506c-5.7,11.861-13.567,23.313-1.267,26.09l2.222-6.915,1.376,7.43a48.119,48.119,0,0,0,5.263.09c13.173-.425,25.718.124,25.314-4.6C247.463,289.2,250.227,278.666,245.469,270.626Z" transform="translate(-151.309 -186.155)" fill="#2f2e41"/>
  <circle id="Ellipse_19" data-name="Ellipse 19" cx="12.768" cy="12.768" r="12.768" transform="translate(67.649 82.697)" fill="#a0616a"/>
  <path id="Path_485" data-name="Path 485" d="M247.211,322.252s5.8,13.542-1.935,16.25l7.738,25.536,13.155-.774,3.482-8.512-.774-12.768-1.161-8.512s-8.125,1.935-7.351-12.381Z" transform="translate(-172.017 -218.468)" fill="#a0616a"/>
  <path id="Path_486" data-name="Path 486" d="M201.271,358.489s-12.768-1.161-11.607,8.125,2.321,11.22,2.321,11.22l1.161,13.929-6.964,4.256H179.6s-20.119,4.643-10.06,9.673,13.542-3.869,13.542-3.869,18.572,0,19.732-3.1S201.271,358.489,201.271,358.489Z" transform="translate(-129.172 -238.842)" fill="#a0616a"/>
  <path id="Path_487" data-name="Path 487" d="M297.2,348.865s11.994-4.256,12.768,5.03.774,10.06.774,10.06l2.321,13.155s4.643,11.607,4.643,15.089,3.482,14.316,3.482,14.316,4.643,15.089-.387,14.7-5.8-16.25-5.8-16.25l-10.447-20.893-3.1-12.768Z" transform="translate(-200.339 -233.086)" fill="#a0616a"/>
  <path id="Path_488" data-name="Path 488" d="M240.487,350.033h-3.1l-.387,16.25s-5.03,6.964,1.161,13.155l1.548,10.06,28.244-1.161,1.935-10.447s3.869-8.512-1.548-16.25l-5.03-15.863h-2.708s6.273,23.129-6.964,23.6C242.809,369.765,240.487,350.033,240.487,350.033Z" transform="translate(-166.454 -231.933)" fill="#e9c46a"/>
  <path id="Path_489" data-name="Path 489" d="M276.159,455.006h-40.6c2.141-6.236,3.509-10.1,3.636-10.459a.148.148,0,0,1,.009-.027l.941-3.136.391-1.3.423-1.409.568-1.9,25.145-.773.7,1.582,2.391,5.382a2.135,2.135,0,0,1,.586.277C272.137,444.42,274.109,448.665,276.159,455.006Z" transform="translate(-166.714 -281.149)" fill="#2f2e41"/>
  <path id="Path_490" data-name="Path 490" d="M272.545,429.2l-30.566,1.161s-1.4,10.447,0,10.447c.387,0,32.114,2.708,31.727-1.935S272.545,429.2,272.545,429.2Z" transform="translate(-169.88 -277.434)" fill="#3f3d56"/>
  <circle id="Ellipse_20" data-name="Ellipse 20" cx="7.074" cy="7.074" r="7.074" transform="translate(73.555 68.695)" fill="#2f2e41"/>
  <path id="Path_491" data-name="Path 491" d="M242.5,249.428a7.074,7.074,0,0,1,6.328-7.034,7.152,7.152,0,0,0-.744-.04,7.074,7.074,0,1,0,.745,14.108,7.074,7.074,0,0,1-6.329-7.034Z" transform="translate(-169.686 -175.521)" fill="#2f2e41"/>
  <path id="Path_492" data-name="Path 492" d="M171.414,177.992l-9.665-5.063L148.4,175l-2.761,12.2,6.874-.264,1.92-4.481v4.407l3.172-.122,1.841-7.134,1.15,7.594,11.276-.23Z" transform="translate(-79.44 -94.325)" fill="#2f2e41"/>
  <circle id="Ellipse_21" data-name="Ellipse 21" cx="12.874" cy="12.874" r="12.874" transform="translate(233.041 74.785)" fill="#ffb9b9"/>
  <path id="Path_493" data-name="Path 493" d="M614.058,305.026s1.609,7.644,1.609,8.449,7.644,4.426,7.644,4.426l6.839-1.207,2.414-7.242s-4.023-6.035-4.023-8.449Z" transform="translate(-373.171 -207.511)" fill="#ffb9b9"/>
  <path id="Path_494" data-name="Path 494" d="M629.917,388.929l1.659-3.036.264-.486-3.218-34.2.191-1.545,3.427-27.823L612.4,314.866h0a8.325,8.325,0,0,1-5.9,7.782c-6.036,2.009-10.191-4.755-10.191-4.755l-16.768,12.8,8.145,23.618,3.927,11.382s.4,13.277.8,14.486-.4,1.609-.8,2.009.4,1.609.8,1.609c.2,0,.6,1.509.955,3.018.182.773.35,1.545.468,2.114Z" transform="translate(-354.341 -215.073)" fill="#f4a261"/>
  <path id="Path_495" data-name="Path 495" d="M754.829,473.155s10.863,6.839,9.656,11.265-13.679-7.644-13.679-8.046S754.829,473.155,754.829,473.155Z" transform="translate(-447.762 -301.412)" fill="#ffb9b9"/>
  <path id="Path_496" data-name="Path 496" d="M645.549,473.819h3.027l-.9-3.323a5.322,5.322,0,0,1-.464.286c-1.186.673-4.727,2.359-11.414,3.036a67.748,67.748,0,0,1-12.545,0,109.814,109.814,0,0,1-13.8-2.114h-.8l-.45,2.114Z" transform="translate(-369.973 -299.962)" fill="#2f2e41"/>
  <path id="Path_497" data-name="Path 497" d="M596.927,256.808s4.087-8.856,11.922-6.812,12.262,5.109,12.6,8.175a43.732,43.732,0,0,1-.17,7.664s-.852-6.3-6.3-4.939-13.966.341-13.966.341L599.652,273.5s-1.533-2.214-3.236-.852S591.477,259.533,596.927,256.808Z" transform="translate(-362.175 -179.521)" fill="#2f2e41"/>
  <path id="Path_498" data-name="Path 498" d="M579.411,407.922H568.339l-.786-1.509c-4.827-8.45-4.827-20.118-4.827-20.118l2.814-23.736a16.354,16.354,0,0,1,4.827-12.873H576.4l4.427,14.886-2.318,8.732L575.6,384.286l-.8,1.2s.8,1.209.4,1.609a6.893,6.893,0,0,0-.8,2.014s1.209,8.045,2.418,8.85-.4.8-.4,1.209a8.819,8.819,0,0,0,1.209,2.009v2.014Z" transform="translate(-345.172 -234.065)" fill="#f4a261"/>
  <path id="Path_499" data-name="Path 499" d="M679.474,327.556l6.839,1.207a26.32,26.32,0,0,1,5.632,8.851l3.219,14.483,5.23,10.46s6.035,6.035,10.46,19.714l6.437,12.069-6.839,4.023s-18.909-22.127-21.323-29.771l-10.46-20.116Z" transform="translate(-408.414 -221.994)" fill="#f4a261"/>
</svg>
