<svg xmlns="http://www.w3.org/2000/svg" width="107.723" height="117.624" viewBox="0 0 107.723 117.624">
  <g id="Group_235" data-name="Group 235" transform="translate(1551.214 -3995.293)">
    <ellipse id="Ellipse_24" data-name="Ellipse 24" cx="51.767" cy="51.767" rx="51.767" ry="51.767" transform="translate(-1547.024 4009.384)" fill="#6c63ff" opacity="0.3"/>
    <path id="Path_549" data-name="Path 549" d="M387.978,85.873l-34.468,41.82,51.012,60.2,34.008-39.982Z" transform="translate(-1904.494 3909.42)" fill="#6c63ff"/>
    <path id="Path_550" data-name="Path 550" d="M387.978,85.873l-34.468,41.82,51.012,60.2,34.008-39.982Z" transform="translate(-1904.494 3909.42)" opacity="0.1"/>
    <path id="Path_551" data-name="Path 551" d="M439.739,305.858h0a17.325,17.325,0,0,1,2.81-3.752l31.657-32.094s11.03-1.838,13.327,3.677l-40.442,33.089Z" transform="translate(-1989.344 3731.715)" fill="#f2f2f2"/>
    <path id="Path_552" data-name="Path 552" d="M434.8,302.927l46.876,71.693s4.6,3.217,9.191,1.379L538.9,343.6l-51.012-77.207-45.957,35.846Z" transform="translate(-1986.019 3733.956)" fill="#6c63ff"/>
    <rect id="Rectangle_239" data-name="Rectangle 239" width="36.221" height="0.745" transform="matrix(0.812, -0.584, 0.584, 0.812, -1533.279, 4032.672)" fill="#3f3d56"/>
    <rect id="Rectangle_240" data-name="Rectangle 240" width="0.745" height="69.977" transform="matrix(0.834, -0.552, 0.552, 0.834, -1534.289, 4040.995)" fill="#3f3d56"/>
    <rect id="Rectangle_241" data-name="Rectangle 241" width="38.789" height="0.745" transform="translate(-1490.999 4100.698) rotate(-36.344)" fill="#3f3d56"/>
    <rect id="Rectangle_242" data-name="Rectangle 242" width="0.745" height="69.99" transform="translate(-1498.898 4012.969) rotate(-34.838)" fill="#3f3d56"/>
    <rect id="Rectangle_243" data-name="Rectangle 243" width="49.359" height="0.459" transform="translate(-1547.002 4034.646) rotate(-42.545)" fill="#3f3d56"/>
    <rect id="Rectangle_244" data-name="Rectangle 244" width="50.698" height="0.46" transform="translate(-1545.614 4035.11) rotate(-41.439)" fill="#3f3d56"/>
    <rect id="Rectangle_245" data-name="Rectangle 245" width="51.363" height="0.46" transform="matrix(0.768, -0.64, 0.64, 0.768, -1544.685, 4035.113)" fill="#3f3d56"/>
  </g>
</svg>
