<svg id="undraw_wallet_aym5" xmlns="http://www.w3.org/2000/svg" xmlns:xlink="http://www.w3.org/1999/xlink" width="185.483" height="119.921" viewBox="0 0 185.483 119.921">
  <defs>
    <linearGradient id="linear-gradient" x1="0.5" y1="1" x2="0.5" gradientUnits="objectBoundingBox">
      <stop offset="0" stop-color="gray" stop-opacity="0.251"/>
      <stop offset="0.54" stop-color="gray" stop-opacity="0.122"/>
      <stop offset="1" stop-color="gray" stop-opacity="0.102"/>
    </linearGradient>
  </defs>
  <rect id="Rectangle_268" data-name="Rectangle 268" width="185.483" height="1.355" transform="translate(0 118.566)" fill="#85848b"/>
  <path id="Path_615" data-name="Path 615" d="M794.221,650.184c0,1.043-6.077,4.082-13.3,4.082s-12.844-3.04-12.844-4.082,5.851-.707,13.077-.707S794.221,649.14,794.221,650.184Z" transform="translate(-647.27 -555.552)" fill="#504f60"/>
  <path id="Path_616" data-name="Path 616" d="M794.221,653.72c0,1.043-6.077,4.082-13.3,4.082s-12.844-3.04-12.844-4.082" transform="translate(-647.27 -559.087)" opacity="0.2"/>
  <path id="Path_617" data-name="Path 617" d="M502.264,532.554a8.069,8.069,0,0,0,3.51-.118c.177-.055.371-.177.353-.353a.427.427,0,0,0-.08-.177,10.916,10.916,0,0,1-1.06-2.02.177.177,0,0,0-.065-.092.165.165,0,0,0-.113,0c-.518.136-.965.47-1.479.613a2.1,2.1,0,0,1-.806.06c-.233-.026-.551-.219-.763-.194C501.88,531.045,502.173,531.766,502.264,532.554Z" transform="translate(-428.014 -457.053)" fill="#6c63ff"/>
  <path id="Path_618" data-name="Path 618" d="M624.006,515.718a6.133,6.133,0,0,0,2.029-1.905.331.331,0,0,0,.055-.164.34.34,0,0,0-.065-.159,6.567,6.567,0,0,0-1.649-1.78,4.808,4.808,0,0,0-.919.848c-.194.205-.732.53-.737.843,0,.177.2.382.3.53.129.191.251.385.368.583A6.925,6.925,0,0,1,624.006,515.718Z" transform="translate(-527.598 -442.174)" fill="#6c63ff"/>
  <path id="Path_619" data-name="Path 619" d="M474.818,540.8a.786.786,0,0,1-.141.512.694.694,0,0,1-.3.177c-1.638.587-3.534-.145-5.169.433-.336.118-.654.29-.991.4a5.393,5.393,0,0,1-1.237.219c-.578.055-1.159.09-1.739.106a4.179,4.179,0,0,1-1.311-.115,1.574,1.574,0,0,1-1.006-.8.765.765,0,0,1-.049-.567.611.611,0,0,1,.108-.177,1.548,1.548,0,0,1,.385-.313l.6-.389a4.045,4.045,0,0,1,.914-.484c.239-.078.491-.111.733-.177a4.979,4.979,0,0,0,2.094-1.564l.82-.875a.827.827,0,0,1,.285-.228.789.789,0,0,1,.353-.034,4.725,4.725,0,0,1,2.236.749,2.9,2.9,0,0,0,.551.325,1.969,1.969,0,0,0,1.541-.191c.21-.113.164-.177.253-.378s.3-.331.491-.147a.519.519,0,0,1,.117.223,6.269,6.269,0,0,1,.11,1.822.8.8,0,0,0,.035.283,1.6,1.6,0,0,0,.161.262.594.594,0,0,1,.034.067,1.8,1.8,0,0,1,.118.854Z" transform="translate(-395.975 -462.929)" fill="#514e7f"/>
  <path id="Path_620" data-name="Path 620" d="M474.818,554.849a.786.786,0,0,1-.141.513.694.694,0,0,1-.3.177c-1.638.587-3.534-.145-5.169.433-.336.118-.654.29-.991.4a5.39,5.39,0,0,1-1.237.219c-.578.055-1.159.09-1.739.106a4.181,4.181,0,0,1-1.311-.115,1.574,1.574,0,0,1-1.006-.8.765.765,0,0,1-.049-.567.611.611,0,0,1,.108-.177c.1.2.164.465.224.56a1.147,1.147,0,0,0,.767.553,1.9,1.9,0,0,0,.707-.09,35.6,35.6,0,0,0,4.489-.93,10.372,10.372,0,0,1,1.47-.566,11.562,11.562,0,0,1,1.59-.129c.838-.067,1.649-.32,2.474-.452a1.8,1.8,0,0,1,.111.859Z" transform="translate(-395.975 -476.982)" fill="#464353"/>
  <path id="Path_621" data-name="Path 621" d="M608,520.6a2.978,2.978,0,0,1-.9,1.612,10.543,10.543,0,0,0-1.267,1.386,11.158,11.158,0,0,1-1.166,2,3.2,3.2,0,0,1-.707.5,4.932,4.932,0,0,1-.91.419,6.79,6.79,0,0,1-2.571.14,2.316,2.316,0,0,1-.816-.157,2.467,2.467,0,0,1-.339-.209,1.621,1.621,0,0,1-.53-.53.53.53,0,0,1-.051-.385.9.9,0,0,1,.246-.375,5.832,5.832,0,0,1,.622-.56,3.723,3.723,0,0,0,.809-.707,2.282,2.282,0,0,0,.313-.707,6.266,6.266,0,0,0,.228-1.352,4.286,4.286,0,0,1,.094-.9c.131-.467.477-.884.438-1.366a.34.34,0,0,1,.018-.207.287.287,0,0,1,.163-.1,2.88,2.88,0,0,1,.845-.2.984.984,0,0,1,.785.307c.12.145.2.353.376.41a.6.6,0,0,0,.269.011,2.251,2.251,0,0,0,1.237-.38,1.542,1.542,0,0,0,.513-1.126c0-.161-.072-.329.177-.353.187-.025.336.177.431.3a4.188,4.188,0,0,1,.827,1.506.442.442,0,0,1,.157-.03.684.684,0,0,1,.564.288A1.123,1.123,0,0,1,608,520.6Z" transform="translate(-507.841 -447.161)" fill="#514e7f"/>
  <path id="Path_622" data-name="Path 622" d="M608.312,528.758a2.979,2.979,0,0,1-.9,1.612,10.538,10.538,0,0,0-1.267,1.385,11.153,11.153,0,0,1-1.166,2,3.2,3.2,0,0,1-.707.5,4.935,4.935,0,0,1-.91.419,6.791,6.791,0,0,1-2.571.14,2.313,2.313,0,0,1-.816-.157,2.462,2.462,0,0,1-.339-.209,1.62,1.62,0,0,1-.53-.53,1.292,1.292,0,0,1,.53-.127c.382.021.661.382,1.027.493.521.157,1.041-.21,1.569-.336a10.615,10.615,0,0,0,1.048-.177,2.591,2.591,0,0,0,.776-.47,3.952,3.952,0,0,0,.829-.8,5.136,5.136,0,0,0,.486-.97,13.86,13.86,0,0,1,.983-1.88,1.323,1.323,0,0,1,.2-.262,2.772,2.772,0,0,1,.27-.2,2.053,2.053,0,0,0,.624-1.138,1.992,1.992,0,0,1,.14-.38.683.683,0,0,1,.564.288A1.122,1.122,0,0,1,608.312,528.758Z" transform="translate(-508.152 -455.321)" fill="#464353"/>
  <path id="Path_623" data-name="Path 623" d="M438.329,201.657a3.748,3.748,0,0,1,1.06,1.237,25.529,25.529,0,0,1,1.59,4.787c.465-.468,2.3-.544,2.768-1.013.2-.2,1.255-1.175,1.414-1.4s1.34-.707,1.469-.947c.482-.864-3.421-4.139-2.921-4.992a.223.223,0,0,0,.041-.134.219.219,0,0,0-.065-.1,5.852,5.852,0,0,0-1.129-.772,1.791,1.791,0,0,1-.861-1.025,3.711,3.711,0,0,0-1,.675q-1.074.921-2.112,1.879c-.27.251-.794.585-.919.944C437.516,201.173,438.071,201.446,438.329,201.657Z" transform="translate(-375.225 -183.318)" fill="#a1616a"/>
  <path id="Path_624" data-name="Path 624" d="M454.388,214.13a11.5,11.5,0,0,0-1.672,1.368,3.327,3.327,0,0,0-1.06,1.7c-.049.263-.042.53-.083.8-.177,1.158-1.177,2.006-1.619,3.089a5.356,5.356,0,0,0-.281,1.034,12.22,12.22,0,0,0-.2,2.029c-.011.659.636,1.113.873,1.728a10.553,10.553,0,0,1,.421,1.879,22.26,22.26,0,0,0,1.06,3.481c.871,2.407,3.7,9.061,4.566,11.469,2.67-.67,9.778-2.209,12.143-3.621.788-.47-5.47-5.773-4.627-6.139a.315.315,0,0,0,.237-.444c-.843-3.686-3.48-6.715-4.676-10.3a31.267,31.267,0,0,0-1.727-3.494c-.512-1.073-.786-2.259-1.4-3.278a2.069,2.069,0,0,0-.447-.557,2.638,2.638,0,0,0-.493-.3C455.05,214.4,454.725,214.3,454.388,214.13Z" transform="translate(-384.964 -197.182)" fill="#514e7f"/>
  <circle id="Ellipse_32" data-name="Ellipse 32" cx="4.179" cy="4.179" r="4.179" transform="translate(59.066 9.561)" fill="#a1616a"/>
  <path id="Path_625" data-name="Path 625" d="M466.4,205.36a1.4,1.4,0,0,1,1.571-.226.759.759,0,0,1,.467.755l2.073.032a4.162,4.162,0,0,1,.983.09,1.428,1.428,0,0,1,.82.514c.025.034.053.074.1.079a.152.152,0,0,0,.1-.032,1.8,1.8,0,0,1,1.032-.177,5.575,5.575,0,0,1,3.034,1.332.981.981,0,0,1,.353.44c.072.235-.014.53.177.7a24.882,24.882,0,0,0,1.113,5.655,2.537,2.537,0,0,0,.627.9,3.634,3.634,0,0,1,.67,1c.378.983-.143,2.138.224,3.124a5.354,5.354,0,0,0,.707,1.122,2.9,2.9,0,0,1,.6,1.449c.016.237-.014.475,0,.707a4.276,4.276,0,0,0,.177.938q.226.855.474,1.709a3.879,3.879,0,0,0,1.442,2.4c-1.988.338-4.084.668-5.978-.023a3.1,3.1,0,0,1-.746-.373,4.3,4.3,0,0,1-1.309-2.11,9.963,9.963,0,0,1-.73-2.723,3.126,3.126,0,0,0-.125-.884,2.516,2.516,0,0,0-1.173-1.106,5.635,5.635,0,0,1-1.414-1.1,2.2,2.2,0,0,1-.573-1.651c.035-.292.15-.573.161-.866a.678.678,0,0,0-.4-.707c-1.447-.438-2.138-2.152-2.46-3.63a11.651,11.651,0,0,1-.186-2.315l-.019-1.507a1.99,1.99,0,0,1-.65-1.43,1.7,1.7,0,0,0-.009-.474,1.306,1.306,0,0,0-.332-.5A4.5,4.5,0,0,1,466.4,205.36Z" transform="translate(-398.903 -189.657)" fill="#464353"/>
  <path id="Path_626" data-name="Path 626" d="M439.854,228.343a11.57,11.57,0,0,1-.046,1.4c-.041.177-.111.353-.163.518a3.04,3.04,0,0,0,.193,1.967,10.958,10.958,0,0,0,1.006,1.741,2.826,2.826,0,0,1,.322.6,3.12,3.12,0,0,1,.124.687,21.349,21.349,0,0,0,.491,2.778c.2.792,2.446,7.56,2.969,8.188a.666.666,0,0,0,.4.274.733.733,0,0,0,.343-.071l1.06-.406a.693.693,0,0,0,.246-.134.633.633,0,0,0,.152-.417c.076-.862-2.177-7.679-2.463-8.493a64.959,64.959,0,0,1-2.582-7.378,5.361,5.361,0,0,0-.758-2.359c-.214-.233-.141-.134-.4-.012a2.9,2.9,0,0,0-.375.2A1.226,1.226,0,0,0,439.854,228.343Z" transform="translate(-376.809 -207.861)" fill="#464353"/>
  <path id="Path_627" data-name="Path 627" d="M556.62,320.79" transform="translate(-473.179 -284.993)" fill="#464353"/>
  <path id="Path_628" data-name="Path 628" d="M458.252,226.843c.285,1.5.578,3,.869,4.508l4.149-1.087a2.916,2.916,0,0,0-.353-1.237c-.378-.949-.387-2.006-.693-2.981-.232-.742-.634-1.424-.852-2.172-.125-.435-.189-.884-.313-1.324a9.617,9.617,0,0,0-.488-1.264,7.911,7.911,0,0,0-.9-1.677,2.638,2.638,0,0,0-1.4.907,1.958,1.958,0,0,0-.258.884c-.072.931.265,1.868.154,2.794A8.218,8.218,0,0,0,458.252,226.843Z" transform="translate(-391.989 -201.694)" fill="#6c63ff"/>
  <path id="Path_629" data-name="Path 629" d="M477.469,331.949a4.956,4.956,0,0,1-.38,2.688,20.827,20.827,0,0,0-.845,4.047,3.5,3.5,0,0,1-.209,1.023c-.131.3-.353.544-.505.825a4.145,4.145,0,0,0-.316,2.485c.06.557.15,1.112.262,1.659a4.2,4.2,0,0,1,.108,2.023c.329-.072.551.353.53.687a1.834,1.834,0,0,0,.032.995c.406.148.41.707.4,1.14a9.587,9.587,0,0,0,.283,2.227q.923,4.436,1.958,8.847c1.493.463,3.238.945,4.662.3a.935.935,0,0,0,.59-.594,1.035,1.035,0,0,0-.057-.456l-.675-2.456a4.511,4.511,0,0,1-.242-1.817c.065-.454.263-.944.041-1.345-.076-.138-.2-.246-.285-.376-.353-.518-.168-1.211-.14-1.838a1.455,1.455,0,0,0-.028-.421,2.1,2.1,0,0,0-.2-.461,7.056,7.056,0,0,1-.778-3.51.868.868,0,0,0-.062-.458,1.487,1.487,0,0,1-.115-.187.512.512,0,0,1,.037-.338,3.092,3.092,0,0,1-.544-.53.762.762,0,0,0,.131-1.191.4.4,0,0,0,.189-.684c-.087-.06-.2-.087-.263-.177-.1-.131-.018-.313.06-.452l.412-.744c.308-.553.376-1.237.707-1.767a13.243,13.243,0,0,0,1.089-2.485l1.189-3.282.8.694a2.53,2.53,0,0,1,.657.749,3.235,3.235,0,0,1,.214.9c.293,1.781,1.414,3.326,1.829,5.081a3.347,3.347,0,0,0,.378,1.135,2.471,2.471,0,0,1,.216.325,1.722,1.722,0,0,1,.09.539,2.515,2.515,0,0,0,1.06,1.8c.394.27.884.456,1.1.884a1.649,1.649,0,0,0,.177.376c.191.23.6.256.684.544.046.161-.039.353.051.495a.468.468,0,0,0,.2.147l1.15.574c1.287.643,1.944,2.121,2.893,3.2a6.9,6.9,0,0,1,.866,1.145c.41.733.6,1.654,1.292,2.121a1.955,1.955,0,0,1,.5.373c.217.286.138.687.157,1.048s.3.79.638.68a2.514,2.514,0,0,0,0,1.334,6.716,6.716,0,0,0,4.075-1.651,1.608,1.608,0,0,0,.663-1.113.4.4,0,0,0-.049-.221.631.631,0,0,0-.26-.2c-1.076-.583-1.4-1.935-1.944-3.033a26.275,26.275,0,0,0-1.767-2.7c-1.279-1.935-2.153-4.277-4.088-5.554a2.781,2.781,0,0,1-1.135-.995c-.118-.26-.133-.557-.226-.825a.716.716,0,0,0-.6-.53,3.7,3.7,0,0,0,.138-1.283,1.62,1.62,0,0,0-.064-.553,2.691,2.691,0,0,0-.284-.548,5.256,5.256,0,0,1-.728-2.828,4.637,4.637,0,0,0-.049-1.525c-.078-.246-.214-.47-.307-.707a4.416,4.416,0,0,1-.221-1.329l-.106-1.7a8.359,8.359,0,0,0-.219-1.679c-.353-1.318-.707-6.841-1.917-7.463s-3.291,3.628-4.653,3.711a6.059,6.059,0,0,0-1.767.341,8.609,8.609,0,0,0-2.407,1.591l-2.506,2.1A9.234,9.234,0,0,1,477.469,331.949Z" transform="translate(-406.117 -286.795)" fill="#464353"/>
  <path id="Path_630" data-name="Path 630" d="M415.2,164.184A3.15,3.15,0,0,1,417.63,163a5.663,5.663,0,0,1,2.688.675,3.321,3.321,0,0,0,.785.322c.442.09.933-.03,1.332.177a1.6,1.6,0,0,1,.587,1.59,2.92,2.92,0,0,0,.159,1.767,4.087,4.087,0,0,1,.306.461,1.525,1.525,0,0,1-.025.983,6.365,6.365,0,0,1-.507-.649.6.6,0,0,0-.732-.189c-.228.154-.224.433-.237.684s-.076.551-.313.633a.507.507,0,0,1-.53-.207c-.4-.495-.242-1.285-.643-1.783-.228-.283-.608-.421-.818-.717-.166-.233-.209-.53-.353-.781s-.482-.435-.707-.262a.956.956,0,0,0-.189.253,1.087,1.087,0,0,1-1.29.389,2.156,2.156,0,0,0-.558-.242.691.691,0,0,0-.638.353,1.38,1.38,0,0,0-.177.739,1.7,1.7,0,0,1-.138,1.013,1.048,1.048,0,0,1-.283.269.88.88,0,0,1-.979.1.735.735,0,0,1-.219-.686,5.547,5.547,0,0,1,.209-.725c.156-.548-.048-1.165.122-1.681A5.364,5.364,0,0,1,415.2,164.184Z" transform="translate(-355.874 -155.084)" fill="#464353"/>
  <path id="Path_631" data-name="Path 631" d="M432.758,205.186a.643.643,0,0,0,.039.383.61.61,0,0,0,.209.2,4.287,4.287,0,0,0,1.969.638.6.6,0,0,1,.272.071.478.478,0,0,1,.115.548,1.426,1.426,0,0,0-.125.583c.051.369.49.53.859.585a2,2,0,0,0,1.5-.292,2.309,2.309,0,0,0,.617-.924c1.014-2.331,1.37-4.908,2.4-7.231a1.535,1.535,0,0,0,.154-.484.477.477,0,0,0-.191-.445c-.191-.118-.488-.051-.617-.237-.064-.094-.057-.221-.113-.32-.118-.21-.429-.177-.642-.3-.166-.088-.281-.27-.467-.306a.587.587,0,0,0-.482.209,6.214,6.214,0,0,0-1.255,2.112,24.755,24.755,0,0,1-1.8,3.329,1.942,1.942,0,0,0-.562-1.1c-.316-.064-.721.491-.892.7A4.446,4.446,0,0,0,432.758,205.186Z" transform="translate(-371.196 -183.619)" fill="#6c63ff"/>
  <path id="Path_632" data-name="Path 632" d="M459.97,200.32a.846.846,0,0,0-.656.329,1.869,1.869,0,0,0-.274.884,7.679,7.679,0,0,1-1.041,2.8" transform="translate(-391.987 -185.813)" opacity="0.1"/>
  <path id="Path_633" data-name="Path 633" d="M465.26,204.31a1.009,1.009,0,0,0-.857.514,2.889,2.889,0,0,0-.216.873,4.791,4.791,0,0,1-.857,1.836" transform="translate(-396.375 -189.098)" opacity="0.1"/>
  <path id="Path_634" data-name="Path 634" d="M251.327,361.206v-2.195a6.093,6.093,0,0,0-6.093-6.092h-86.68a6.093,6.093,0,0,0-6.093,6.092v4.047Z" transform="translate(-140.443 -311.445)" fill="#33323d"/>
  <path id="Path_635" data-name="Path 635" d="M323.363,275.324s-.247,15.35,2.474,20.4,3.888,27.022,3.888,27.022,28.53,2.951,48.411-3.534,62.185-9.138,62.185-9.138l-7.129-48.049s-35.219-2.259-55.254,7.3S323.363,275.324,323.363,275.324Z" transform="translate(-281.139 -236.423)" fill="#8dd070"/>
  <path id="Path_636" data-name="Path 636" d="M323.363,275.324s-.247,15.35,2.474,20.4,3.888,27.022,3.888,27.022,28.53,2.951,48.411-3.534,62.185-9.138,62.185-9.138l-7.129-48.049s-35.219-2.259-55.254,7.3S323.363,275.324,323.363,275.324Z" transform="translate(-281.139 -236.423)" opacity="0.1"/>
  <path id="Path_637" data-name="Path 637" d="M358.3,296.737s-.892,12.666,1.347,16.713,2.343,22.113,2.343,22.113,25.676,1.191,43.94-5.026,56.645-10.25,56.645-10.25l-4.362-39.294s-31.757-.327-50.291,8.424S358.3,296.737,358.3,296.737Z" transform="translate(-309.764 -252.228)" fill="#8dd070"/>
  <ellipse id="Ellipse_33" data-name="Ellipse 33" cx="6.666" cy="14.297" rx="6.666" ry="14.297" transform="translate(87.729 43.564) rotate(-7.1)" opacity="0.1"/>
  <path id="Path_638" data-name="Path 638" d="M367.65,130.66s-34.215,8.659-50.35,23.9-50.1,22.46-50.1,22.46,4.475,14.684,8.613,18.656S287.8,220.207,287.8,220.207s28.058-5.948,44.988-18.227,56.387-27.786,56.387-27.786Z" transform="translate(-234.906 -128.463)" opacity="0.2"/>
  <path id="Path_639" data-name="Path 639" d="M264.29,164.589s4.473,14.686,8.608,18.658,11.989,24.527,11.989,24.527,28.062-5.947,44.993-18.225,56.385-27.781,56.385-27.781L364.738,118.23s-34.213,8.659-50.348,23.9S264.29,164.589,264.29,164.589Z" transform="translate(-232.51 -118.23)" fill="#8dd070"/>
  <path id="Path_640" data-name="Path 640" d="M264.29,164.589s4.473,14.686,8.608,18.658,11.989,24.527,11.989,24.527,28.062-5.947,44.993-18.225,56.385-27.781,56.385-27.781L364.738,118.23s-34.213,8.659-50.348,23.9S264.29,164.589,264.29,164.589Z" transform="translate(-232.51 -118.23)" opacity="0.1"/>
  <path id="Path_641" data-name="Path 641" d="M308,187.147s3.038,12.33,6.411,15.493,9.013,20.323,9.013,20.323,24.8-6.747,40.277-18.269,50.77-27.121,50.77-27.121L398.264,141.5s-30.324,9.432-45.28,23.449S308,187.147,308,187.147Z" transform="translate(-268.496 -137.388)" fill="#8dd070"/>
  <ellipse id="Ellipse_34" data-name="Ellipse 34" cx="6.666" cy="14.297" rx="6.666" ry="14.297" transform="translate(76.52 36.834) rotate(-24.97)" opacity="0.1"/>
  <path id="Path_642" data-name="Path 642" d="M253.691,383.366v60.969a5.272,5.272,0,0,1-5.273,5.272H157.76a5.272,5.272,0,0,1-5.27-5.272V377.22a9.31,9.31,0,0,0,5.27.884h90.658a5.273,5.273,0,0,1,5.273,5.263Z" transform="translate(-140.468 -331.451)" opacity="0.1"/>
  <path id="Path_643" data-name="Path 643" d="M253.691,387.748v60.969a5.273,5.273,0,0,1-5.273,5.272H157.76a5.272,5.272,0,0,1-5.27-5.272V381.6a9.34,9.34,0,0,0,5.27.884h90.658A5.273,5.273,0,0,1,253.691,387.748Z" transform="translate(-140.468 -335.057)" fill="#504f60"/>
  <path id="Path_644" data-name="Path 644" d="M590.179,543.936v19.5H571.27a9.749,9.749,0,1,1,0-19.5Z" transform="translate(-477.213 -468.704)" opacity="0.1"/>
  <path id="Path_645" data-name="Path 645" d="M591.639,541v19.5H572.73a9.749,9.749,0,1,1,0-19.5Z" transform="translate(-478.415 -466.287)" fill="#33323d"/>
  <circle id="Ellipse_35" data-name="Ellipse 35" cx="3.801" cy="3.801" r="3.801" transform="translate(91.42 81.181)" opacity="0.1"/>
  <circle id="Ellipse_36" data-name="Ellipse 36" cx="3.801" cy="3.801" r="3.801" transform="translate(91.678 80.665)" fill="#6c63ff"/>
  <path id="Path_646" data-name="Path 646" d="M853.211,527.34c.15,1.628-1.082,3.207-.723,4.8.078.341.224.663.277,1.007a3.872,3.872,0,0,1-.954,2.635l-4.63,6.793a4.216,4.216,0,0,1-.661.816c-.884.788-2.213.707-3.375.942a5.768,5.768,0,0,0-2.262,1,.145.145,0,0,0-.021.2,1.944,1.944,0,0,0,1.682.79c.122.161,0,.4-.177.511-.249.177-.59.219-.64.64a.694.694,0,0,0,.085.424,1.316,1.316,0,0,0,.809.564c1.6.49,3.335-.371,4.535-1.543s2.061-2.651,3.238-3.844c.652-.659,1.393-1.225,2.064-1.864a23.629,23.629,0,0,0,3.386-4.381,4.888,4.888,0,0,0,.733-1.492c.127-.543.067-1.09.21-1.615a5.947,5.947,0,0,1,1.11-1.815A6.005,6.005,0,0,0,859.16,528a3.746,3.746,0,0,0-2.287-3.243,2.032,2.032,0,0,0-1.281-.078,3.044,3.044,0,0,0-1.3,1.037l-.884,1.016a2.385,2.385,0,0,0-.512.778.815.815,0,0,0,.177.864" transform="translate(-707.165 -452.795)" fill="#fbbebe"/>
  <path id="Path_647" data-name="Path 647" d="M853.211,527.34c.15,1.628-1.082,3.207-.723,4.8.078.341.224.663.277,1.007a3.872,3.872,0,0,1-.954,2.635l-4.63,6.793a4.216,4.216,0,0,1-.661.816c-.884.788-2.213.707-3.375.942a5.768,5.768,0,0,0-2.262,1,.145.145,0,0,0-.021.2,1.944,1.944,0,0,0,1.682.79c.122.161,0,.4-.177.511-.249.177-.59.219-.64.64a.694.694,0,0,0,.085.424,1.316,1.316,0,0,0,.809.564c1.6.49,3.335-.371,4.535-1.543s2.061-2.651,3.238-3.844c.652-.659,1.393-1.225,2.064-1.864a23.629,23.629,0,0,0,3.386-4.381,4.888,4.888,0,0,0,.733-1.492c.127-.543.067-1.09.21-1.615a5.947,5.947,0,0,1,1.11-1.815A6.005,6.005,0,0,0,859.16,528a3.746,3.746,0,0,0-2.287-3.243,2.032,2.032,0,0,0-1.281-.078,3.044,3.044,0,0,0-1.3,1.037l-.884,1.016a2.385,2.385,0,0,0-.512.778.815.815,0,0,0,.177.864" transform="translate(-707.165 -452.795)" opacity="0.05"/>
  <path id="Path_648" data-name="Path 648" d="M911.877,768.381a5.359,5.359,0,0,1-3.446.511c-.189-.023-.414-.037-.53.11-.177.212.032.53.247.694a5.1,5.1,0,0,0,2.366.974,15.576,15.576,0,0,0,2.315.154,39.129,39.129,0,0,0,6.328-.231.9.9,0,0,0,.353-.1.647.647,0,0,0,.262-.4,1.577,1.577,0,0,0-.55-1.506,4.613,4.613,0,0,0-1.476-.792l-1.838-.716a4.726,4.726,0,0,0-1.591-.578C913.439,766.564,912.607,767.953,911.877,768.381Z" transform="translate(-762.326 -651.936)" fill="#3f3d56"/>
  <path id="Path_649" data-name="Path 649" d="M911.877,768.381a5.359,5.359,0,0,1-3.446.511c-.189-.023-.414-.037-.53.11-.177.212.032.53.247.694a5.1,5.1,0,0,0,2.366.974,15.576,15.576,0,0,0,2.315.154,39.129,39.129,0,0,0,6.328-.231.9.9,0,0,0,.353-.1.647.647,0,0,0,.262-.4,1.577,1.577,0,0,0-.55-1.506,4.613,4.613,0,0,0-1.476-.792l-1.838-.716a4.726,4.726,0,0,0-1.591-.578C913.439,766.564,912.607,767.953,911.877,768.381Z" transform="translate(-762.326 -651.936)" opacity="0.05"/>
  <path id="Path_650" data-name="Path 650" d="M931.5,590.5c-.765,1.018-1.557,2.193-1.368,3.453a7.694,7.694,0,0,0,.762,1.905,13.443,13.443,0,0,1,.77,2.679c.286,1.333.574,2.668.749,4.022.2,1.529-.739,5.952-.825,7.491a1.583,1.583,0,0,1-.323,1.039c-.1.106-.235.191-.281.329a.562.562,0,0,0,.062.389,4.276,4.276,0,0,0,2.3,2.11,18.169,18.169,0,0,0,4.43,1.165.884.884,0,0,0,.417-.055.812.812,0,0,0,.322-.369c.769-1.47.03-6.7.041-8.357.011-1.384.338-2.759.278-4.141-.049-1.11-.353-2.195-.454-3.3a19.481,19.481,0,0,1,.49-5.427c.255-1.375.511-2.75.838-4.107a7.884,7.884,0,0,1,.884-2.384c.353-.571.85-1.048,1.262-1.591a7.178,7.178,0,0,0,1.414-5.256,13.769,13.769,0,0,0-2.882.767,8.982,8.982,0,0,0-2.57,1.652,21.579,21.579,0,0,0-1.619,2q-1.129,1.377-2.23,2.773Q932.7,588.887,931.5,590.5Z" transform="translate(-780.657 -498.455)" fill="#464353"/>
  <path id="Path_651" data-name="Path 651" d="M931.5,590.194c-.765,1.018-1.557,2.195-1.368,3.453a7.679,7.679,0,0,0,.762,1.907,13.426,13.426,0,0,1,.77,2.677c.286,1.334.574,2.67.749,4.022.2,1.53-.739,5.952-.825,7.491a1.588,1.588,0,0,1-.323,1.041c-.1.1-.235.189-.281.327a.56.56,0,0,0,.062.389,4.328,4.328,0,0,0,2.3,2.121,17.072,17.072,0,0,0,4.43.829.885.885,0,0,0,.417-.055.8.8,0,0,0,.322-.368c.769-1.47.03-6.362.041-8.023.011-1.385.338-2.759.278-4.142-.049-1.11-.353-2.195-.454-3.3a19.487,19.487,0,0,1,.49-5.429c.255-1.373.511-2.748.838-4.107a7.884,7.884,0,0,1,.884-2.384c.353-.571.85-1.048,1.262-1.59a7.175,7.175,0,0,0,1.414-5.256,13.772,13.772,0,0,0-2.882.767,9.023,9.023,0,0,0-2.57,1.654,21.331,21.331,0,0,0-1.619,2q-1.129,1.377-2.23,2.775Q932.7,588.577,931.5,590.194Z" transform="translate(-780.657 -498.208)" opacity="0.05"/>
  <circle id="Ellipse_37" data-name="Ellipse 37" cx="4.289" cy="4.289" r="4.289" transform="translate(138.035 61.05)" fill="#fbbebe"/>
  <path id="Path_652" data-name="Path 652" d="M892.631,483.127a5.554,5.554,0,0,0,3.561,2.485l-.323,1.175c-.558,2.018-1.186,4.153-2.744,5.553a2.581,2.581,0,0,0-.435-2.008,7.57,7.57,0,0,0-1.456-1.522l-2.469-2.138a.742.742,0,0,1-.177-.208.627.627,0,0,1,0-.47,5.731,5.731,0,0,1,1.944-2.251,6.731,6.731,0,0,0,.977-1.138C892,481.9,892.307,482.607,892.631,483.127Z" transform="translate(-746.443 -417.968)" fill="#fbbebe"/>
  <path id="Path_653" data-name="Path 653" d="M852.869,447.527l-.1-.806c.677.177,1.32-.4,1.753-.995s.834-1.3,1.493-1.546a3.094,3.094,0,0,1,2.414.58,7.633,7.633,0,0,0,2.769.9,1.817,1.817,0,0,1,.458.074,1.593,1.593,0,0,1,.808,1.37,5.358,5.358,0,0,0,.3,1.675c.177.384.505.668.707,1.046.53,1.014.018,2.4.571,3.4l-1.375-1.26c-.125-.115-.3-.235-.442-.138-.11.078-.118.246-.163.38a.722.722,0,0,1-.979.353,2.8,2.8,0,0,1-.884-.8,5.364,5.364,0,0,0-2.181-1.654,2.8,2.8,0,0,0-2.3.152c-.641.362-1.112,1.207-1.9,1.237-1.078.041-1.527-1.967-2.025-2.76a.972.972,0,0,0,.283-1.216C852.155,447.486,852.853,447.4,852.869,447.527Z" transform="translate(-716.195 -386.5)" fill="#464353"/>
  <path id="Path_654" data-name="Path 654" d="M551.179,316.936a8.337,8.337,0,0,0-.953,1,2,2,0,0,0-.438,1.285.657.657,0,0,0,.124.376.318.318,0,0,0,.353.108.475.475,0,0,0,.177-.156,8.535,8.535,0,0,1,.594-.643c.076-.076.177-.155.279-.127a.3.3,0,0,1,.12.08.813.813,0,0,1,.249.389.916.916,0,0,1-.274.753,1.929,1.929,0,0,0-.461.682.3.3,0,0,0,0,.219.329.329,0,0,0,.138.117,1.972,1.972,0,0,0,1.668.11c.353-.143.668-.389,1.032-.516a2.389,2.389,0,0,0,.456-.177.947.947,0,0,0,.4-.606,2.5,2.5,0,0,0,.027-.744,8.558,8.558,0,0,0-.608-2.8.354.354,0,0,0-.1-.148.327.327,0,0,0-.177-.048,4.2,4.2,0,0,0-1.631-.111,1.151,1.151,0,0,0-.385.343C551.69,316.413,551.179,316.817,551.179,316.936Z" transform="translate(-467.555 -280.983)" fill="#a1616a"/>
  <path id="Path_655" data-name="Path 655" d="M527.29,242.469c0-.431-.53-1.472.313-1.541,0-.461-.652-.748-.53-1.237.039-.163.177-.3.193-.461.053-.472-.8-.728-.657-1.181.053-.177.24-.279.281-.454.1-.408-.634-.59-.649-1.009,0-.141.08-.274.072-.415,0-.177-.154-.311-.239-.465-.221-.394-.113-1-.516-1.207.267.023.354-.373.244-.615s-.334-.452-.336-.721a1.083,1.083,0,0,0,0-.293c-.074-.258-.5-.279-.567-.53a2.264,2.264,0,0,1-.009-.29c-.028-.2-.233-.327-.426-.383a1.737,1.737,0,0,1-.569-.2c-.124-.094-.267-.249-.4-.177-.049.03-.074.087-.111.129-.159.186-.463.1-.663-.032a2.722,2.722,0,0,1-1.009-1.822c-.125-.7-.122-1.426-.279-2.121a4.531,4.531,0,0,0-.191-.636,3.349,3.349,0,0,1-.3-.633c-.032-.406.809-.129,1.129-.088a5.029,5.029,0,0,1,.917.177,9.8,9.8,0,0,1,.938.412c1.276.564,2.817.633,3.842,1.58a3.22,3.22,0,0,0,1.06.861,4.8,4.8,0,0,1,.594.154c.486.228.562.873.827,1.34a2.631,2.631,0,0,1,.217.389,1.5,1.5,0,0,1,.071.495l.037,1.225a45.161,45.161,0,0,1-.1,6.148,5.041,5.041,0,0,0,.023,2.013c.053.177.127.343.177.521a3.179,3.179,0,0,1,.067.636l.028.793a.247.247,0,0,1-.039.177.255.255,0,0,1-.214.051c-1.1-.1-2.221-.721-3.264-.345" transform="translate(-443.809 -206.917)" fill="#464353"/>
  <ellipse id="Ellipse_38" data-name="Ellipse 38" cx="13.07" cy="1.889" rx="13.07" ry="1.889" transform="translate(120.816 92.743)" fill="#504f60"/>
  <path id="Path_656" data-name="Path 656" d="M716.318,260.339c-.23-.984-.373-1.849-.373-1.849a3.809,3.809,0,0,0-.428-1.875v-.269h0v-1.979a6.753,6.753,0,0,1,.5-1.037c.353-.622,0-2.9,0-2.9s-1.32-3.215-1-5.254-2.711-9.055-2.711-9.055a8.94,8.94,0,0,1,.284-2,1.528,1.528,0,0,0,.039-.421v-.035a15.574,15.574,0,0,0-1.11-3.865l.143-4.8a14.122,14.122,0,0,0-.428-6.636c-.387-1.327-.635-2.389-.792-3.209-.018-.092-.035-.177-.049-.267,2.278-.353,4.019-.636,4.019-.636s-1.322-5.53-2.214-6.5-1.606-4.01-1.606-4.01-.465-3.9.286-5.045a7.587,7.587,0,0,0,.857-3.11s1.712-1.237,1.928-1.8a9.171,9.171,0,0,0,.571-2.453c0-.656-.214-1.237-.143-1.59s-.5-1.659-.214-2.281a1.673,1.673,0,0,0,.113-.6.078.078,0,0,0,0-.018h0a8.393,8.393,0,0,0-.15-1.622,4.6,4.6,0,0,0-1.7-.907l-.037-.148-.1-.389a1.878,1.878,0,0,0-.168-.1v-.141l-.016-.562.269-1.262c.53-2.195-2.4-2.522-2.4-2.522a1.546,1.546,0,0,0-.831-.728c-.589-.207-.1,3.3.177,3.534a13.82,13.82,0,0,1,1.156,1.81h0l.049.088a1.237,1.237,0,0,0-.134.141l.111.762.018.117a3.161,3.161,0,0,0-.468.8,1.719,1.719,0,0,1,.429,1.237,3.964,3.964,0,0,0,.177,1.52c-.032-.037-.408-.444-.785-.345s-1.428.415-1.428.415-.785.138-.707.311-.53.933-.53.933l-2.11-2c-.021-.06-.044-.12-.062-.177a4.863,4.863,0,0,1-.177-.884,4.83,4.83,0,0,0,.675-.214,1.456,1.456,0,0,0,.583-.375,2.261,2.261,0,0,0,.341-.91,13.373,13.373,0,0,1,.783-1.746,5.677,5.677,0,0,0,.4-3.142,2.05,2.05,0,0,0-.323-.919c-.345-.474-.97-.666-1.424-1.044s-.748-.956-1.278-1.237a2.534,2.534,0,0,0-1.6-.138,8.629,8.629,0,0,0-2.992,1.089,1.557,1.557,0,0,1-1,.329,1.306,1.306,0,0,1-.721-.53.183.183,0,0,1,.009-.028.177.177,0,0,1-.023-.028,3.728,3.728,0,0,0-.329,1.58,1.942,1.942,0,0,0,.011.253v.161h0a.4.4,0,0,1-.016.111.8.8,0,0,1-.2.285,1.909,1.909,0,0,0-.177.235.291.291,0,0,1,.028-.087,1.257,1.257,0,0,0-.219.666.68.68,0,0,0,.159.477,2.3,2.3,0,0,0,.345.276,4.019,4.019,0,0,0-.064.707,4.084,4.084,0,0,0,1.99,3.483c.025.058.048.118.071.177a5.032,5.032,0,0,1,.383,2.3,1.076,1.076,0,0,1-.025.166c-.009.055-.053.058-.076.088h0s-3.487.035-4.307-.707-2.071,1.815-2.071,1.815-1.249.242-1.5,0-1.712-.034-1.712-.034a3.151,3.151,0,0,0-2.179-.8,6.4,6.4,0,0,0-1.591-.884h0l-.039-.014h0a1.782,1.782,0,0,0-.786-.1,15.862,15.862,0,0,1-2.214-2.177c-.5-.763-2.881-3.582-2.891-3.595v-.136l-.026-.41a1.471,1.471,0,0,1-.214.018c-.012-.041-.03-.088-.048-.143a7.914,7.914,0,0,0-.505-1.161s0-.518.15-.649a8.935,8.935,0,0,0-.062-2.031s-1.545-3.61-2.928-.915c0,0-2.615,1.744-.421,3.777,0,0,.884.424,1,.76.081.217.378.827.578,1.237l.09.177-.025.021.032.339.014.131c-.414.235-.695.468-.626.643a3.866,3.866,0,0,1,.249.933s3.036,3.8,3.428,5.427c0,0,8.142,4.839,10.819,5.183l-.474,2.412a19.265,19.265,0,0,0-.106,1.97c.035.518-.322,2.868-.322,2.868s-.465,3.457-.857,3.941-.322,2.557-.322,2.557a17.466,17.466,0,0,1-.53,2.937,7.5,7.5,0,0,0-.108,2.939s-1.355,3.11,1.893,1c0,0,1.59-.1,3.432-.163v.177c0,.237,0,.493-.012.762-.025,1.781-.035,4.241.046,6.093.143,3.283,1.143,9.782,1.143,9.782v3.271a4.454,4.454,0,0,0-.1.933,6.072,6.072,0,0,0,.884,3.268l.251,2.177a8.492,8.492,0,0,1,.6,2.3,1.2,1.2,0,0,1-.025.207,1.392,1.392,0,0,0-.028.334,18.8,18.8,0,0,0,.562,3.358s.035,2.384.392,2.524c.306.118-.408,1.373-.62,1.734a.492.492,0,0,1-.012-.067l-.044.071a1.693,1.693,0,0,0-.111.6.866.866,0,0,0,.4.838c.679.415,1.043.76.467.9a6,6,0,0,0-.629.133.272.272,0,0,0-.03-.08.378.378,0,0,0-.235.417,1.768,1.768,0,0,0,.21.8,8.756,8.756,0,0,0,.967,1.767l.274-.03a1.338,1.338,0,0,1-.159.3,1.139,1.139,0,0,1-.4.353,1.248,1.248,0,0,1-.49.168,1.378,1.378,0,0,0-1.011.491,1.054,1.054,0,0,0,.124,1.64l2.554.884s4.393.571,4.16-.415-.375-1.849-.375-1.849a3.9,3.9,0,0,0-.353-1.748,2.269,2.269,0,0,0-.156-.258l.156-.016a8.089,8.089,0,0,1,.749-2.593c.1-.1.122-.177.1-.226.044-.118-.069-.187-.212-.228l-.032.087a2.083,2.083,0,0,0-.426-.048s-.143-1.14.322-1.555a.44.44,0,0,0,.09-.339,1.825,1.825,0,0,0-.049-.465.226.226,0,0,1-.016.028,16.736,16.736,0,0,0-1.025-2.681,3.279,3.279,0,0,1,.251-1.451c.286-.415-.037-5.634-.037-5.634a17.052,17.052,0,0,0-.214-3.7,4.151,4.151,0,0,1,.392-2.559v-.092l-.041-.4a.1.1,0,0,0,0,.025c-.072-.668-.209-1.879-.309-2.437-.143-.8.037-4.595.037-4.595l.642-1.626,1.143,2.8,1.214,3.732a3.189,3.189,0,0,1,.615,1.59v.117a2.036,2.036,0,0,0-.014.249,2.22,2.22,0,0,0,.369,1.331,5.755,5.755,0,0,0,.822,2.211,1.984,1.984,0,0,1,.5,1.313,22.936,22.936,0,0,0,.884,3,4.47,4.47,0,0,1,.251,1.737h0v.092s.085.915.081,1.682v.274a.08.08,0,0,0,0-.019,2.663,2.663,0,0,1-.074.622l-.011.035a.452.452,0,0,1,.012-.129,6.5,6.5,0,0,0-.177,1.59,4.119,4.119,0,0,0,.68,2.651c.965,1.106,1.571.968,1.571.968s-.463,1.382-1.036,1.659a.27.27,0,0,0-.06.039.6.6,0,0,0-.014-.081.673.673,0,0,0-.177.516,3.707,3.707,0,0,0,.707,2.048,1.154,1.154,0,0,0,.482.283.77.77,0,0,1-.09.055,1.925,1.925,0,0,1-.2.094,1.031,1.031,0,0,1-.292.076,1.361,1.361,0,0,0-1.011.491,1.052,1.052,0,0,0,.124,1.638l2.554.884S716.548,261.323,716.318,260.339Z" transform="translate(-571.187 -165.615)" fill="url(#linear-gradient)"/>
  <path id="Path_657" data-name="Path 657" d="M797.186,640.906l-2.474-.884a1.073,1.073,0,0,1-.12-1.64,1.322,1.322,0,0,1,.979-.491,1.173,1.173,0,0,0,.472-.168,1.131,1.131,0,0,0,.392-.354,1.825,1.825,0,0,0,.281-.956s2.714-.8,3.457,0a2.014,2.014,0,0,1,.329.482,4.037,4.037,0,0,1,.353,1.748s.138.862.362,1.849S797.186,640.906,797.186,640.906Z" transform="translate(-668.828 -544.548)" fill="#2d293d"/>
  <path id="Path_658" data-name="Path 658" d="M865.626,633.989l-2.474-.884a1.072,1.072,0,0,1-.12-1.638,1.306,1.306,0,0,1,.977-.491.918.918,0,0,0,.283-.076,1.894,1.894,0,0,0,.191-.094,1.565,1.565,0,0,0,.673-1.313s2.713-.8,3.457,0a1.956,1.956,0,0,1,.26.354,3.926,3.926,0,0,1,.414,1.877s.138.864.353,1.849S865.626,633.989,865.626,633.989Z" transform="translate(-725.174 -538.851)" fill="#2d293d"/>
  <path id="Path_659" data-name="Path 659" d="M810.3,636.4a2.011,2.011,0,0,1,.329.482h0l-4.065.472a1.826,1.826,0,0,0,.281-.956S809.554,635.606,810.3,636.4Z" transform="translate(-678.949 -544.538)" opacity="0.1"/>
  <path id="Path_660" data-name="Path 660" d="M876.281,629.867v.762c-.633,1.041-3.692.813-4.581.292a1.878,1.878,0,0,0,.191-.094,1.565,1.565,0,0,0,.673-1.313s2.713-.8,3.457,0A1.966,1.966,0,0,1,876.281,629.867Z" transform="translate(-732.578 -538.868)" opacity="0.1"/>
  <path id="Path_661" data-name="Path 661" d="M804.11,426.354a6.926,6.926,0,0,0-.482,1.037v2.73c-.693,1.14-4.286.76-4.772.138s-.993-2.241-.447-2.522,1-1.659,1-1.659-.589.138-1.522-.968-.656-3.559-.483-4.146a12.245,12.245,0,0,0,0-2.557,5.14,5.14,0,0,0-.24-1.833,22.818,22.818,0,0,1-.864-3,2.035,2.035,0,0,0-.484-1.313,5.912,5.912,0,0,1-.8-2.213,2.268,2.268,0,0,1-.345-1.486,3.018,3.018,0,0,0-.589-1.8l-1.175-3.734-1.106-2.8-.622,1.624s-.177,3.8-.034,4.595.353,2.9.353,2.9a4.261,4.261,0,0,0-.38,2.557,17.457,17.457,0,0,1,.2,3.7s.311,5.217.034,5.632a3.373,3.373,0,0,0-.242,1.453s1.414,3.04.968,3.455-.311,1.555-.311,1.555.967,0,.553.415a8.329,8.329,0,0,0-.726,2.592l-4.179.49a8.689,8.689,0,0,1-.935-1.767c-.553-1.285.1-1.14.659-1.279s.205-.482-.452-.9-.276-1.348-.276-1.348,1-1.693.656-1.831-.38-2.524-.38-2.524a15.357,15.357,0,0,1-.518-3.595,6.877,6.877,0,0,0-.553-2.591l-.242-2.177a5.991,5.991,0,0,1-.76-4.114v-3.358s-.968-6.5-1.106-9.78c-.088-2.1-.064-4.973-.035-6.763.018-1,.035-1.67.035-1.67l14.929-1.555a12.474,12.474,0,0,0,.27,2.218c.154.82.392,1.882.767,3.209a14.583,14.583,0,0,1,.415,6.634l-.14,4.805s1.313,3.213,1.037,4.319a9.215,9.215,0,0,0-.279,2.008s2.937,7.016,2.626,9.055.967,5.254.967,5.254S804.457,425.732,804.11,426.354Z" transform="translate(-659.925 -338.638)" fill="#464353"/>
  <path id="Path_662" data-name="Path 662" d="M852.05,509.876l4.545-.606S854.02,511.9,852.05,509.876Z" transform="translate(-716.4 -440.165)" opacity="0.05"/>
  <path id="Path_663" data-name="Path 663" d="M870.189,484.14s.156,1.608-.829,2.213C869.36,486.353,871.122,486.077,870.189,484.14Z" transform="translate(-730.651 -419.476)" opacity="0.1"/>
  <path id="Path_664" data-name="Path 664" d="M847.441,455.2s-3.8,3.128-5.182,2.868S847.441,455.2,847.441,455.2Z" transform="translate(-708.182 -395.65)" opacity="0.1"/>
  <path id="Path_665" data-name="Path 665" d="M806.314,521s-2.886.656-2.972,1.815S806.314,521,806.314,521Z" transform="translate(-676.298 -449.822)" opacity="0.1"/>
  <path id="Path_666" data-name="Path 666" d="M809.2,602.56s-4.077.76-2.919,1.278a19.79,19.79,0,0,0,3.059.933S810.652,604.84,809.2,602.56Z" transform="translate(-678.545 -516.968)" opacity="0.05"/>
  <g id="Group_242" data-name="Group 242" transform="translate(123.526 48.759)" opacity="0.05">
    <path id="Path_667" data-name="Path 667" d="M800.136,611.7a.8.8,0,0,1-.373-.59l-.042.073s-.38.933.277,1.347c.074.048.147.1.212.141.122-.023.253-.041.378-.073C801.146,612.46,800.794,612.115,800.136,611.7Z" transform="translate(-796.756 -572.767)"/>
    <path id="Path_668" data-name="Path 668" d="M831.411,609.587c.113-.1.11-.368.041-.707a1.988,1.988,0,0,0-.231,1A.86.86,0,0,1,831.411,609.587Z" transform="translate(-822.778 -570.931)"/>
    <path id="Path_669" data-name="Path 669" d="M827.466,515.59a4.714,4.714,0,0,0-.276,1.271,5.126,5.126,0,0,1,.316-.873Z" transform="translate(-819.46 -494.127)"/>
    <path id="Path_670" data-name="Path 670" d="M881.236,503.568a1.62,1.62,0,0,0,.037-.378c-.051.258-.087.5-.113.707C881.183,503.789,881.208,503.687,881.236,503.568Z" transform="translate(-863.892 -483.918)"/>
    <path id="Path_671" data-name="Path 671" d="M827.747,581.539a2.214,2.214,0,0,0,.1-.769,2.609,2.609,0,0,0-.2.97A.922.922,0,0,1,827.747,581.539Z" transform="translate(-819.839 -547.788)"/>
    <path id="Path_672" data-name="Path 672" d="M805.329,622a13.729,13.729,0,0,0-.475,2.121l-4.179.482a8.692,8.692,0,0,1-.935-1.767,3.15,3.15,0,0,1-.118-.3c-.251.115-.354.375-.021,1.133a8.831,8.831,0,0,0,.937,1.767l4.179-.484a8.317,8.317,0,0,1,.724-2.592C805.652,622.155,805.521,622.051,805.329,622Z" transform="translate(-796.572 -581.732)"/>
    <path id="Path_673" data-name="Path 673" d="M786.692,428.2s.034,2.384.38,2.522h0c.177-.394.292-.769.136-.831-.353-.138-.38-2.524-.38-2.524a15.35,15.35,0,0,1-.518-3.594,6.876,6.876,0,0,0-.553-2.591l-.242-2.177a5.991,5.991,0,0,1-.76-4.114v-3.358s-.968-6.5-1.106-9.78c-.088-2.1-.064-4.973-.035-6.763,0-.323.011-.61.016-.852l-.118.012s-.019.664-.035,1.67c-.028,1.79-.055,4.66.035,6.761.138,3.283,1.1,9.781,1.1,9.781v3.358a6,6,0,0,0,.762,4.112l.24,2.177a6.915,6.915,0,0,1,.553,2.593A15.385,15.385,0,0,0,786.692,428.2Z" transform="translate(-783.448 -394.14)"/>
    <path id="Path_674" data-name="Path 674" d="M867.572,623.812a4.04,4.04,0,0,1-.663-1.642c-.426.385.064,1.88.53,2.474.482.622,4.077,1,4.771-.14v-.657C871.269,624.771,868.028,624.4,867.572,623.812Z" transform="translate(-852.026 -581.872)"/>
    <path id="Path_675" data-name="Path 675" d="M898.884,609.253a6.974,6.974,0,0,0-.484,1.037v.49a7.263,7.263,0,0,1,.353-.693,2.121,2.121,0,0,0,.152-.857S898.89,609.246,898.884,609.253Z" transform="translate(-878.086 -571.219)"/>
    <path id="Path_676" data-name="Path 676" d="M863.4,588.657a6.832,6.832,0,0,0,.341-.822s-.589.138-1.522-.968a4.91,4.91,0,0,1-.62-3.317c-.177.588-.451,3.041.482,4.148A2.461,2.461,0,0,0,863.4,588.657Z" transform="translate(-847.639 -550.077)"/>
    <path id="Path_677" data-name="Path 677" d="M833.984,480.52a18.413,18.413,0,0,1,.069,2.048,2.807,2.807,0,0,1,.071-.32,12,12,0,0,0,0-2.557,5.112,5.112,0,0,0-.242-1.833,22.311,22.311,0,0,1-.855-3.008,2.034,2.034,0,0,0-.484-1.313,5.914,5.914,0,0,1-.8-2.213,2.273,2.273,0,0,1-.354-1.486,3.01,3.01,0,0,0-.587-1.8l-1.175-3.732-1.106-2.8-.624,1.626s0,.205-.021.53l.505-1.32,1.106,2.794,1.175,3.732a3.01,3.01,0,0,1,.587,1.8,2.274,2.274,0,0,0,.353,1.486,5.893,5.893,0,0,0,.8,2.213,2.023,2.023,0,0,1,.482,1.313,22.74,22.74,0,0,0,.864,3A5.109,5.109,0,0,1,833.984,480.52Z" transform="translate(-820.028 -449.604)"/>
  </g>
  <path id="Path_678" data-name="Path 678" d="M863.017,194.115l-.26,1.262.016.562.011.414-1.442.148-.161-.3h0a13.4,13.4,0,0,0-1.119-1.81c-.267-.223-.742-3.732-.177-3.524a1.508,1.508,0,0,1,.8.726S863.528,191.92,863.017,194.115Z" transform="translate(-722.633 -178.024)" fill="#ffcdd3"/>
  <path id="Path_679" data-name="Path 679" d="M870.053,219.227l-1.442.148-.161-.3h0a1.271,1.271,0,0,1,1.59-.262Z" transform="translate(-729.902 -200.899)" opacity="0.1"/>
  <path id="Path_680" data-name="Path 680" d="M870.03,220.521l-1.9.44-.041-.283-.108-.762a1.309,1.309,0,0,1,1.841-.251l.1.387Z" transform="translate(-729.515 -201.509)" fill="#6c63ff"/>
  <path id="Path_681" data-name="Path 681" d="M683.936,181.8l-2.031,1.089-.177-.382c-.193-.4-.481-1.014-.56-1.237-.12-.336-.967-.76-.967-.76-2.121-2.031.406-3.777.406-3.777,1.34-2.695,2.828.915,2.828.915a9.144,9.144,0,0,1,.062,2.031c-.147.127-.147.649-.147.649a7.971,7.971,0,0,1,.489,1.161C683.9,181.683,683.936,181.8,683.936,181.8Z" transform="translate(-574.223 -165.574)" fill="#ffcdd3"/>
  <path id="Path_682" data-name="Path 682" d="M695,208.565l-2.031,1.089-.177-.382c.286-.24,1.3-1.06,1.636-1.027a2.447,2.447,0,0,0,.481.012C694.964,208.447,695,208.565,695,208.565Z" transform="translate(-585.285 -192.337)" opacity="0.1"/>
  <path id="Path_683" data-name="Path 683" d="M695.459,209.828l-2.281,1.124-.046-.49-.032-.339s1.322-1.133,1.712-1.089a2.076,2.076,0,0,0,.6,0l.026.41Z" transform="translate(-585.54 -192.986)" fill="#6c63ff"/>
  <path id="Path_684" data-name="Path 684" d="M808.8,220.8s-9.946,1.122-8.087.518a2.486,2.486,0,0,0,1.916-2.156,5.179,5.179,0,0,0-.369-2.3,10.015,10.015,0,0,0-.884-1.8s7.6-4.181,6.081-.38a6.13,6.13,0,0,0-.431,1.8,5.087,5.087,0,0,0,.2,1.824A5.43,5.43,0,0,0,808.8,220.8Z" transform="translate(-673.943 -196.324)" fill="#ffcdd3"/>
  <path id="Path_685" data-name="Path 685" d="M811.616,214.654a6.126,6.126,0,0,0-.431,1.8,3.5,3.5,0,0,1-2.51.562,4.49,4.49,0,0,1-2.251-.186,10.018,10.018,0,0,0-.884-1.8S813.137,210.852,811.616,214.654Z" transform="translate(-678.11 -196.299)" opacity="0.1"/>
  <circle id="Ellipse_39" data-name="Ellipse 39" cx="4.112" cy="4.112" r="4.112" transform="translate(126.319 12.758)" fill="#ffcdd3"/>
  <path id="Path_686" data-name="Path 686" d="M808.8,243.094s-9.946,1.122-8.087.518a2.486,2.486,0,0,0,1.916-2.156,5.548,5.548,0,0,1,2.121-1.129,2.976,2.976,0,0,1,1.8-.03,2.562,2.562,0,0,1,.656.3A5.431,5.431,0,0,0,808.8,243.094Z" transform="translate(-673.943 -218.622)" opacity="0.1"/>
  <path id="Path_687" data-name="Path 687" d="M870.532,223.317l-1.9.44-.041-.283a1.682,1.682,0,0,1,1.829-.626Z" transform="translate(-730.017 -204.306)" opacity="0.1"/>
  <path id="Path_688" data-name="Path 688" d="M695.607,211.735l-2.281,1.124-.046-.49a16.637,16.637,0,0,1,2.3-1.02Z" transform="translate(-585.688 -194.894)" opacity="0.1"/>
  <path id="Path_689" data-name="Path 689" d="M798.835,388.188c-3.854.615-9.333,1.4-10.2,1.135a25.482,25.482,0,0,0-5.033-.127c.018-1,.035-1.67.035-1.67l14.929-1.555A12.488,12.488,0,0,0,798.835,388.188Z" transform="translate(-660.047 -338.655)" opacity="0.1"/>
  <path id="Path_690" data-name="Path 690" d="M725.531,244.156s-12.683,2.177-14.044,1.767-8.35.034-8.35.034c-3.146,2.108-1.833-1-1.833-1a7.731,7.731,0,0,1,.1-2.937,17.948,17.948,0,0,0,.521-2.941,6.848,6.848,0,0,1,.311-2.559,19.713,19.713,0,0,0,.831-3.939s.345-2.35.311-2.868.1-1.97.1-1.97l.451-2.419c-2.593-.345-10.473-5.183-10.473-5.183-.38-1.624-3.317-5.425-3.317-5.425a4,4,0,0,0-.242-.933c-.207-.553,2.9-1.659,2.9-1.659s2.315,2.828,2.8,3.595a15.413,15.413,0,0,0,2.142,2.177,1.667,1.667,0,0,1,.76.1l.041.012h0a6.16,6.16,0,0,1,1.546.884,3,3,0,0,1,2.108.8s1.414-.208,1.659.034,1.451,0,1.451,0,1.209-2.557,2-1.815,4.169.707,4.169.707a4.88,4.88,0,0,1,2.227-1.237,2.988,2.988,0,0,1,1.8-.03,2.285,2.285,0,0,1,.707.353l2.052,2s.587-.762.518-.933.691-.311.691-.311,1-.311,1.382-.415.728.307.76.345a4.131,4.131,0,0,1-.177-1.52,1.8,1.8,0,0,0-.415-1.237c1.209-2.972,3.939-.484,3.939-.484a5.7,5.7,0,0,1,.035,2.246c-.276.622.276,1.935.207,2.281s.14.933.14,1.59a9.714,9.714,0,0,1-.553,2.453c-.2.553-1.866,1.8-1.866,1.8a7.8,7.8,0,0,1-.831,3.11c-.726,1.14-.27,5.038-.27,5.038s.691,3.041,1.555,4.01S725.531,244.156,725.531,244.156Z" transform="translate(-582.901 -195.528)" fill="#3f3d56"/>
  <path id="Path_691" data-name="Path 691" d="M778.878,254.882s-.38-1.14-.726-1.237a7.994,7.994,0,0,1-1-.449l.223-.426s1.3.353,1.506.737A2.932,2.932,0,0,1,778.878,254.882Z" transform="translate(-654.737 -228.994)" opacity="0.1"/>
  <path id="Path_692" data-name="Path 692" d="M732.966,246.243c-.069.353-3.146.656-3.146.656l1.555-1.559h0l.039.014h0A6.16,6.16,0,0,1,732.966,246.243Z" transform="translate(-615.771 -222.877)" opacity="0.1"/>
  <circle id="Ellipse_40" data-name="Ellipse 40" cx="0.276" cy="0.276" r="0.276" transform="translate(108.019 18.347)" fill="#575988"/>
  <circle id="Ellipse_41" data-name="Ellipse 41" cx="0.276" cy="0.276" r="0.276" transform="translate(108.373 18.9)" fill="#575988"/>
  <circle id="Ellipse_42" data-name="Ellipse 42" cx="0.276" cy="0.276" r="0.276" transform="translate(108.719 19.411)" fill="#575988"/>
  <circle id="Ellipse_43" data-name="Ellipse 43" cx="0.276" cy="0.276" r="0.276" transform="translate(109.081 19.962)" fill="#575988"/>
  <circle id="Ellipse_44" data-name="Ellipse 44" cx="0.224" cy="0.224" r="0.224" transform="translate(141.709 19.984)" fill="#575988"/>
  <circle id="Ellipse_45" data-name="Ellipse 45" cx="0.224" cy="0.224" r="0.224" transform="translate(141.745 20.494)" fill="#575988"/>
  <circle id="Ellipse_46" data-name="Ellipse 46" cx="0.224" cy="0.224" r="0.224" transform="translate(141.775 21.003)" fill="#575988"/>
  <path id="Path_693" data-name="Path 693" d="M787,317.719c-.034-.041,7.758,9.8,13.806,4.112C800.81,321.833,791.255,323.129,787,317.719Z" transform="translate(-662.845 -282.465)" opacity="0.1"/>
  <path id="Path_694" data-name="Path 694" d="M761.7,346.66s4.662.127,5.15,1.469v1.4a.894.894,0,0,1-.868,0c-.47-.255-3.289-1.686-4.282-1Z" transform="translate(-642.017 -306.292)" opacity="0.1"/>
  <path id="Path_695" data-name="Path 695" d="M762.19,346.66s4.459.122,4.925,1.4v1.329a.855.855,0,0,1-.831,0c-.449-.24-3.144-1.606-4.095-.949Z" transform="translate(-642.421 -306.292)" fill="#3f3d56"/>
  <path id="Path_696" data-name="Path 696" d="M776.1,289.38a15,15,0,0,0,1.808,3.1,12.172,12.172,0,0,0,2.828,2.734S776.178,290.02,776.1,289.38Z" transform="translate(-653.872 -259.134)" opacity="0.1"/>
  <path id="Path_697" data-name="Path 697" d="M767.47,258.73s.778,3.358,2.782,4.5Z" transform="translate(-646.767 -233.901)" opacity="0.1"/>
  <path id="Path_698" data-name="Path 698" d="M760.4,260.645c-.019-.062-.691,2.651,2.584,4.158C762.98,264.8,761.589,264.332,760.4,260.645Z" transform="translate(-640.887 -235.476)" opacity="0.1"/>
  <path id="Path_699" data-name="Path 699" d="M875.9,247.9a23.286,23.286,0,0,1,2.069,1.555S876.889,247.829,875.9,247.9Z" transform="translate(-736.038 -224.982)" opacity="0.1"/>
  <path id="Path_700" data-name="Path 700" d="M800.3,191.539a.649.649,0,0,0,.707.641,8.223,8.223,0,0,0,3.711-.353,1.415,1.415,0,0,0,.565-.375,2.326,2.326,0,0,0,.329-.91,13.229,13.229,0,0,1,.758-1.746,5.849,5.849,0,0,0,.408-3.137,2.121,2.121,0,0,0-.315-.917c-.332-.475-.938-.668-1.378-1.046s-.723-.956-1.237-1.237a2.375,2.375,0,0,0-1.552-.138,8.145,8.145,0,0,0-2.895,1.087,1.476,1.476,0,0,1-.968.329,1.3,1.3,0,0,1-.707-.546,3.828,3.828,0,0,0-.3,1.794.77.77,0,0,1-.009.27.813.813,0,0,1-.193.285,1.046,1.046,0,0,0-.2,1.292c.133.157.338.244.467.4.232.288.154.707.148,1.074a.553.553,0,0,0,.092.364.53.53,0,0,0,.507.122,1.38,1.38,0,0,1,.541-.051.906.906,0,0,1,.47.353A6.641,6.641,0,0,1,800.3,191.539Z" transform="translate(-670.978 -170.942)" fill="#2d293d"/>
  <g id="Group_243" data-name="Group 243" transform="translate(125.899 12.211)" opacity="0.1">
    <path id="Path_701" data-name="Path 701" d="M805.428,207.147a1.414,1.414,0,0,1-.565.375,8.34,8.34,0,0,1-3.711.353.65.65,0,0,1-.709-.643,6.448,6.448,0,0,0-1.048-2.432.909.909,0,0,0-.47-.362,1.45,1.45,0,0,0-.541.051.53.53,0,0,1-.507-.12.554.554,0,0,1-.092-.364c0-.371.083-.786-.148-1.074-.129-.161-.334-.247-.467-.406a.806.806,0,0,1-.079-.824.942.942,0,0,0-.058,1.1c.132.157.337.244.466.4.232.29.154.707.148,1.074a.55.55,0,0,0,.09.364.53.53,0,0,0,.509.122,1.38,1.38,0,0,1,.541-.051.906.906,0,0,1,.47.353A6.459,6.459,0,0,1,800.3,207.5a.884.884,0,0,0,.306.56.858.858,0,0,0,.389.085,8.2,8.2,0,0,0,3.711-.353,1.4,1.4,0,0,0,.566-.375,1.082,1.082,0,0,0,.177-.332A.087.087,0,0,1,805.428,207.147Z" transform="translate(-796.877 -199.16)"/>
    <path id="Path_702" data-name="Path 702" d="M799.946,189.323a.6.6,0,0,0,.125-.209.771.771,0,0,0,0-.27,3.834,3.834,0,0,1,.193-1.488l-.023-.027a3.8,3.8,0,0,0-.3,1.792,1.283,1.283,0,0,1,0,.2Z" transform="translate(-799.394 -187.33)"/>
  </g>
  <path id="Path_703" data-name="Path 703" d="M812.08,248.46s5.137.682,5.6-.09" transform="translate(-683.494 -225.371)" opacity="0.1"/>
  <path id="Path_704" data-name="Path 704" d="M868.59,236.85s2.856,0,3.483,1.074" transform="translate(-730.017 -215.887)" opacity="0.1"/>
  <path id="Path_705" data-name="Path 705" d="M941.406,765.482a4.529,4.529,0,0,1-3.084,1.152c-.29,0-.691.055-.693.345a.487.487,0,0,0,.085.237,2.835,2.835,0,0,0,1.59,1.249,5.62,5.62,0,0,0,1.924.122l1.882-.1c.354-.019.707-.037,1.06-.081s.739-.117,1.108-.177a14.491,14.491,0,0,1,2.741-.127.83.83,0,0,0,.675-.177c.145-.177.071-.514.016-.779-.113-.546,0-1.119-.1-1.667a2.926,2.926,0,0,0-1.921-2.046c-.848-.322-2.35-.691-3.153-.154A20.737,20.737,0,0,0,941.406,765.482Z" transform="translate(-786.856 -649.063)" fill="#3f3d56"/>
  <path id="Path_706" data-name="Path 706" d="M951.974,576.461c.166.79.931,1.394.953,2.2a3.437,3.437,0,0,1-.774,1.743,11.633,11.633,0,0,0-.79,1.788,27.314,27.314,0,0,1-2.319,4.612,3.691,3.691,0,0,0-.836,2.283,3.42,3.42,0,0,0,.4,1.092l1.325,2.633a7.627,7.627,0,0,1,.677,1.663c.115.5.125,1.018.193,1.527.209,1.615.967,3.241.518,4.807-.039.134-.177.3-.285.2a5.036,5.036,0,0,1,.756,2.57,3.584,3.584,0,0,0,.012,1.446,1.583,1.583,0,0,1,.207.569,3.627,3.627,0,0,1-.076.391.862.862,0,0,0,.661.8c.355.118.742.11,1.1.217a6.753,6.753,0,0,1,1.767,1.212,3.763,3.763,0,0,0,2.036.663.513.513,0,0,0,.3-.06.486.486,0,0,0,.166-.364,2.021,2.021,0,0,0-.728-1.757.794.794,0,0,1-.27-.283.683.683,0,0,1-.025-.316,23.809,23.809,0,0,0-.078-4.347,6.6,6.6,0,0,1-.069-1.384,5.658,5.658,0,0,0,.111-1.151,6.113,6.113,0,0,0-.354-1.1,7.948,7.948,0,0,1-.177-2.052,17.994,17.994,0,0,0-.581-3.534,2.673,2.673,0,0,0-.55-1.276c-.276-.288-.721-.564-.617-.947a1.121,1.121,0,0,1,.253-.376,1.511,1.511,0,0,0,.315-1.152.518.518,0,0,0,.6-.279,9.317,9.317,0,0,0,4.662-5.3,1.749,1.749,0,0,1,.209-.474,2.135,2.135,0,0,1,.854-.553,6.482,6.482,0,0,0,2.243-2.287,4.042,4.042,0,0,0,.984-2.854l.055-2.076a1.122,1.122,0,0,0-.039-.406,1.016,1.016,0,0,0-.224-.329,3.992,3.992,0,0,0-2.2-1.188c-.566-.1-1.143-.081-1.716-.129a21.35,21.35,0,0,0-3.315-.353,5.306,5.306,0,0,0-4.119,2.882C952.9,575.977,952.593,576.451,951.974,576.461Z" transform="translate(-795.555 -492.252)" fill="#464353"/>
  <path id="Path_707" data-name="Path 707" d="M905.8,496.977a2.32,2.32,0,0,1-.127.945.661.661,0,0,1-.776.4c.09-.2-.148-.435-.371-.41a.7.7,0,0,0-.49.421,1.565,1.565,0,0,0-.141.96,3.894,3.894,0,0,1,.244,1.205c-.049.339-.3.677-.166.991a1.6,1.6,0,0,0,.32.383,1.081,1.081,0,0,1-.115,1.484l3.344.067a2.361,2.361,0,0,0,.415,1.626,10.25,10.25,0,0,0,7.641,4.989.664.664,0,0,0-.161,1.016.944.944,0,0,0,1.075.062,7.65,7.65,0,0,0,.919-.689,2.828,2.828,0,0,1,1.889-.509c.419.041.825.177,1.246.2,1.237.065,2.3-.825,3.488-1.189a8.049,8.049,0,0,0,2.58-.809,1.028,1.028,0,0,0,.481-.995,1.663,1.663,0,0,0-.353-.585,10.108,10.108,0,0,1-.967-1.811,10.836,10.836,0,0,0-2.416-3.238,21.615,21.615,0,0,0-2.4-1.817,4.087,4.087,0,0,0-.647-.391,7.257,7.257,0,0,1-.884-.353,4.713,4.713,0,0,1-.921-1.036,13.8,13.8,0,0,0-2.5-1.737,5.924,5.924,0,0,0-1.686-1.142c-.318-.1-.656-.1-.974-.2-.723-.219-1.249-.861-1.958-1.12a7.858,7.858,0,0,0-1.767-.224,4.137,4.137,0,0,1-1.847-.7,2.19,2.19,0,0,0-.589-.343c-.9-.272-.968,1.4-1.06,1.974A19.049,19.049,0,0,0,905.8,496.977Z" transform="translate(-759.066 -426.269)" fill="#6c63ff"/>
  <path id="Path_708" data-name="Path 708" d="M862.023,537.312c.15,1.629-1.08,3.208-.721,4.8.076.339.223.663.276,1.007a3.863,3.863,0,0,1-.954,2.633l-4.63,6.795a4.273,4.273,0,0,1-.661.816c-.884.786-2.213.707-3.375.94a5.832,5.832,0,0,0-2.262,1,.147.147,0,0,0-.028.2,1.944,1.944,0,0,0,1.681.79c.122.159,0,.4-.168.511-.247.177-.59.217-.64.64a.707.707,0,0,0,.085.424,1.32,1.32,0,0,0,.809.562c1.6.491,3.335-.371,4.535-1.543s2.061-2.651,3.237-3.842c.652-.661,1.393-1.225,2.064-1.864a23.616,23.616,0,0,0,3.386-4.381,4.848,4.848,0,0,0,.733-1.492c.126-.543.067-1.092.21-1.617a5.942,5.942,0,0,1,1.11-1.813,6,6,0,0,0,1.262-3.909,3.747,3.747,0,0,0-2.287-3.243,2.055,2.055,0,0,0-1.281-.078,3.036,3.036,0,0,0-1.3,1.039l-.884,1.014a2.363,2.363,0,0,0-.5.779.815.815,0,0,0,.177.866" transform="translate(-714.414 -461.009)" fill="#fbbebe"/>
  <path id="Path_709" data-name="Path 709" d="M919.053,511.9a2.532,2.532,0,0,0-1.707.53,2.43,2.43,0,0,0-.431.675,6.722,6.722,0,0,0-.854,2.686,12.3,12.3,0,0,0,.309,2.244,8.593,8.593,0,0,1-.193,1.886,13.086,13.086,0,0,0,2.435-.937,8.154,8.154,0,0,1,1.426-.74,4.29,4.29,0,0,1,2.635.512c.037-.484-.327-1.329-.288-1.815a2.027,2.027,0,0,1,.108-.6,3.642,3.642,0,0,1,.366-.581,2.379,2.379,0,0,0-.214-2.787,3.882,3.882,0,0,0-2.488-1.06,10.761,10.761,0,0,0-1.737-.06" transform="translate(-769.098 -442.285)" fill="#6c63ff"/>
</svg>
