<svg xmlns="http://www.w3.org/2000/svg" xmlns:xlink="http://www.w3.org/1999/xlink" width="443.926" height="352.743" viewBox="0 0 443.926 352.743">
  <defs>
    <filter id="Path_569" x="0" y="350.825" width="443.926" height="1.627" filterUnits="userSpaceOnUse">
      <feOffset dy="3" input="SourceAlpha"/>
      <feGaussianBlur stdDeviation="3" result="blur"/>
      <feFlood flood-opacity="0.161" result="color"/>
      <feComposite operator="out" in="SourceGraphic" in2="blur"/>
      <feComposite operator="in" in="color"/>
      <feComposite operator="in" in2="SourceGraphic"/>
    </filter>
  </defs>
  <g id="undraw_stepping_up_g6oo" transform="translate(0 0)">
    <path id="Path_553" data-name="Path 553" d="M755.6,659.34c-6.145-5.192-9.877-13.394-8.9-21.379s7.041-15.325,14.905-17.021,16.828,3,19.217,10.68c1.315-14.81,2.829-30.241,10.7-42.853,7.13-11.42,19.479-19.592,32.862-21.054s27.474,4.06,35.821,14.623,10.39,25.92,4.545,38.048c-4.306,8.934-12.24,15.583-20.553,20.992a132.649,132.649,0,0,1-90.724,19.847" transform="translate(-424.448 -310.834)" fill="#f2f2f2"/>
    <path id="Path_554" data-name="Path 554" d="M863.669,574.068a218.881,218.881,0,0,0-64.312,86.963c-.613,1.5,1.828,2.158,2.434.671a216.442,216.442,0,0,1,63.663-85.849c1.26-1.026-.535-2.8-1.785-1.785Z" transform="translate(-441.142 -312.824)" fill="#fff"/>
    <path id="Path_555" data-name="Path 555" d="M415.79,669.429H380.941a4.447,4.447,0,0,1-4.441-4.441v-72.43a4.447,4.447,0,0,1,4.441-4.441H415.79a4.447,4.447,0,0,1,4.441,4.441v72.43A4.447,4.447,0,0,1,415.79,669.429Z" transform="translate(-307.256 -317.369)" fill="#e76f51"/>
    <path id="Path_556" data-name="Path 556" d="M536.473,638.126H501.625A5.13,5.13,0,0,1,496.5,633V492.241a5.13,5.13,0,0,1,5.125-5.125h34.848a5.131,5.131,0,0,1,5.125,5.125V633A5.131,5.131,0,0,1,536.473,638.126ZM501.625,488.483a3.762,3.762,0,0,0-3.758,3.758V633a3.763,3.763,0,0,0,3.758,3.758h34.848A3.763,3.763,0,0,0,540.231,633V492.241a3.763,3.763,0,0,0-3.758-3.758Z" transform="translate(-345.259 -285.383)" fill="#3f3d56"/>
    <path id="Path_557" data-name="Path 557" d="M657.473,596.639H622.625a5.13,5.13,0,0,1-5.125-5.125V361.241a5.131,5.131,0,0,1,5.125-5.125h34.849a5.13,5.13,0,0,1,5.125,5.125V591.514A5.13,5.13,0,0,1,657.473,596.639ZM622.625,357.483a3.762,3.762,0,0,0-3.758,3.758V591.514a3.762,3.762,0,0,0,3.758,3.758h34.849a3.762,3.762,0,0,0,3.758-3.758V361.241a3.762,3.762,0,0,0-3.758-3.758Z" transform="translate(-383.579 -243.896)" fill="#3f3d56"/>
    <path id="Path_558" data-name="Path 558" d="M779.919,553.068H745.07a4.447,4.447,0,0,1-4.441-4.441V224.058a4.447,4.447,0,0,1,4.441-4.441h34.848a4.447,4.447,0,0,1,4.442,4.442V548.627a4.447,4.447,0,0,1-4.441,4.442Z" transform="translate(-422.574 -200.667)" fill="#e76f51"/>
    <path id="Path_559" data-name="Path 559" d="M470.726,400.334a6.871,6.871,0,0,0-7.162-7.727l-12.147-22.281-2.733,9.566L457,400.312a6.908,6.908,0,0,0,13.72.022Z" transform="translate(-330.116 -248.396)" fill="#a0616a"/>
    <path id="Path_560" data-name="Path 560" d="M68.816,339.017l6.765,4.94L97.854,320.21l-9.986-7.29Z" transform="translate(-21.794 -99.1)" fill="#a0616a"/>
    <path id="Path_561" data-name="Path 561" d="M0,0H26.328V10.172H10.172A10.172,10.172,0,0,1,0,0H0Z" transform="matrix(-0.808, -0.59, 0.59, -0.808, 62.249, 260.664)" fill="#2f2e41"/>
    <path id="Path_562" data-name="Path 562" d="M121.2,374.4h8.377l3.985-32.312H121.2Z" transform="translate(-38.383 -108.338)" fill="#a0616a"/>
    <path id="Path_563" data-name="Path 563" d="M0,0H26.328V10.172H10.172A10.172,10.172,0,0,1,0,0H0Z" transform="translate(107.349 273.841) rotate(179.997)" fill="#2f2e41"/>
    <path id="Path_564" data-name="Path 564" d="M419.248,392.627s4.1,39.632-6.15,66.964l-7.516,51.931H392.6l1.367-61.5-4.783-54.664S398.749,370.762,419.248,392.627Z" transform="translate(-311.272 -252.59)" fill="#2f2e41"/>
    <path id="Path_565" data-name="Path 565" d="M87,206.723l13.666,47.148L74.021,296.236,87.345,307.51l30.407-47.49-8.883-58.081Z" transform="translate(-23.442 -63.953)" fill="#2f2e41"/>
    <circle id="Ellipse_25" data-name="Ellipse 25" cx="16.783" cy="16.783" r="16.783" transform="translate(81.63 3.48)" fill="#a0616a"/>
    <path id="Path_566" data-name="Path 566" d="M386.13,254.607s10.25-6.833,21.866,8.2l3.075,94.638s-8.883-12.3-27.332-.683-22.549-1.367-22.549-1.367S348.206,257.682,386.13,254.607Z" transform="translate(-301.728 -211.257)" fill="#ccc"/>
    <path id="Path_567" data-name="Path 567" d="M423.63,266.967h0a11.962,11.962,0,0,1,11.3,11.316l2.168,41.2,14.349,38.948-8.2,6.833L416.6,318.795,411.142,280.6a11.962,11.962,0,0,1,12.487-13.636Z" transform="translate(-318.189 -215.657)" fill="#ccc"/>
    <path id="Path_568" data-name="Path 568" d="M397.884,224.735c2.744,2.923,7.839,1.354,8.2-2.639a4.825,4.825,0,0,0-.006-.932c-.185-1.769-1.206-3.374-.962-5.242a2.749,2.749,0,0,1,.5-1.287c2.186-2.928,7.319,1.31,9.382-1.341,1.265-1.625-.222-4.184.749-6,1.281-2.4,5.077-1.215,7.457-2.528,2.648-1.461,2.49-5.524.747-8a12.577,12.577,0,0,0-9.535-4.854,25.577,25.577,0,0,0-10.774,2.1c-3.9,1.522-7.777,3.625-10.18,7.058-2.922,4.175-3.2,9.789-1.742,14.671C392.609,218.72,395.643,222.349,397.884,224.735Z" transform="translate(-311.803 -191.884)" fill="#2f2e41"/>
    <g transform="matrix(1, 0, 0, 1, 0, 0)" filter="url(#Path_569)">
      <path id="Path_569-2" data-name="Path 569" d="M718.274,706.937h-442.3a.814.814,0,0,1,0-1.627h442.3a.814.814,0,0,1,0,1.627Z" transform="translate(-275.16 -354.48)" fill="#fff"/>
    </g>
  </g>
</svg>
