<svg xmlns="http://www.w3.org/2000/svg" width="412.039" height="347.653" viewBox="0 0 412.039 347.653">
  <g id="undraw_Welcome_re_h3d9" transform="translate(0 0.001)">
    <path id="Path_570" data-name="Path 570" d="M464.079,219.975q0,7.328-.616,14.507-.485,5.6-1.324,11.107-.891,5.827-2.185,11.514v0q-.845,3.743-1.857,7.424a165.323,165.323,0,0,1-7.284,20.939q-.944,2.222-1.949,4.413a165.4,165.4,0,0,1-8.5,16.141,168.46,168.46,0,0,1-32.487,39.26q-2.071,1.842-4.2,3.622a167.791,167.791,0,1,1-3.054-260.346q2.084,1.652,4.116,3.378A168.982,168.982,0,0,1,423.189,110.2h0a167.136,167.136,0,0,1,40.886,109.771Z" transform="translate(-128.499 -52.185)" fill="#f2f2f2"/>
    <path id="Path_571" data-name="Path 571" d="M207.556,443.465c-15.984-9.513-28.048-27.292-26.482-45.827a85.7,85.7,0,0,0,53.891,23.619c7.787.46,16.5.161,22.229,5.452,3.567,3.292,5.227,8.249,5.5,13.095s-.7,9.667-1.664,14.424l.332,1.165C242.761,455.464,223.54,452.978,207.556,443.465Z" transform="translate(-158.025 -246.692)" fill="#e6e6e6"/>
    <path id="Path_572" data-name="Path 572" d="M181.087,397.263a73.251,73.251,0,0,0,30.446,33.23,31.544,31.544,0,0,0,9.19,3.637,18.093,18.093,0,0,0,9.492-.752c2.855-.963,5.664-2.278,8.7-2.53a11.078,11.078,0,0,1,8.5,3.135c2.851,2.649,4.581,6.164,6.152,9.661,1.745,3.882,3.5,7.942,6.842,10.734.405.338-.143.948-.548.61-5.821-4.857-6.771-12.992-11.425-18.712-2.171-2.669-5.16-4.7-8.711-4.647-3.1.047-6,1.4-8.885,2.4a19.307,19.307,0,0,1-9.254,1.081,29.162,29.162,0,0,1-9.3-3.27,71.067,71.067,0,0,1-17.7-13.424,74.55,74.55,0,0,1-14.293-20.9c-.219-.479.564-.725.781-.25Z" transform="translate(-157.648 -246.336)" fill="#fff"/>
    <path id="Path_573" data-name="Path 573" d="M223.432,467.719a10.99,10.99,0,0,1-13.9,3.04c-.465-.249-.1-.983.366-.734a10.177,10.177,0,0,0,12.926-2.854C223.14,466.75,223.748,467.3,223.432,467.719Z" transform="translate(-174.002 -285.757)" fill="#fff"/>
    <path id="Path_574" data-name="Path 574" d="M281.724,463.408a21.182,21.182,0,0,0-7.375-13.561c-.4-.34.144-.949.548-.61a22.033,22.033,0,0,1,7.646,14.127c.064.525-.755.565-.819.044Z" transform="translate(-210.54 -275.688)" fill="#fff"/>
    <path id="Path_575" data-name="Path 575" d="M201.707,423.511a6.221,6.221,0,0,0,2.093-5.519c-.071-.524.748-.564.819-.044a6.971,6.971,0,0,1-2.3,6.111.424.424,0,0,1-.579.031.412.412,0,0,1-.031-.579Z" transform="translate(-169.66 -257.919)" fill="#fff"/>
    <path id="Path_576" data-name="Path 576" d="M285.758,315.46c.054.326.107.651.167.98a81.929,81.929,0,0,0,3.285,12.877c.106.326.219.655.334.978a86.369,86.369,0,0,0,15.985,27.488,83.877,83.877,0,0,0,9.042,8.98c4.471,3.811,9.622,7.588,12.489,12.508a14.38,14.38,0,0,1,.817,1.582L315.7,408.629c-.059.049-.113.1-.172.151l-.435,1.131c-.177-.131-.358-.27-.535-.4-.1-.075-.2-.157-.306-.232-.068-.052-.135-.1-.2-.148-.023-.017-.045-.035-.061-.049-.064-.043-.119-.09-.177-.131q-1.518-1.164-3.025-2.353c-.006,0-.006,0-.01-.012a123.326,123.326,0,0,1-20.788-20.445c-.179-.23-.364-.462-.537-.7a80.038,80.038,0,0,1-7.1-10.962,70.747,70.747,0,0,1-3.045-6.479,58.839,58.839,0,0,1-4.19-17.913c-.893-12.267,2.148-24.684,10.028-33.921C285.351,315.924,285.55,315.694,285.758,315.46Z" transform="translate(-210.97 -200.422)" fill="#e6e6e6"/>
    <path id="Path_577" data-name="Path 577" d="M297.153,315.254a73.252,73.252,0,0,0,4.3,44.863,31.546,31.546,0,0,0,5.148,8.437,18.092,18.092,0,0,0,8.032,5.114c2.859.95,5.894,1.591,8.473,3.22a11.078,11.078,0,0,1,4.9,7.621c.682,3.832-.054,7.68-.9,11.418-.944,4.15-1.99,8.446-1,12.69.12.514-.685.67-.8.157-1.724-7.383,2.415-14.45,2.144-21.819-.127-3.439-1.29-6.86-4.157-8.955-2.507-1.832-5.636-2.5-8.54-3.433a19.306,19.306,0,0,1-8.04-4.708,29.162,29.162,0,0,1-5.453-8.208,71.068,71.068,0,0,1-6.047-21.373,74.551,74.551,0,0,1,1.172-25.295c.113-.514.887-.24.774.271Z" transform="translate(-222.04 -199.999)" fill="#fff"/>
    <path id="Path_578" data-name="Path 578" d="M288.417,400.062a10.99,10.99,0,0,1-12.93-5.943c-.221-.479.513-.845.734-.365a10.176,10.176,0,0,0,12.039,5.5c.507-.145.661.661.157.8Z" transform="translate(-211.238 -244.378)" fill="#fff"/>
    <path id="Path_579" data-name="Path 579" d="M336.873,428.692a21.182,21.182,0,0,0,2.276-15.268c-.118-.515.687-.671.8-.157a22.033,22.033,0,0,1-2.4,15.883C337.289,429.608,336.61,429.147,336.873,428.692Z" transform="translate(-245.79 -255.313)" fill="#fff"/>
    <path id="Path_580" data-name="Path 580" d="M295.5,350.315a6.221,6.221,0,0,0,4.994-3.147c.258-.461.937,0,.68.458a6.971,6.971,0,0,1-5.517,3.494.424.424,0,0,1-.481-.324.412.412,0,0,1,.324-.481Z" transform="translate(-222.34 -218.167)" fill="#fff"/>
    <path id="Path_581" data-name="Path 581" d="M368.036,140.841l20.537,240.408L347.5,384.337V143.9C352.393,140.661,359.419,140.154,368.036,140.841Z" transform="translate(-251.807 -101.952)" fill="#ccc"/>
    <path id="Path_582" data-name="Path 582" d="M600.036,140.841,579.5,381.249l41.074,3.088V143.9C615.678,140.661,608.653,140.154,600.036,140.841Z" transform="translate(-382.433 -101.952)" fill="#ccc"/>
    <path id="Path_583" data-name="Path 583" d="M480.981,392.929H350.4a7.907,7.907,0,0,1-7.9-7.9V146.083a7.907,7.907,0,0,1,7.9-7.9H480.981a7.907,7.907,0,0,1,7.9,7.9V385.031A7.907,7.907,0,0,1,480.981,392.929ZM350.4,140.807a5.282,5.282,0,0,0-5.276,5.276V385.031a5.282,5.282,0,0,0,5.276,5.276H480.981a5.282,5.282,0,0,0,5.276-5.276V146.083a5.282,5.282,0,0,0-5.276-5.276Z" transform="translate(-248.992 -100.608)" fill="#ccc"/>
    <rect id="Rectangle_253" data-name="Rectangle 253" width="143.758" height="2.622" transform="translate(94.819 77.34)" fill="#ccc"/>
    <rect id="Rectangle_254" data-name="Rectangle 254" width="143.758" height="2.622" transform="translate(94.819 121.036)" fill="#ccc"/>
    <rect id="Rectangle_255" data-name="Rectangle 255" width="2.622" height="119.288" transform="translate(138.848 38.888)" fill="#ccc"/>
    <rect id="Rectangle_256" data-name="Rectangle 256" width="2.622" height="119.288" transform="translate(191.925 38.888)" fill="#ccc"/>
    <path id="Path_584" data-name="Path 584" d="M474.956,707.28H302.8a11.8,11.8,0,0,1,0-23.6h172.16a11.8,11.8,0,0,1,0,23.6Z" transform="translate(-219.995 -407.749)" fill="#ccc"/>
    <rect id="Rectangle_257" data-name="Rectangle 257" width="142.884" height="8.739" transform="translate(95.693 152.059)" fill="#ccc"/>
    <path id="Path_585" data-name="Path 585" d="M396.212,415.892l-.181-.087c-9.74-4.705-22.5-4.7-41.359.015l-.2.05-.06-.2c-2-6.543-4.256-13.954-.009-17.6.06-10.7,9.444-19.387,20.972-19.387s20.909,8.683,20.972,19.379c6.317,4.83,3.307,11.967-.03,17.654Z" transform="translate(-254.336 -236.02)" fill="#2f2e41"/>
    <path id="Path_586" data-name="Path 586" d="M531.394,401.969a6.049,6.049,0,0,1-8.148,4.434l-34.422,34.591-3.071-10.741,34.188-32.123a6.082,6.082,0,0,1,11.453,3.838Z" transform="translate(-329.65 -245.008)" fill="#ffb6b6"/>
    <path id="Path_587" data-name="Path 587" d="M394.7,451.135s-3.123,7.077,4.583,11.442,34.638-1.665,39.009-2.507S458.984,434.8,458.984,434.8l-2.308-11.979L435.03,441.613Z" transform="translate(-278.031 -260.871)" fill="#e9c46a"/>
    <path id="Path_588" data-name="Path 588" d="M382.228,576.971l.437,8.3s-1.29,7.354-.229,8.941,29.779,1.779,29.779,1.779,1.9-10.232,3.533-19.188Z" transform="translate(-271.242 -347.571)" fill="#ffb6b6"/>
    <path id="Path_589" data-name="Path 589" d="M437.117,743.4l6.005-1.213L441.4,717.931l-8.863,1.79Z" transform="translate(-243.54 -404.229)" fill="#ffb6b6"/>
    <path id="Path_590" data-name="Path 590" d="M449.945,670.837l5.583-2.51-7.242-23.209-8.24,3.705Z" transform="translate(-247.766 -363.231)" fill="#ffb6b6"/>
    <path id="Path_591" data-name="Path 591" d="M468.365,648.521l-10.512,5.952-25.925-41.66c-18.2,12.261-36,18.133-53.938,21.267-6.066,1.08-12.25.533-13.415-5.641q-.082-.433-.13-.871c-.716-6.744,7.672-15.387,8.738-23.638l22.958-1.378,2.831,3.63,26.55-16.323a11.4,11.4,0,0,1,15.685,3.966q.263.433.489.888Z" transform="translate(-261.323 -353.993)" fill="#2f2e41"/>
    <path id="Path_592" data-name="Path 592" d="M456.171,692.7l-12.029,1.118-21.81-44.6c-21.627,3.72-42.031,4.911-59.679.412a11.407,11.407,0,0,1-8.158-13.781q.1-.428.238-.848c2.112-6.444,7.641-11,12-18.092l31.818.483-3.554,12.262,30.909-4A11.4,11.4,0,0,1,438.583,635.7q.062.5.081,1.011Z" transform="translate(-255.563 -370.152)" fill="#2f2e41"/>
    <circle id="Ellipse_26" data-name="Ellipse 26" cx="12.92" cy="12.92" r="12.92" transform="translate(110.49 147.691)" fill="#ffb6b6"/>
    <path id="Path_593" data-name="Path 593" d="M380.379,460l11.846,1.394a2.417,2.417,0,0,1,2.079,1.885l1.884,8.621,11.744,13.83s4.217,7.907,2.636,16.868-2.276,15.62-2.276,15.62-31.5,11.811-32.557,10.23-1.4-8.765-1.4-8.765l-4.217-46.915s4.744-7.907,7.38-7.907C379.2,464.8,378.984,460.972,380.379,460Z" transform="translate(-264.544 -281.803)" fill="#e9c46a"/>
    <ellipse id="Ellipse_27" data-name="Ellipse 27" cx="3.008" cy="3.609" rx="3.008" ry="3.609" transform="translate(141.06 232.077)" fill="#6c63ff"/>
    <path id="Path_594" data-name="Path 594" d="M564.693,808.2l9.156-4.588,1.726,4.026,11.578,2.34a2.736,2.736,0,0,1,.536,5.2l-11.186,4.8-3.635-3.156.954,4.3-4.218,1.808Z" transform="translate(-374.097 -475.274)" fill="#2f2e41"/>
    <path id="Path_595" data-name="Path 595" d="M585.2,745.625l9.074-4.749,1.8,3.995,11.617,2.136a2.736,2.736,0,0,1,.627,5.186l-11.1,4.991-3.69-3.091,1.03,4.287-4.185,1.882Z" transform="translate(-385.646 -439.951)" fill="#2f2e41"/>
    <path id="Path_596" data-name="Path 596" d="M381.63,390.326a16.534,16.534,0,0,1-9.537-3.009l-.093-.065v-.114a12.467,12.467,0,0,1,12.453-12.453H389.7a12.467,12.467,0,0,1,12.453,12.453,2.9,2.9,0,0,1-2.836,2.885l-17.389.3C381.826,390.325,381.728,390.326,381.63,390.326Z" transform="translate(-265.602 -233.768)" fill="#2f2e41"/>
    <ellipse id="Ellipse_28" data-name="Ellipse 28" cx="3.496" cy="4.806" rx="3.496" ry="4.806" transform="translate(129.588 144.402) rotate(-30)" fill="#2f2e41"/>
    <ellipse id="Ellipse_29" data-name="Ellipse 29" cx="4.806" cy="3.496" rx="4.806" ry="3.496" transform="translate(102.932 146.869) rotate(-45)" fill="#2f2e41"/>
    <path id="Path_597" data-name="Path 597" d="M621.6,662.185H608.7a2,2,0,0,0-1.529.707,3.058,3.058,0,1,0,.789,5.756l1.07,3.476a2.015,2.015,0,0,0,1.926,1.422h8.384a2.015,2.015,0,0,0,1.926-1.422l2.256-7.331a2.015,2.015,0,0,0-1.926-2.608Zm-14.968,5.9a2.185,2.185,0,1,1,0-4.37c.04,0,.077.01.116.012a1.994,1.994,0,0,0,.03,1.067l.923,3a2.157,2.157,0,0,1-1.07.292Z" transform="translate(-395.982 -395.644)" fill="#3f3d56"/>
    <path id="Path_598" data-name="Path 598" d="M449.141,594.6a6.049,6.049,0,0,1-6.585-6.533l-43.013-23.05,9.408-6.024,40.581,23.534a6.082,6.082,0,0,1-.391,12.073Z" transform="translate(-281.11 -337.54)" fill="#ffb6b6"/>
    <path id="Path_599" data-name="Path 599" d="M371.5,475.791s-7.676-.961-9.646,7.673,11.534,32.7,13.594,36.649,30.142,12.572,30.142,12.572l10.813-5.648-24.212-15.345Z" transform="translate(-259.779 -290.677)" fill="#e9c46a"/>
    <path id="Path_600" data-name="Path 600" d="M373.306,342h2.622a4.806,4.806,0,0,1,4.806,4.807H368.5A4.807,4.807,0,0,1,373.306,342Z" transform="translate(-207.483 -192.562)" fill="#ccc"/>
    <circle id="Ellipse_30" data-name="Ellipse 30" cx="25.973" cy="25.973" r="25.973" transform="translate(56.716 7.813)" fill="#ff6584"/>
    <path id="Path_601" data-name="Path 601" d="M390.774,101.168C383.9,93.957,375.917,87.379,366.466,83.9a39.07,39.07,0,0,0-8.142-2.046c-.022,0-.043,0-.066,0a1.2,1.2,0,0,0-.137-.027,31.341,31.341,0,0,0-11.633.7,32.14,32.14,0,0,0-5.416,1.887,47.367,47.367,0,0,0-5.082,2.88,33.057,33.057,0,0,1-11.231,4.19,37.783,37.783,0,0,1-6.032.592,14.57,14.57,0,0,0-5.074.73,12.18,12.18,0,0,0-7.418,8.032.79.79,0,0,0,.351.863c.45.322.889.688,1.361.975a4.246,4.246,0,0,0,1.33.363q1.127.238,2.258.462,4.164.825,8.362,1.461,8.5,1.286,17.082,1.812a190.205,190.205,0,0,0,34.382-1.033,190.858,190.858,0,0,0,19.075-3.3.771.771,0,0,0,.337-1.277Z" transform="translate(-228.56 -68.736)" fill="#e6e6e6"/>
    <path id="Path_602" data-name="Path 602" d="M242.92,163.16a39.07,39.07,0,0,0-8.142-2.046c-.022,0-.044,0-.066,0a1.2,1.2,0,0,0-.137-.027,31.341,31.341,0,0,0-11.633.7,32.14,32.14,0,0,0-5.416,1.887,47.362,47.362,0,0,0-5.082,2.88,33.056,33.056,0,0,1-11.231,4.19,37.779,37.779,0,0,1-6.032.592,14.57,14.57,0,0,0-5.074.73,12.18,12.18,0,0,0-7.417,8.031.79.79,0,0,0,.351.863c.45.322.889.688,1.361.975a4.247,4.247,0,0,0,1.33.363q1.127.238,2.258.462,4.164.825,8.362,1.461,8.5,1.286,17.082,1.812A190.208,190.208,0,0,0,247.816,185a190.864,190.864,0,0,0,19.075-3.3.771.771,0,0,0,.337-1.277C260.354,173.214,252.371,166.636,242.92,163.16Z" transform="translate(-158.998 -113.361)" fill="#e6e6e6"/>
    <path id="Path_603" data-name="Path 603" d="M574.677,523.287,554.7,497.048l-15.76,8.911,33.4,39.659Z" transform="translate(-303.45 -279.862)" fill="#3f3d56"/>
    <path id="Path_604" data-name="Path 604" d="M780.891,434.989a143.9,143.9,0,0,0,5.077,32.514q-.944,2.222-1.949,4.413a165.413,165.413,0,0,1-8.5,16.141,168.466,168.466,0,0,1-32.487,39.26q-2.071,1.842-4.2,3.622a78.705,78.705,0,0,1-14.179-36.119c-.219-1.608-.4-3.233-.533-4.85v-.009a103.455,103.455,0,0,1-.319-11.815c0-.315.013-.634.026-.953.153-4.212.533-8.433,1.105-12.615v0c.066-.481.131-.961.205-1.442.21-1.442.446-2.884.7-4.317a174.865,174.865,0,0,1,6.266-24.378v0c.074-.232.149-.459.232-.686.288-.865.581-1.722.883-2.578a1.514,1.514,0,0,1,.07-.2q.583-1.678,1.193-3.33.164-.459.341-.918c.459-1.228.926-2.447,1.4-3.649.149-.385.3-.769.454-1.149.118-.293.232-.586.354-.874v0q1.042-2.576,2.11-5.051c2-4.64,4.051-9.006,6.052-13.03l0,0a239.412,239.412,0,0,1,15.857-27.48l28.354,9.176c-3.382,6-6,14.848-7.433,25.286a141.16,141.16,0,0,0-1.088,25.037Z" transform="translate(-463.654 -234.218)" fill="#3f3d56"/>
    <path id="Path_605" data-name="Path 605" d="M672.15,489.184c-.166-.389-.354-.769-.546-1.149a21.525,21.525,0,0,0-3.806-5.243c-.227-.232-.463-.463-.708-.682a21.287,21.287,0,0,0-19.873-4.92l-.017.009-.131.035.031.149a12.35,12.35,0,0,0,.568,2.032c.066.179.14.35.214.52.031.079.07.149.1.227,0,0,0,0,0,0s0,.009,0,.013c.083.162.162.328.249.485-.179-.17-.349-.345-.516-.524s-.31-.341-.459-.516a14.483,14.483,0,0,1-1.376-1.9l-.07-.118-.122.048a21.456,21.456,0,0,0-4.684,2.294l-.157.1a9.527,9.527,0,0,1-7.651,1.25,15.171,15.171,0,0,0-12.056,1.971,14.989,14.989,0,0,0-3.137,2.735c-.079.092-.157.188-.236.28-.166.2-.323.406-.476.616a14.972,14.972,0,0,0-2.914,7.529l-.009.1.083.057a12.985,12.985,0,0,0,4.911,2.045,14.693,14.693,0,0,1-3.338.083h0a13.52,13.52,0,0,1-1.5-.21l-.092-.017h0l-.114-.022.018.21a15.031,15.031,0,0,0,2.434,7.494l.044.061a.6.6,0,0,1,.044.07,15.732,15.732,0,0,1,1.538,3.019,14.384,14.384,0,0,1,.647,8.263A15.077,15.077,0,0,0,632.619,534c.363.031.73.048,1.1.048a15.065,15.065,0,0,0,6.1-1.271l.07-.026.017-.079a14.793,14.793,0,0,1,1.547-3.4,10.3,10.3,0,0,0-.323,2.565v.288l.249-.144c.214-.127.433-.262.629-.389a15.39,15.39,0,0,0,3.177-2.762c.363-.419.73-.826,1.114-1.232l0,0c.747-.8,1.538-1.573,2.359-2.316a44.121,44.121,0,0,1,5.593-4.269,48.209,48.209,0,0,1,6.174-3.356h0c.24-.113.485-.223.725-.328a21.307,21.307,0,0,0,3.063-1.643c.035-.022.066-.039.1-.061a21.32,21.32,0,0,0,7.83-26.436Z" transform="translate(-402.039 -291.083)" fill="#e76f51"/>
    <path id="Path_606" data-name="Path 606" d="M625.512,570.453a15.08,15.08,0,0,0-.271,1.61,15.263,15.263,0,0,1-.342-7.942c.091-.4.159-.81.213-1.219A14.324,14.324,0,0,1,625.512,570.453Z" transform="translate(-407.788 -339.742)" opacity="0.15"/>
    <path id="Path_607" data-name="Path 607" d="M621.374,534.271a14.7,14.7,0,0,1-3.9.019,15.123,15.123,0,0,1-.877-1.986A12.805,12.805,0,0,0,621.374,534.271Z" transform="translate(-403.32 -322.515)" opacity="0.15"/>
    <path id="Path_608" data-name="Path 608" d="M616.231,522.178a15.188,15.188,0,0,0-.944,3.8,15.015,15.015,0,0,1-.7-3.831l-.011-.21.206.04a14.6,14.6,0,0,0,1.449.2Z" transform="translate(-402.183 -316.68)" opacity="0.15"/>
    <path id="Path_609" data-name="Path 609" d="M621.482,482.98a15.132,15.132,0,0,1,12.049-1.973,9.511,9.511,0,0,0,7.655-1.248l.158-.1a21.4,21.4,0,0,1,4.682-2.3l.126-.044.069.114a14.476,14.476,0,0,0,2.349,2.939,11.1,11.1,0,0,1-1.144-3.282l-.03-.151.149-.039a21.289,21.289,0,0,1,26.7,21.717,21.292,21.292,0,0,0-26.093-15.384l-.149.039.03.151a11.1,11.1,0,0,0,1.144,3.282,14.475,14.475,0,0,1-2.349-2.939l-.069-.114-.126.043a21.394,21.394,0,0,0-4.682,2.3l-.158.1a9.511,9.511,0,0,1-7.655,1.248,15.1,15.1,0,0,0-17.391,8.051,18.282,18.282,0,0,1-1.963-1.1l-.086-.054.01-.1a15.039,15.039,0,0,1,6.768-11.159Z" transform="translate(-402.255 -290.916)" opacity="0.15"/>
    <path id="Path_610" data-name="Path 610" d="M772.339,169.417l-.415-.275-.3.393a35.758,35.758,0,0,0-5.5,9.74,46.639,46.639,0,0,1,2.106-11.924l.131-.406-.376-.214A68.9,68.9,0,0,0,752.47,160.3l-.59-.157a30.613,30.613,0,0,1-19.291-15.853,48.663,48.663,0,0,0-48.69-26.431h0c-.1.009-.214.022-.319.035-.179.017-.354.039-.529.061-.358.048-.708.1-1.057.149-.3.044-.6.092-.9.144-.157.022-.31.048-.463.079s-.31.052-.463.083h0a48.173,48.173,0,0,0-8.59,2.469h0v0l-.7.275q-1.088.446-2.159.944c-.162.074-.319.153-.481.227-.044.022-.092.044-.135.07-.459.218-.913.446-1.363.686-.066.031-.131.066-.2.1l-.42.223q-1.383.747-2.718,1.586c-.074.044-.144.087-.219.135l-.24.157c-.048.026-.1.061-.144.092-.135.083-.267.17-.4.262-.262.17-.524.345-.782.524s-.529.367-.791.555l-.262.188.048.323c.044.267.083.533.131.8s.087.52.135.778c.074.433.157.861.24,1.276.057.275.109.546.17.813s.118.551.183.826c.127.568.262,1.119.406,1.66.07.271.144.542.223.808.044.162.087.323.135.481l.1.328c.009.035.017.074.031.114a1.01,1.01,0,0,0,.035.109q.072.243.144.472c.026.083.052.166.083.245.061.188.127.38.192.564.07.21.144.419.218.625.017.052.035.1.052.153s.026.079.044.118.035.092.052.135c.074.2.149.4.227.594.026.07.052.144.083.214a31.3,31.3,0,0,0,2.6,5.112q-1.7-1.455-3.268-3.085a47.037,47.037,0,0,1-4.457-5.379c-.109-.149-.218-.3-.319-.454-.205-.293-.406-.586-.6-.883s-.411-.625-.607-.939c-.131-.21-.262-.424-.389-.634s-.245-.4-.358-.6l-.341-.586h0v0l-.481.472c-.192.188-.385.376-.572.564a48.561,48.561,0,0,0-12.353,21.258l-.065.24-.066.249c-.127.446-.253.878-.389,1.32v0c-.131.437-.271.874-.419,1.3-.135.406-.275.808-.424,1.21q-.072.2-.157.406c-.092.262-.192.52-.293.782-.048.118-.1.24-.144.358-.118.288-.236.577-.354.861-.018.044-.039.092-.061.135-.035.087-.074.175-.109.258-.092.21-.188.424-.28.634-.066.135-.127.275-.188.411-.026.061-.057.122-.083.184-.162.35-.328.695-.5,1.036-.2.4-.4.8-.612,1.2-.188.367-.385.725-.59,1.084-.354.634-.725,1.263-1.11,1.875-.149.236-.3.472-.45.708-.035.057-.07.114-.1.166-.127.205-.258.4-.393.6-.092.135-.184.271-.275.4-.153.236-.315.463-.481.686-.044.07-.092.135-.14.2-.245.341-.489.673-.738,1.005-.009,0-.009.009-.013.013s-.009,0-.013.009c-.109.144-.219.288-.332.428-.149.205-.31.406-.472.6-.262.332-.537.669-.817,1-.009.009-.013.017-.022.022a46.55,46.55,0,0,1-4.693,4.771c-.031.026-.052.052-.083.074-.236.205-.472.411-.717.612l-.3.249c-.166.14-.337.28-.5.406a.348.348,0,0,1-.066.052c-.149.122-.293.236-.441.35-.179.144-.358.28-.542.415q-1.3.983-2.665,1.857c-.135.092-.28.184-.419.271-.083.052-.166.1-.245.149-.332.205-.664.406-1,.6s-.673.385-1.009.568c-.721.393-1.433.8-2.128,1.232-.35.218-.7.437-1.044.66q-2.058,1.337-3.963,2.862a48.371,48.371,0,0,0-3.649,3.238q-.216.21-.433.433c-.288.284-.568.572-.835.861-.428.441-.839.9-1.245,1.355a49.117,49.117,0,0,0-5.663,7.874,46.285,46.285,0,0,0-2.22,4.321c-.5,1.105-.961,2.237-1.376,3.382q-.413,1.147-.773,2.316c-.118.389-.232.782-.341,1.175-.371,1.333-.682,2.679-.935,4.029q-.308,1.625-.5,3.255c-.065.546-.118,1.092-.166,1.634q-.169,2-.172,4a48.642,48.642,0,0,0,1.448,11.875q.321,1.285.712,2.556c.131.424.271.843.411,1.263q.531,1.573,1.175,3.115.387.924.813,1.835a48.772,48.772,0,0,0,6.852,10.732q.675.806,1.394,1.586s0,0,0,0a48.453,48.453,0,0,0,3.771,3.688h0q.793.7,1.612,1.359s0,0,0,0c.551.446,1.106.874,1.673,1.289q.426.308.865.616.859.61,1.752,1.175h0q.891.577,1.809,1.1c1.228.7,2.486,1.363,3.78,1.962l.218.1.223-.1a47.826,47.826,0,0,1,6.4-2.346c.481-.14.966-.267,1.446-.389q1.822-.452,3.67-.76a30.2,30.2,0,0,0-3.469,2.041c-.861.581-1.708,1.215-2.56,1.914-.284.232-.568.472-.852.717l-.708.612.887.293c.323.1.647.21.97.306.441.14.878.267,1.307.385q1.4.393,2.823.695l.69.144c.45.087.9.175,1.359.253a.3.3,0,0,0,.057.009c.472.079.948.153,1.42.218q1.317.19,2.635.3c.1.013.192.017.293.022.214.017.424.035.638.048.472.031.948.052,1.424.07.035,0,.065,0,.1,0,.24.009.481.017.721.022,0,0,0,0,0,0,.24,0,.481.009.721.009h1.328c.249,0,.5,0,.752,0,.35,0,.7,0,1.053.009.092,0,.188,0,.284,0,.559.009,1.119.022,1.678.035.035,0,.07,0,.1,0,.559.017,1.119.035,1.678.061.122,0,.245.009.371.017q.806.033,1.612.079c.153.009.31.022.468.031.406.022.817.048,1.223.079.24.013.476.031.717.052.97.074,1.936.157,2.906.253.323.026.647.061.97.1q1.3.138,2.6.3c.389.044.778.1,1.167.149.044,0,.087.009.131.017.481.066.957.131,1.438.2.315.044.629.092.944.14s.647.1.97.153c.175.026.35.057.529.087.419.066.843.135,1.267.214a1.028,1.028,0,0,1,.114.017c.9.157,1.8.323,2.7.5.529.1,1.053.205,1.577.315.411.083.821.17,1.232.258.07.013.14.031.21.048a.222.222,0,0,0,.048.009c.62.135,1.245.275,1.866.424q3.231.747,6.454,1.66c.494.135.988.28,1.481.424l.62.184c.428.127.852.253,1.28.389.376.114.756.232,1.132.354.236.074.472.149.708.227.367.114.734.232,1.1.358.31.1.616.2.922.306.437.144.878.293,1.315.45.127.044.258.087.385.135.533.184,1.066.371,1.6.568s1.04.38,1.555.572c.358.135.717.267,1.071.406.4.153.8.306,1.188.463.568.223,1.14.45,1.708.682.524.21,1.044.424,1.569.647.1.039.2.079.293.122.454.188.909.384,1.359.581.293.122.581.249.87.376q1.888.826,3.771,1.708h0c.786.371,1.586.725,2.39,1.062.188.079.376.157.568.232.319.135.642.262.966.393.21.083.419.166.634.245.31.122.625.24.94.354.332.122.66.245,1,.358.118.044.236.083.358.127.389.131.778.262,1.171.389l.122.039c.411.131.821.262,1.237.385a.863.863,0,0,0,.1.031c.446.135.9.267,1.35.393.664.184,1.333.358,2,.52.122.031.245.061.367.087.358.087.712.17,1.07.249.38.087.765.166,1.145.245s.769.157,1.149.227c.205.039.411.079.612.114l.537.092c.371.066.743.122,1.119.184a.084.084,0,0,1,.031,0c.424.066.843.127,1.267.179.406.057.813.1,1.219.153l.258.026c.336.039.673.079,1.009.109l.288.026c.332.031.664.061,1,.083a1.553,1.553,0,0,0,.2.013c.3.026.594.048.891.061.21.017.415.026.625.039l.323.013c.288.017.577.026.87.035.354.013.708.022,1.057.031.424.009.852.013,1.276.013h.009c.415,0,.835,0,1.25-.013h.157l.459-.013c.236,0,.472-.013.7-.022.446-.017.887-.039,1.328-.066.175-.009.354-.022.529-.031.079,0,.162-.013.24-.017.275-.017.546-.035.821-.057s.572-.048.857-.079c.367-.035.734-.074,1.1-.114.288-.031.577-.066.861-.1a.89.89,0,0,0,.114-.017c.275-.031.551-.066.822-.1.323-.044.642-.092.961-.14l.1-.013c.551-.087,1.106-.175,1.66-.275.581-.1,1.162-.218,1.739-.336.214-.044.424-.092.638-.135.118-.026.24-.048.354-.074.179-.039.354-.079.529-.122.031,0,.066-.013.1-.017.245-.052.485-.114.73-.175.489-.118.97-.24,1.451-.371.214-.052.428-.109.634-.166l.179-.052q1.33-.374,2.639-.791c.385-.122.765-.249,1.145-.385q1.226-.419,2.429-.883c.214-.079.428-.166.642-.249.315-.127.629-.253.939-.38.28-.118.559-.236.843-.358.14-.057.28-.118.419-.179.42-.184.839-.371,1.254-.559.28-.131.555-.258.83-.389.437-.21.87-.424,1.3-.638.109-.057.214-.114.319-.166.275-.14.551-.284.83-.424.441-.236.883-.472,1.32-.717.149-.079.293-.162.441-.245q.721-.406,1.429-.826,1.566-.937,3.089-1.958c.253-.166.507-.341.756-.511.472-.323.935-.655,1.4-.988.048-.035.092-.07.14-.1.232-.17.463-.341.695-.516.481-.363.957-.73,1.433-1.106.009,0,.022-.017.035-.026.214-.17.428-.341.638-.511.651-.529,1.293-1.066,1.923-1.621.31-.267.616-.542.918-.817.227-.205.454-.411.677-.62.45-.424.891-.843,1.328-1.272.218-.21.432-.428.651-.647s.433-.437.647-.66c.074-.074.148-.153.223-.232.218-.232.437-.468.655-.7.188-.2.371-.411.559-.62.315-.35.634-.7.944-1.053a.672.672,0,0,1,.052-.057c.017-.022.035-.039.048-.057h0a68.572,68.572,0,0,0-13.664-101.8Z" transform="translate(-390.669 -89)" fill="#e76f51"/>
    <g id="Group_241" data-name="Group 241" transform="translate(203.45 28.852)" opacity="0.15">
      <path id="Path_611" data-name="Path 611" d="M794.766,118.217a34.343,34.343,0,0,0,3.892,8.879,47.27,47.27,0,0,1-7.622-8.324Q792.889,118.422,794.766,118.217Z" transform="translate(-704.989 -118.217)"/>
      <path id="Path_612" data-name="Path 612" d="M690.379,183.4a48.81,48.81,0,0,0-9.014,6.336,49.693,49.693,0,0,0,9.966-18.9c.023-.083.046-.167.069-.251l.065-.237a48.578,48.578,0,0,1,12.922-21.827l.485-.472.342.584a47.5,47.5,0,0,0,6.738,8.877A47.348,47.348,0,0,1,690.379,183.4Z" transform="translate(-643.239 -135.017)"/>
      <path id="Path_613" data-name="Path 613" d="M749.637,140.733l-.065.236c-.023.084-.046.168-.069.251-.128.46-.263.916-.4,1.371a50.625,50.625,0,0,1-2.893-11.106l-.051-.322.265-.189a49.009,49.009,0,0,1,10.75-5.844,48.688,48.688,0,0,0-7.533,15.6Z" transform="translate(-679.718 -122.11)"/>
      <path id="Path_614" data-name="Path 614" d="M619.559,259.981a43.954,43.954,0,0,0,7.987-5.606,48.566,48.566,0,0,0,16.34,75.67l.221.1.22-.1a46.6,46.6,0,0,1,11.517-3.5,33.289,33.289,0,0,0-6.882,4.672l-.707.611.887.293c.766.253,1.531.486,2.275.693a49.033,49.033,0,0,0,13.433,1.8c20.625-.132,41.41,4.636,61.777,14.172a69.392,69.392,0,0,0,10.831,4,68.285,68.285,0,0,0,48.547-4.554,68.659,68.659,0,0,1-70.238,21.268,69.411,69.411,0,0,1-10.831-4c-20.368-9.536-41.153-14.3-61.777-14.173a49.037,49.037,0,0,1-13.433-1.8c-.744-.207-1.51-.439-2.275-.693l-.887-.293.707-.611a33.282,33.282,0,0,1,6.882-4.673,46.592,46.592,0,0,0-11.517,3.5l-.22.1-.221-.1a48.59,48.59,0,0,1-2.636-86.777Z" transform="translate(-594.109 -194.88)"/>
    </g>
  </g>
</svg>
